<svg width="350" height="156" viewBox="0 0 350 156" fill="none" xmlns="http://www.w3.org/2000/svg">
<rect x="134" width="137" height="39" fill="#1539CF"/>
<path d="M175.825 14.15C177.375 14.15 178.575 14.58 179.425 15.44C180.275 16.3 180.7 17.52 180.7 19.1C180.7 20.68 180.275 21.9 179.425 22.76C178.575 23.62 177.375 24.05 175.825 24.05H172V14.15H175.825ZM175.72 22.4C176.66 22.4 177.365 22.12 177.835 21.56C178.315 20.99 178.555 20.17 178.555 19.1C178.555 18.03 178.315 17.215 177.835 16.655C177.365 16.085 176.66 15.8 175.72 15.8H174.07V22.4H175.72Z" fill="white"/>
<path d="M191.916 22.385V24.05H184.281V14.15H191.706V15.815H186.351V18.275H190.566V19.865H186.351V22.385H191.916Z" fill="white"/>
<path d="M198.888 14C199.808 14 200.598 14.155 201.258 14.465C201.918 14.765 202.498 15.245 202.998 15.905L201.573 17.3C201.313 16.76 200.968 16.36 200.538 16.1C200.108 15.83 199.563 15.695 198.903 15.695C198.303 15.695 197.838 15.81 197.508 16.04C197.188 16.26 197.028 16.555 197.028 16.925C197.028 17.265 197.193 17.535 197.523 17.735C197.853 17.935 198.448 18.11 199.308 18.26C200.208 18.43 200.923 18.64 201.453 18.89C201.983 19.14 202.368 19.455 202.608 19.835C202.858 20.205 202.983 20.67 202.983 21.23C202.983 21.84 202.808 22.37 202.458 22.82C202.118 23.26 201.638 23.6 201.018 23.84C200.408 24.08 199.708 24.2 198.918 24.2C197.828 24.2 196.933 24.05 196.233 23.75C195.543 23.44 194.983 22.975 194.553 22.355L195.783 20.885C196.153 21.495 196.578 21.92 197.058 22.16C197.538 22.39 198.133 22.505 198.843 22.505C199.483 22.505 199.968 22.405 200.298 22.205C200.638 22.005 200.808 21.72 200.808 21.35C200.808 21.08 200.648 20.855 200.328 20.675C200.018 20.495 199.458 20.325 198.648 20.165C197.718 19.975 196.973 19.75 196.413 19.49C195.863 19.23 195.463 18.91 195.213 18.53C194.963 18.15 194.838 17.68 194.838 17.12C194.838 16.53 194.998 16 195.318 15.53C195.638 15.05 196.103 14.675 196.713 14.405C197.333 14.135 198.058 14 198.888 14Z" fill="white"/>
<path d="M208.482 24.05H206.412V14.15H208.482V24.05Z" fill="white"/>
<path d="M221.136 18.815V24.05H219.621L219.576 22.865C218.976 23.755 218.001 24.2 216.651 24.2C215.741 24.2 214.941 24 214.251 23.6C213.561 23.2 213.021 22.62 212.631 21.86C212.251 21.09 212.061 20.175 212.061 19.115C212.061 18.065 212.256 17.155 212.646 16.385C213.046 15.615 213.606 15.025 214.326 14.615C215.056 14.205 215.906 14 216.876 14C217.946 14 218.816 14.195 219.486 14.585C220.166 14.975 220.701 15.59 221.091 16.43L219.186 17.255C219.036 16.745 218.761 16.36 218.361 16.1C217.971 15.83 217.496 15.695 216.936 15.695C216.076 15.695 215.406 15.99 214.926 16.58C214.446 17.17 214.206 18.01 214.206 19.1C214.206 20.23 214.441 21.085 214.911 21.665C215.381 22.245 216.071 22.535 216.981 22.535C217.681 22.535 218.251 22.37 218.691 22.04C219.131 21.7 219.351 21.21 219.351 20.57V20.345H216.456V18.815H221.136Z" fill="white"/>
<path d="M233.401 24.05H231.031L227.566 18.23L226.711 16.565H226.696L226.756 18.32V24.05H224.896V14.15H227.251L230.716 19.955L231.571 21.635H231.601L231.541 19.88V14.15H233.401V24.05Z" fill="white"/>
<rect x="79" width="55" height="39" fill="#0D2DB5"/>
<path d="M108.68 15V24.9H106.67V17.52C106.67 17.36 106.675 17.235 106.685 17.145C106.325 17.475 105.935 17.755 105.515 17.985C105.105 18.215 104.69 18.37 104.27 18.45L104 16.71C104.46 16.66 105.01 16.455 105.65 16.095C106.3 15.725 106.75 15.36 107 15H108.68Z" fill="white"/>
<rect x="134" y="39" width="137" height="39" fill="#0D2DB5"/>
<path d="M177.46 59.15C177.46 60.49 177.1 61.5 176.38 62.18C175.67 62.86 174.62 63.2 173.23 63.2C171.84 63.2 170.785 62.86 170.065 62.18C169.355 61.5 169 60.49 169 59.15V53.15H171.07V59.06C171.07 59.89 171.245 60.505 171.595 60.905C171.955 61.305 172.5 61.505 173.23 61.505C173.96 61.505 174.5 61.305 174.85 60.905C175.2 60.505 175.375 59.89 175.375 59.06V53.15H177.46V59.15Z" fill="white"/>
<path d="M185.528 53.15C186.678 53.15 187.573 53.43 188.213 53.99C188.853 54.54 189.173 55.32 189.173 56.33C189.173 57.31 188.853 58.075 188.213 58.625C187.573 59.175 186.678 59.45 185.528 59.45H183.443V63.05H181.373V53.15H185.528ZM185.213 57.845C185.853 57.845 186.323 57.72 186.623 57.47C186.923 57.21 187.073 56.825 187.073 56.315C187.073 55.805 186.923 55.425 186.623 55.175C186.323 54.925 185.853 54.8 185.213 54.8H183.443V57.845H185.213Z" fill="white"/>
<path d="M199.86 61.385V63.05H192.57V53.15H194.64V61.385H199.86Z" fill="white"/>
<path d="M207.017 53C207.987 53 208.827 53.205 209.537 53.615C210.257 54.025 210.807 54.615 211.187 55.385C211.577 56.145 211.772 57.05 211.772 58.1C211.772 59.15 211.577 60.06 211.187 60.83C210.807 61.59 210.257 62.175 209.537 62.585C208.827 62.995 207.987 63.2 207.017 63.2C206.047 63.2 205.202 62.995 204.482 62.585C203.762 62.175 203.207 61.59 202.817 60.83C202.437 60.06 202.247 59.15 202.247 58.1C202.247 57.05 202.437 56.145 202.817 55.385C203.207 54.615 203.762 54.025 204.482 53.615C205.202 53.205 206.047 53 207.017 53ZM207.017 54.695C206.177 54.695 205.527 54.99 205.067 55.58C204.617 56.16 204.392 57 204.392 58.1C204.392 59.2 204.617 60.045 205.067 60.635C205.527 61.215 206.177 61.505 207.017 61.505C207.847 61.505 208.487 61.215 208.937 60.635C209.397 60.045 209.627 59.2 209.627 58.1C209.627 57 209.397 56.16 208.937 55.58C208.487 54.99 207.847 54.695 207.017 54.695Z" fill="white"/>
<path d="M220.619 60.635H216.809L215.999 63.05H213.884L217.499 53.15H219.974L223.589 63.05H221.444L220.619 60.635ZM220.109 59.105L219.179 56.315L218.729 54.815H218.699L218.279 56.285L217.319 59.105H220.109Z" fill="white"/>
<path d="M230.382 53.15C231.932 53.15 233.132 53.58 233.982 54.44C234.832 55.3 235.257 56.52 235.257 58.1C235.257 59.68 234.832 60.9 233.982 61.76C233.132 62.62 231.932 63.05 230.382 63.05H226.557V53.15H230.382ZM230.277 61.4C231.217 61.4 231.922 61.12 232.392 60.56C232.872 59.99 233.112 59.17 233.112 58.1C233.112 57.03 232.872 56.215 232.392 55.655C231.922 55.085 231.217 54.8 230.277 54.8H228.627V61.4H230.277Z" fill="white"/>
<rect x="79" y="39" width="55" height="39" fill="#1539CF"/>
<path d="M103.315 61.64C104.525 60.83 105.485 60.12 106.195 59.51C106.905 58.9 107.42 58.335 107.74 57.815C108.06 57.295 108.22 56.78 108.22 56.27C108.22 55.8 108.075 55.42 107.785 55.13C107.505 54.84 107.115 54.695 106.615 54.695C106.065 54.695 105.63 54.885 105.31 55.265C104.99 55.645 104.815 56.185 104.785 56.885L103 56.21C103.07 55.21 103.44 54.425 104.11 53.855C104.78 53.285 105.655 53 106.735 53C107.505 53 108.155 53.145 108.685 53.435C109.225 53.725 109.63 54.11 109.9 54.59C110.17 55.06 110.305 55.58 110.305 56.15C110.305 57.08 109.955 57.96 109.255 58.79C108.555 59.61 107.44 60.49 105.91 61.43V61.445C106.49 61.405 107.095 61.385 107.725 61.385H110.455V63.05H103.315V61.64Z" fill="white"/>
<rect x="134" y="78" width="137" height="39" fill="#1539CF"/>
<path d="M193.48 98.37L192.07 99.975V102.9H190V93H192.07V97.695L196.135 93H198.535L194.98 97.035L198.655 102.9H196.285L193.48 98.37Z" fill="white"/>
<path d="M205.836 93C206.986 93 207.881 93.28 208.521 93.84C209.161 94.39 209.481 95.17 209.481 96.18C209.481 97.16 209.161 97.925 208.521 98.475C207.881 99.025 206.986 99.3 205.836 99.3H203.751V102.9H201.681V93H205.836ZM205.521 97.695C206.161 97.695 206.631 97.57 206.931 97.32C207.231 97.06 207.381 96.675 207.381 96.165C207.381 95.655 207.231 95.275 206.931 95.025C206.631 94.775 206.161 94.65 205.521 94.65H203.751V97.695H205.521Z" fill="white"/>
<path d="M214.948 102.9H212.878V93H214.948V102.9Z" fill="white"/>
<rect x="79" y="78" width="55" height="39" fill="#0D2DB5"/>
<path d="M106.855 92C107.915 92 108.74 92.25 109.33 92.75C109.93 93.25 110.23 93.9 110.23 94.7C110.23 95.19 110.13 95.615 109.93 95.975C109.73 96.325 109.485 96.59 109.195 96.77C108.905 96.95 108.63 97.04 108.37 97.04V97.085C108.7 97.085 109.02 97.17 109.33 97.34C109.65 97.51 109.91 97.77 110.11 98.12C110.32 98.46 110.425 98.875 110.425 99.365C110.425 99.915 110.265 100.405 109.945 100.835C109.635 101.265 109.2 101.6 108.64 101.84C108.08 102.08 107.44 102.2 106.72 102.2C105.75 102.2 104.955 102.005 104.335 101.615C103.725 101.215 103.28 100.6 103 99.77L104.875 98.93C104.985 99.48 105.185 99.885 105.475 100.145C105.775 100.405 106.195 100.535 106.735 100.535C107.245 100.535 107.65 100.41 107.95 100.16C108.25 99.9 108.4 99.555 108.4 99.125C108.4 98.665 108.255 98.335 107.965 98.135C107.685 97.925 107.24 97.82 106.63 97.82H106.135V96.38H106.555C107.635 96.38 108.175 95.925 108.175 95.015C108.175 94.575 108.05 94.24 107.8 94.01C107.56 93.78 107.215 93.665 106.765 93.665C106.305 93.665 105.935 93.785 105.655 94.025C105.375 94.265 105.2 94.615 105.13 95.075L103.285 94.4C103.475 93.61 103.885 93.015 104.515 92.615C105.155 92.205 105.935 92 106.855 92Z" fill="white"/>
<rect x="134" y="117" width="137" height="39" fill="#0D2DB5"/>
<path d="M169.735 139.37H165.925L165.115 141.785H163L166.615 131.885H169.09L172.705 141.785H170.56L169.735 139.37ZM169.225 137.84L168.295 135.05L167.845 133.55H167.815L167.395 135.02L166.435 137.84H169.225Z" fill="white"/>
<path d="M176.588 142.835H174.683L179.018 131H180.938L176.588 142.835Z" fill="white"/>
<path d="M184.029 131.885H188.364C189.544 131.885 190.424 132.12 191.004 132.59C191.584 133.05 191.874 133.715 191.874 134.585C191.874 135.135 191.709 135.615 191.379 136.025C191.049 136.425 190.584 136.675 189.984 136.775V136.79C190.664 136.89 191.189 137.15 191.559 137.57C191.939 137.98 192.129 138.48 192.129 139.07C192.129 139.93 191.819 140.6 191.199 141.08C190.579 141.55 189.684 141.785 188.514 141.785H184.029V131.885ZM188.079 136.04C189.179 136.04 189.729 135.615 189.729 134.765C189.729 133.915 189.179 133.49 188.079 133.49H186.039V136.04H188.079ZM188.334 140.225C188.884 140.225 189.294 140.115 189.564 139.895C189.844 139.665 189.984 139.34 189.984 138.92C189.984 138.5 189.844 138.18 189.564 137.96C189.294 137.74 188.884 137.63 188.334 137.63H186.039V140.225H188.334Z" fill="white"/>
<path d="M209.2 133.55H205.885V141.785H203.815V133.55H200.485V131.885H209.2V133.55Z" fill="white"/>
<path d="M220.026 140.12V141.785H212.391V131.885H219.816V133.55H214.461V136.01H218.676V137.6H214.461V140.12H220.026Z" fill="white"/>
<path d="M226.998 131.735C227.918 131.735 228.708 131.89 229.368 132.2C230.028 132.5 230.608 132.98 231.108 133.64L229.683 135.035C229.423 134.495 229.078 134.095 228.648 133.835C228.218 133.565 227.673 133.43 227.013 133.43C226.413 133.43 225.948 133.545 225.618 133.775C225.298 133.995 225.138 134.29 225.138 134.66C225.138 135 225.303 135.27 225.633 135.47C225.963 135.67 226.558 135.845 227.418 135.995C228.318 136.165 229.033 136.375 229.563 136.625C230.093 136.875 230.478 137.19 230.718 137.57C230.968 137.94 231.093 138.405 231.093 138.965C231.093 139.575 230.918 140.105 230.568 140.555C230.228 140.995 229.748 141.335 229.128 141.575C228.518 141.815 227.818 141.935 227.028 141.935C225.938 141.935 225.043 141.785 224.343 141.485C223.653 141.175 223.093 140.71 222.663 140.09L223.893 138.62C224.263 139.23 224.688 139.655 225.168 139.895C225.648 140.125 226.243 140.24 226.953 140.24C227.593 140.24 228.078 140.14 228.408 139.94C228.748 139.74 228.918 139.455 228.918 139.085C228.918 138.815 228.758 138.59 228.438 138.41C228.128 138.23 227.568 138.06 226.758 137.9C225.828 137.71 225.083 137.485 224.523 137.225C223.973 136.965 223.573 136.645 223.323 136.265C223.073 135.885 222.948 135.415 222.948 134.855C222.948 134.265 223.108 133.735 223.428 133.265C223.748 132.785 224.213 132.41 224.823 132.14C225.443 131.87 226.168 131.735 226.998 131.735Z" fill="white"/>
<path d="M242.074 133.55H238.759V141.785H236.689V133.55H233.359V131.885H242.074V133.55Z" fill="white"/>
<rect x="79" y="117" width="55" height="39" fill="#1539CF"/>
<path d="M110.415 139.575H108.81V141.9H106.935V139.575H102V138.48L106.335 132H108.81V138.075H110.415V139.575ZM103.995 138.075H106.935V135.045L106.98 133.425H106.95C106.73 133.935 106.43 134.48 106.05 135.06L103.995 138.075Z" fill="white"/>
</svg>
