<svg xmlns="http://www.w3.org/2000/svg" enable-background="new 0 0 192 156" viewBox="0 0 192 156"><path fill="#1539cf" d="M53.7-1.2h139.7v40.9H53.7zM0 38.2h55.6v40.9H0zM0 116h55.6v40H0zM53.7 77.1H192v40.6H53.7z"/><path fill="#fff" d="M96.8 14.1c1.6 0 2.8.4 3.6 1.3s1.3 2.1 1.3 3.7-.4 2.8-1.3 3.7-2 1.2-3.6 1.2H93v-9.9zm-.1 8.3c.9 0 1.6-.3 2.1-.8.5-.6.7-1.4.7-2.5s-.2-1.9-.7-2.4c-.5-.6-1.2-.9-2.1-.9H95v6.6zM112.9 22.4V24h-7.6v-9.9h7.4v1.7h-5.4v2.5h4.2v1.6h-4.2v2.5zM119.9 14c.9 0 1.7.2 2.4.5s1.2.8 1.7 1.4l-1.4 1.4c-.3-.5-.6-.9-1-1.2s-1-.4-1.6-.4-1.1.1-1.4.3-.5.5-.5.9c0 .3.2.6.5.8s.9.4 1.8.5c.9.2 1.6.4 2.1.6s.9.6 1.2.9c.2.4.4.8.4 1.4s-.2 1.1-.5 1.6c-.3.4-.8.8-1.4 1s-1.3.4-2.1.4c-1.1 0-2-.1-2.7-.5-.7-.3-1.2-.8-1.7-1.4l1.2-1.5c.4.6.8 1 1.3 1.3.5.2 1.1.3 1.8.3.6 0 1.1-.1 1.5-.3.3-.2.5-.5.5-.9 0-.3-.2-.5-.5-.7s-.9-.4-1.7-.5c-.9-.2-1.7-.4-2.2-.7-.6-.3-.9-.6-1.2-1s-.4-.9-.4-1.4c0-.6.2-1.1.5-1.6s.8-.9 1.4-1.1c.4 0 1.2-.1 2-.1zM129.5 24h-2.1v-9.9h2.1zM142.1 18.8V24h-1.5v-1.2c-.6.9-1.6 1.3-2.9 1.3-.9 0-1.7-.2-2.4-.6s-1.2-1-1.6-1.7c-.4-.8-.6-1.7-.6-2.7s.2-2 .6-2.7c.4-.8 1-1.4 1.7-1.8s1.6-.6 2.6-.6c1.1 0 1.9.2 2.6.6s1.2 1 1.6 1.8l-1.9.8c-.1-.5-.4-.9-.8-1.2s-.9-.4-1.4-.4c-.9 0-1.5.3-2 .9s-.7 1.4-.7 2.5.2 2 .7 2.6 1.2.9 2.1.9c.7 0 1.3-.2 1.7-.5s.7-.8.7-1.5v-.2h-2.9v-1.5zM154.4 24H152l-3.5-5.8-.9-1.7.1 1.8V24h-1.9v-9.9h2.4l3.5 5.8.9 1.7-.1-1.8v-5.7h1.9z"/><path d="M0 0h55v39H0z"/><path fill="#fff" d="M29.7 15v9.9h-2v-7.4c0-.2 0-.3 0-.4-.4.3-.8.6-1.2.8s-.8.4-1.2.5l-.3-1.7c.5 0 1-.3 1.6-.6.6-.4 1.1-.7 1.4-1.1z"/><path d="M55 39h137v39H55z"/><g fill="#fff"><path d="M98.5 59.2c0 1.3-.4 2.3-1.1 3s-1.8 1-3.2 1-2.4-.3-3.2-1c-.7-.7-1.1-1.7-1.1-3v-6H92v5.9c0 .8.2 1.4.5 1.8.4.4.9.6 1.6.6s1.3-.2 1.6-.6.5-1 .5-1.8v-5.9h2.1v6zM106.5 53.2c1.2 0 2 .3 2.7.8.6.5 1 1.3 1 2.3s-.3 1.7-1 2.3-1.5.8-2.7.8h-2.1V63h-2.1v-9.9h4.2zm-.3 4.6c.6 0 1.1-.1 1.4-.4s.4-.6.4-1.2-.2-.9-.4-1.1-.8-.4-1.4-.4h-1.8v3h1.8zM120.9 61.4V63h-7.3v-9.9h2.1v8.2zM128 53c1 0 1.8.2 2.5.6s1.3 1 1.6 1.8c.4.8.6 1.7.6 2.7s-.2 2-.6 2.7c-.4.8-.9 1.3-1.6 1.8-.7.4-1.6.6-2.5.6s-1.8-.2-2.5-.6-1.3-1-1.7-1.8-.6-1.7-.6-2.7.2-2 .6-2.7c.4-.8.9-1.4 1.7-1.8s1.5-.6 2.5-.6zm0 1.7c-.8 0-1.5.3-1.9.9s-.7 1.4-.7 2.5.2 1.9.7 2.5 1.1.9 1.9.9 1.5-.3 1.9-.9c.5-.6.7-1.4.7-2.5s-.2-1.9-.7-2.5c-.4-.6-1.1-.9-1.9-.9zM141.6 60.6h-3.8L137 63h-2.1l3.6-9.9h2.5l3.6 9.9h-2.1zm-.5-1.5l-.9-2.8-.4-1.5-.4 1.5-1 2.8zM151.4 53.2c1.6 0 2.8.4 3.6 1.3s1.3 2.1 1.3 3.7-.4 2.8-1.3 3.7-2.1 1.3-3.6 1.3h-3.8v-9.9h3.8zm-.1 8.2c.9 0 1.6-.3 2.1-.8.5-.6.7-1.4.7-2.5s-.2-1.9-.7-2.4c-.5-.6-1.2-.9-2.1-.9h-1.6v6.6zM24.3 61.6c1.2-.8 2.2-1.5 2.9-2.1s1.2-1.2 1.5-1.7.5-1 .5-1.5-.1-.8-.4-1.1-.7-.4-1.2-.4-1 .2-1.3.6-.5.9-.5 1.6l-1.8-.8c.1-1 .4-1.8 1.1-2.4s1.5-.9 2.6-.9c.8 0 1.4.1 2 .4.5.3.9.7 1.2 1.2s.4 1 .4 1.6c0 .9-.4 1.8-1 2.6-.7.8-1.8 1.7-3.3 2.6.6 0 1.2-.1 1.8-.1h2.7V63h-7.1zM114.5 98.4l-1.4 1.6v2.9H111V93h2.1v4.7l4.1-4.7h2.4l-3.6 4 3.7 5.9h-2.4zM126.8 93c1.2 0 2 .3 2.7.8.6.6 1 1.3 1 2.3s-.3 1.7-1 2.3-1.5.8-2.7.8h-2.1v3.6h-2.1V93zm-.3 4.7c.6 0 1.1-.1 1.4-.4s.4-.6.4-1.2-.1-.9-.4-1.1-.8-.4-1.4-.4h-1.8v3zM135.9 102.9h-2.1V93h2.1z"/></g><path d="M0 78h55v39H0z"/><path fill="#fff" d="M27.9 92c1.1 0 1.9.2 2.5.8.6.5.9 1.2.9 1.9 0 .5-.1.9-.3 1.3-.2.3-.4.6-.7.8s-.7.2-.9.2c.3 0 .6.1 1 .3.3.2.6.4.8.8.2.3.3.8.3 1.2 0 .6-.2 1-.5 1.5-.3.4-.7.8-1.3 1s-1.2.4-1.9.4c-1 0-1.8-.2-2.4-.6s-1.1-1-1.3-1.8L26 99c.1.6.3 1 .6 1.2.3.3.7.4 1.3.4.5 0 .9-.1 1.2-.4s.5-.6.5-1c0-.5-.1-.8-.4-1s-.7-.3-1.3-.3h-.5v-1.4h.4c1.1 0 1.6-.5 1.6-1.4 0-.4-.1-.8-.4-1-.2-.2-.6-.3-1-.3-.5 0-.8.1-1.1.4s-.5.6-.5 1.1l-1.8-.7c.2-.8.6-1.4 1.2-1.8.4-.6 1.1-.8 2.1-.8z"/><path d="M55 117h137v39H55z"/><path fill="#fff" d="M90.7 139.4h-3.8l-.8 2.4H84l3.6-9.9h2.5l3.6 9.9h-2.1zm-.5-1.6l-.9-2.8-.4-1.5-.4 1.5-1 2.8zM97.6 142.8h-1.9L100 131h1.9zM105 131.9h4.3c1.2 0 2.1.2 2.6.7.6.5.9 1.1.9 2 0 .6-.2 1-.5 1.4s-.8.6-1.4.8c.7.1 1.2.4 1.6.8s.6.9.6 1.5c0 .9-.3 1.5-.9 2s-1.5.7-2.7.7H105zm4.1 4.1c1.1 0 1.7-.4 1.7-1.3s-.6-1.3-1.7-1.3h-2v2.6zm.2 4.2c.6 0 1-.1 1.2-.3.3-.2.4-.6.4-1s-.1-.7-.4-1c-.3-.2-.7-.3-1.2-.3H107v2.6zM130.2 133.6h-3.3v8.2h-2.1v-8.2h-3.3v-1.7h8.7zM141 140.1v1.7h-7.6v-9.9h7.4v1.7h-5.4v2.5h4.2v1.6h-4.2v2.5h5.6zM148 131.7c.9 0 1.7.2 2.4.5s1.2.8 1.7 1.4l-1.4 1.4c-.3-.5-.6-.9-1-1.2s-1-.4-1.6-.4-1.1.1-1.4.3-.5.5-.5.9c0 .3.2.6.5.8s.9.4 1.8.5c.9.2 1.6.4 2.1.6s.9.6 1.2.9c.2.4.4.8.4 1.4s-.2 1.1-.5 1.6c-.3.4-.8.8-1.4 1s-1.3.4-2.1.4c-1.1 0-2-.1-2.7-.4s-1.2-.8-1.7-1.4l1.2-1.5c.4.6.8 1 1.3 1.3.5.2 1.1.3 1.8.3.6 0 1.1-.1 1.5-.3.3-.2.5-.5.5-.9 0-.3-.2-.5-.5-.7s-.9-.4-1.7-.5c-.9-.2-1.7-.4-2.2-.7-.6-.3-.9-.6-1.2-1s-.4-.9-.4-1.4c0-.6.2-1.1.5-1.6s.8-.9 1.4-1.1c.4 0 1.2-.2 2-.2zM163.1 133.6h-3.3v8.2h-2.1v-8.2h-3.3v-1.7h8.7zM31.4 139.6h-1.6v2.3h-1.9v-2.3H23v-1.1l4.3-6.5h2.5v6.1h1.6zm-6.4-1.5h2.9v-4.6c-.2.5-.5 1.1-.9 1.6z"/></svg>