<svg width="192" height="156" viewBox="0 0 192 156" fill="none" xmlns="http://www.w3.org/2000/svg">
<rect x="55" width="137" height="39" fill="#1539CF"/>
<path d="M96.825 14.15C98.375 14.15 99.575 14.58 100.425 15.44C101.275 16.3 101.7 17.52 101.7 19.1C101.7 20.68 101.275 21.9 100.425 22.76C99.575 23.62 98.375 24.05 96.825 24.05H93V14.15H96.825ZM96.72 22.4C97.66 22.4 98.365 22.12 98.835 21.56C99.315 20.99 99.555 20.17 99.555 19.1C99.555 18.03 99.315 17.215 98.835 16.655C98.365 16.085 97.66 15.8 96.72 15.8H95.07V22.4H96.72Z" fill="white"/>
<path d="M112.916 22.385V24.05H105.281V14.15H112.706V15.815H107.351V18.275H111.566V19.865H107.351V22.385H112.916Z" fill="white"/>
<path d="M119.888 14C120.808 14 121.598 14.155 122.258 14.465C122.918 14.765 123.498 15.245 123.998 15.905L122.573 17.3C122.313 16.76 121.968 16.36 121.538 16.1C121.108 15.83 120.563 15.695 119.903 15.695C119.303 15.695 118.838 15.81 118.508 16.04C118.188 16.26 118.028 16.555 118.028 16.925C118.028 17.265 118.193 17.535 118.523 17.735C118.853 17.935 119.448 18.11 120.308 18.26C121.208 18.43 121.923 18.64 122.453 18.89C122.983 19.14 123.368 19.455 123.608 19.835C123.858 20.205 123.983 20.67 123.983 21.23C123.983 21.84 123.808 22.37 123.458 22.82C123.118 23.26 122.638 23.6 122.018 23.84C121.408 24.08 120.708 24.2 119.918 24.2C118.828 24.2 117.933 24.05 117.233 23.75C116.543 23.44 115.983 22.975 115.553 22.355L116.783 20.885C117.153 21.495 117.578 21.92 118.058 22.16C118.538 22.39 119.133 22.505 119.843 22.505C120.483 22.505 120.968 22.405 121.298 22.205C121.638 22.005 121.808 21.72 121.808 21.35C121.808 21.08 121.648 20.855 121.328 20.675C121.018 20.495 120.458 20.325 119.648 20.165C118.718 19.975 117.973 19.75 117.413 19.49C116.863 19.23 116.463 18.91 116.213 18.53C115.963 18.15 115.838 17.68 115.838 17.12C115.838 16.53 115.998 16 116.318 15.53C116.638 15.05 117.103 14.675 117.713 14.405C118.333 14.135 119.058 14 119.888 14Z" fill="white"/>
<path d="M129.482 24.05H127.412V14.15H129.482V24.05Z" fill="white"/>
<path d="M142.136 18.815V24.05H140.621L140.576 22.865C139.976 23.755 139.001 24.2 137.651 24.2C136.741 24.2 135.941 24 135.251 23.6C134.561 23.2 134.021 22.62 133.631 21.86C133.251 21.09 133.061 20.175 133.061 19.115C133.061 18.065 133.256 17.155 133.646 16.385C134.046 15.615 134.606 15.025 135.326 14.615C136.056 14.205 136.906 14 137.876 14C138.946 14 139.816 14.195 140.486 14.585C141.166 14.975 141.701 15.59 142.091 16.43L140.186 17.255C140.036 16.745 139.761 16.36 139.361 16.1C138.971 15.83 138.496 15.695 137.936 15.695C137.076 15.695 136.406 15.99 135.926 16.58C135.446 17.17 135.206 18.01 135.206 19.1C135.206 20.23 135.441 21.085 135.911 21.665C136.381 22.245 137.071 22.535 137.981 22.535C138.681 22.535 139.251 22.37 139.691 22.04C140.131 21.7 140.351 21.21 140.351 20.57V20.345H137.456V18.815H142.136Z" fill="white"/>
<path d="M154.401 24.05H152.031L148.566 18.23L147.711 16.565H147.696L147.756 18.32V24.05H145.896V14.15H148.251L151.716 19.955L152.571 21.635H152.601L152.541 19.88V14.15H154.401V24.05Z" fill="white"/>
<rect width="55" height="39" fill="#0D2DB5"/>
<path d="M29.68 15V24.9H27.67V17.52C27.67 17.36 27.675 17.235 27.685 17.145C27.325 17.475 26.935 17.755 26.515 17.985C26.105 18.215 25.69 18.37 25.27 18.45L25 16.71C25.46 16.66 26.01 16.455 26.65 16.095C27.3 15.725 27.75 15.36 28 15H29.68Z" fill="white"/>
<rect x="55" y="39" width="137" height="39" fill="#0D2DB5"/>
<path d="M98.46 59.15C98.46 60.49 98.1 61.5 97.38 62.18C96.67 62.86 95.62 63.2 94.23 63.2C92.84 63.2 91.785 62.86 91.065 62.18C90.355 61.5 90 60.49 90 59.15V53.15H92.07V59.06C92.07 59.89 92.245 60.505 92.595 60.905C92.955 61.305 93.5 61.505 94.23 61.505C94.96 61.505 95.5 61.305 95.85 60.905C96.2 60.505 96.375 59.89 96.375 59.06V53.15H98.46V59.15Z" fill="white"/>
<path d="M106.528 53.15C107.678 53.15 108.573 53.43 109.213 53.99C109.853 54.54 110.173 55.32 110.173 56.33C110.173 57.31 109.853 58.075 109.213 58.625C108.573 59.175 107.678 59.45 106.528 59.45H104.443V63.05H102.373V53.15H106.528ZM106.213 57.845C106.853 57.845 107.323 57.72 107.623 57.47C107.923 57.21 108.073 56.825 108.073 56.315C108.073 55.805 107.923 55.425 107.623 55.175C107.323 54.925 106.853 54.8 106.213 54.8H104.443V57.845H106.213Z" fill="white"/>
<path d="M120.86 61.385V63.05H113.57V53.15H115.64V61.385H120.86Z" fill="white"/>
<path d="M128.017 53C128.987 53 129.827 53.205 130.537 53.615C131.257 54.025 131.807 54.615 132.187 55.385C132.577 56.145 132.772 57.05 132.772 58.1C132.772 59.15 132.577 60.06 132.187 60.83C131.807 61.59 131.257 62.175 130.537 62.585C129.827 62.995 128.987 63.2 128.017 63.2C127.047 63.2 126.202 62.995 125.482 62.585C124.762 62.175 124.207 61.59 123.817 60.83C123.437 60.06 123.247 59.15 123.247 58.1C123.247 57.05 123.437 56.145 123.817 55.385C124.207 54.615 124.762 54.025 125.482 53.615C126.202 53.205 127.047 53 128.017 53ZM128.017 54.695C127.177 54.695 126.527 54.99 126.067 55.58C125.617 56.16 125.392 57 125.392 58.1C125.392 59.2 125.617 60.045 126.067 60.635C126.527 61.215 127.177 61.505 128.017 61.505C128.847 61.505 129.487 61.215 129.937 60.635C130.397 60.045 130.627 59.2 130.627 58.1C130.627 57 130.397 56.16 129.937 55.58C129.487 54.99 128.847 54.695 128.017 54.695Z" fill="white"/>
<path d="M141.619 60.635H137.809L136.999 63.05H134.884L138.499 53.15H140.974L144.589 63.05H142.444L141.619 60.635ZM141.109 59.105L140.179 56.315L139.729 54.815H139.699L139.279 56.285L138.319 59.105H141.109Z" fill="white"/>
<path d="M151.382 53.15C152.932 53.15 154.132 53.58 154.982 54.44C155.832 55.3 156.257 56.52 156.257 58.1C156.257 59.68 155.832 60.9 154.982 61.76C154.132 62.62 152.932 63.05 151.382 63.05H147.557V53.15H151.382ZM151.277 61.4C152.217 61.4 152.922 61.12 153.392 60.56C153.872 59.99 154.112 59.17 154.112 58.1C154.112 57.03 153.872 56.215 153.392 55.655C152.922 55.085 152.217 54.8 151.277 54.8H149.627V61.4H151.277Z" fill="white"/>
<rect y="39" width="55" height="39" fill="#1539CF"/>
<path d="M24.315 61.64C25.525 60.83 26.485 60.12 27.195 59.51C27.905 58.9 28.42 58.335 28.74 57.815C29.06 57.295 29.22 56.78 29.22 56.27C29.22 55.8 29.075 55.42 28.785 55.13C28.505 54.84 28.115 54.695 27.615 54.695C27.065 54.695 26.63 54.885 26.31 55.265C25.99 55.645 25.815 56.185 25.785 56.885L24 56.21C24.07 55.21 24.44 54.425 25.11 53.855C25.78 53.285 26.655 53 27.735 53C28.505 53 29.155 53.145 29.685 53.435C30.225 53.725 30.63 54.11 30.9 54.59C31.17 55.06 31.305 55.58 31.305 56.15C31.305 57.08 30.955 57.96 30.255 58.79C29.555 59.61 28.44 60.49 26.91 61.43V61.445C27.49 61.405 28.095 61.385 28.725 61.385H31.455V63.05H24.315V61.64Z" fill="white"/>
<rect x="55" y="78" width="137" height="39" fill="#1539CF"/>
<path d="M114.48 98.37L113.07 99.975V102.9H111V93H113.07V97.695L117.135 93H119.535L115.98 97.035L119.655 102.9H117.285L114.48 98.37Z" fill="white"/>
<path d="M126.836 93C127.986 93 128.881 93.28 129.521 93.84C130.161 94.39 130.481 95.17 130.481 96.18C130.481 97.16 130.161 97.925 129.521 98.475C128.881 99.025 127.986 99.3 126.836 99.3H124.751V102.9H122.681V93H126.836ZM126.521 97.695C127.161 97.695 127.631 97.57 127.931 97.32C128.231 97.06 128.381 96.675 128.381 96.165C128.381 95.655 128.231 95.275 127.931 95.025C127.631 94.775 127.161 94.65 126.521 94.65H124.751V97.695H126.521Z" fill="white"/>
<path d="M135.948 102.9H133.878V93H135.948V102.9Z" fill="white"/>
<rect y="78" width="55" height="39" fill="#0D2DB5"/>
<path d="M27.855 92C28.915 92 29.74 92.25 30.33 92.75C30.93 93.25 31.23 93.9 31.23 94.7C31.23 95.19 31.13 95.615 30.93 95.975C30.73 96.325 30.485 96.59 30.195 96.77C29.905 96.95 29.63 97.04 29.37 97.04V97.085C29.7 97.085 30.02 97.17 30.33 97.34C30.65 97.51 30.91 97.77 31.11 98.12C31.32 98.46 31.425 98.875 31.425 99.365C31.425 99.915 31.265 100.405 30.945 100.835C30.635 101.265 30.2 101.6 29.64 101.84C29.08 102.08 28.44 102.2 27.72 102.2C26.75 102.2 25.955 102.005 25.335 101.615C24.725 101.215 24.28 100.6 24 99.77L25.875 98.93C25.985 99.48 26.185 99.885 26.475 100.145C26.775 100.405 27.195 100.535 27.735 100.535C28.245 100.535 28.65 100.41 28.95 100.16C29.25 99.9 29.4 99.555 29.4 99.125C29.4 98.665 29.255 98.335 28.965 98.135C28.685 97.925 28.24 97.82 27.63 97.82H27.135V96.38H27.555C28.635 96.38 29.175 95.925 29.175 95.015C29.175 94.575 29.05 94.24 28.8 94.01C28.56 93.78 28.215 93.665 27.765 93.665C27.305 93.665 26.935 93.785 26.655 94.025C26.375 94.265 26.2 94.615 26.13 95.075L24.285 94.4C24.475 93.61 24.885 93.015 25.515 92.615C26.155 92.205 26.935 92 27.855 92Z" fill="white"/>
<rect x="55" y="117" width="137" height="39" fill="#0D2DB5"/>
<path d="M90.735 139.37H86.925L86.115 141.785H84L87.615 131.885H90.09L93.705 141.785H91.56L90.735 139.37ZM90.225 137.84L89.295 135.05L88.845 133.55H88.815L88.395 135.02L87.435 137.84H90.225Z" fill="white"/>
<path d="M97.5885 142.835H95.6835L100.018 131H101.938L97.5885 142.835Z" fill="white"/>
<path d="M105.029 131.885H109.364C110.544 131.885 111.424 132.12 112.004 132.59C112.584 133.05 112.874 133.715 112.874 134.585C112.874 135.135 112.709 135.615 112.379 136.025C112.049 136.425 111.584 136.675 110.984 136.775V136.79C111.664 136.89 112.189 137.15 112.559 137.57C112.939 137.98 113.129 138.48 113.129 139.07C113.129 139.93 112.819 140.6 112.199 141.08C111.579 141.55 110.684 141.785 109.514 141.785H105.029V131.885ZM109.079 136.04C110.179 136.04 110.729 135.615 110.729 134.765C110.729 133.915 110.179 133.49 109.079 133.49H107.039V136.04H109.079ZM109.334 140.225C109.884 140.225 110.294 140.115 110.564 139.895C110.844 139.665 110.984 139.34 110.984 138.92C110.984 138.5 110.844 138.18 110.564 137.96C110.294 137.74 109.884 137.63 109.334 137.63H107.039V140.225H109.334Z" fill="white"/>
<path d="M130.2 133.55H126.885V141.785H124.815V133.55H121.485V131.885H130.2V133.55Z" fill="white"/>
<path d="M141.026 140.12V141.785H133.391V131.885H140.816V133.55H135.461V136.01H139.676V137.6H135.461V140.12H141.026Z" fill="white"/>
<path d="M147.998 131.735C148.918 131.735 149.708 131.89 150.368 132.2C151.028 132.5 151.608 132.98 152.108 133.64L150.683 135.035C150.423 134.495 150.078 134.095 149.648 133.835C149.218 133.565 148.673 133.43 148.013 133.43C147.413 133.43 146.948 133.545 146.618 133.775C146.298 133.995 146.138 134.29 146.138 134.66C146.138 135 146.303 135.27 146.633 135.47C146.963 135.67 147.558 135.845 148.418 135.995C149.318 136.165 150.033 136.375 150.563 136.625C151.093 136.875 151.478 137.19 151.718 137.57C151.968 137.94 152.093 138.405 152.093 138.965C152.093 139.575 151.918 140.105 151.568 140.555C151.228 140.995 150.748 141.335 150.128 141.575C149.518 141.815 148.818 141.935 148.028 141.935C146.938 141.935 146.043 141.785 145.343 141.485C144.653 141.175 144.093 140.71 143.663 140.09L144.893 138.62C145.263 139.23 145.688 139.655 146.168 139.895C146.648 140.125 147.243 140.24 147.953 140.24C148.593 140.24 149.078 140.14 149.408 139.94C149.748 139.74 149.918 139.455 149.918 139.085C149.918 138.815 149.758 138.59 149.438 138.41C149.128 138.23 148.568 138.06 147.758 137.9C146.828 137.71 146.083 137.485 145.523 137.225C144.973 136.965 144.573 136.645 144.323 136.265C144.073 135.885 143.948 135.415 143.948 134.855C143.948 134.265 144.108 133.735 144.428 133.265C144.748 132.785 145.213 132.41 145.823 132.14C146.443 131.87 147.168 131.735 147.998 131.735Z" fill="white"/>
<path d="M163.074 133.55H159.759V141.785H157.689V133.55H154.359V131.885H163.074V133.55Z" fill="white"/>
<rect y="117" width="55" height="39" fill="#1539CF"/>
<path d="M31.415 139.575H29.81V141.9H27.935V139.575H23V138.48L27.335 132H29.81V138.075H31.415V139.575ZM24.995 138.075H27.935V135.045L27.98 133.425H27.95C27.73 133.935 27.43 134.48 27.05 135.06L24.995 138.075Z" fill="white"/>
</svg>
