<svg width="350" height="120" viewBox="0 0 350 120" fill="none" xmlns="http://www.w3.org/2000/svg">
<path fill-rule="evenodd" clip-rule="evenodd" d="M85.0007 89.1318C85.1991 39.8717 125.193 0 174.5 0C223.807 0 263.801 39.8717 263.999 89.1318H264V89.5V119.914H85V89.5V89.1318H85.0007Z" fill="#1539CF"/>
<path fill-rule="evenodd" clip-rule="evenodd" d="M174.868 28.7284C141.102 28.7284 113.728 56.1017 113.728 89.8683H101.942C101.942 49.5924 134.592 16.9424 174.868 16.9424C215.144 16.9424 247.794 49.5924 247.794 89.8683H236.008C236.008 56.1017 208.635 28.7284 174.868 28.7284Z" fill="white"/>
<path d="M167.502 83.607L174.868 96.3657L204.996 70.4658L167.502 83.607Z" fill="white"/>
<path d="M107.96 110.657C106.65 110.657 105.66 110.227 104.99 109.367C104.33 108.507 104 107.237 104 105.557C104 103.877 104.33 102.607 104.99 101.747C105.66 100.887 106.65 100.457 107.96 100.457C109.27 100.457 110.255 100.887 110.915 101.747C111.585 102.607 111.92 103.877 111.92 105.557C111.92 107.237 111.585 108.507 110.915 109.367C110.255 110.227 109.27 110.657 107.96 110.657ZM107.96 108.992C108.6 108.992 109.075 108.712 109.385 108.152C109.695 107.592 109.85 106.727 109.85 105.557C109.85 104.387 109.695 103.522 109.385 102.962C109.075 102.402 108.6 102.122 107.96 102.122C107.32 102.122 106.845 102.402 106.535 102.962C106.225 103.522 106.07 104.387 106.07 105.557C106.07 106.727 106.225 107.592 106.535 108.152C106.845 108.712 107.32 108.992 107.96 108.992Z" fill="white"/>
<path d="M232.68 100.607V110.507H230.67V103.127C230.67 102.967 230.675 102.842 230.685 102.752C230.325 103.082 229.935 103.362 229.515 103.592C229.105 103.822 228.69 103.977 228.27 104.057L228 102.317C228.46 102.267 229.01 102.062 229.65 101.702C230.3 101.332 230.75 100.967 231 100.607H232.68Z" fill="white"/>
<path d="M240.221 110.657C238.911 110.657 237.921 110.227 237.251 109.367C236.591 108.507 236.261 107.237 236.261 105.557C236.261 103.877 236.591 102.607 237.251 101.747C237.921 100.887 238.911 100.457 240.221 100.457C241.531 100.457 242.516 100.887 243.176 101.747C243.846 102.607 244.181 103.877 244.181 105.557C244.181 107.237 243.846 108.507 243.176 109.367C242.516 110.227 241.531 110.657 240.221 110.657ZM240.221 108.992C240.861 108.992 241.336 108.712 241.646 108.152C241.956 107.592 242.111 106.727 242.111 105.557C242.111 104.387 241.956 103.522 241.646 102.962C241.336 102.402 240.861 102.122 240.221 102.122C239.581 102.122 239.106 102.402 238.796 102.962C238.486 103.522 238.331 104.387 238.331 105.557C238.331 106.727 238.486 107.592 238.796 108.152C239.106 108.712 239.581 108.992 240.221 108.992Z" fill="white"/>
<path d="M251.257 110.657C249.947 110.657 248.957 110.227 248.287 109.367C247.627 108.507 247.297 107.237 247.297 105.557C247.297 103.877 247.627 102.607 248.287 101.747C248.957 100.887 249.947 100.457 251.257 100.457C252.567 100.457 253.552 100.887 254.212 101.747C254.882 102.607 255.217 103.877 255.217 105.557C255.217 107.237 254.882 108.507 254.212 109.367C253.552 110.227 252.567 110.657 251.257 110.657ZM251.257 108.992C251.897 108.992 252.372 108.712 252.682 108.152C252.992 107.592 253.147 106.727 253.147 105.557C253.147 104.387 252.992 103.522 252.682 102.962C252.372 102.402 251.897 102.122 251.257 102.122C250.617 102.122 250.142 102.402 249.832 102.962C249.522 103.522 249.367 104.387 249.367 105.557C249.367 106.727 249.522 107.592 249.832 108.152C250.142 108.712 250.617 108.992 251.257 108.992Z" fill="white"/>
</svg>
