<svg xmlns="http://www.w3.org/2000/svg" enable-background="new 0 0 179 120" viewBox="0 0 179 120"><path fill="#1539cf" fill-rule="evenodd" d="M0 89.1C.2 39.9 40.2 0 89.5 0s89.3 39.9 89.5 89.1V119.9H0V89.5z" clip-rule="evenodd"/><path fill="#fff" fill-rule="evenodd" d="M89.9 27.7c-34 0-61.6 27.3-62.1 61.1H18c.5-39.3 32.5-70.9 71.9-70.9s71.4 31.7 71.9 70.9H152c-.5-33.8-28.1-61.1-62.1-61.1z" clip-rule="evenodd"/><path d="M82.5 83.6l7.4 12.8L120 70.5z"/><g fill="#fff"><path d="M23 110.7c-1.3 0-2.3-.4-3-1.3s-1-2.1-1-3.8.3-2.9 1-3.8 1.7-1.3 3-1.3 2.3.4 3 1.3 1 2.1 1 3.8-.3 2.9-1 3.8c-.7.8-1.7 1.3-3 1.3zm0-1.7c.6 0 1.1-.3 1.4-.8s.5-1.4.5-2.6-.2-2-.5-2.6-.8-.8-1.4-.8-1.1.3-1.4.8-.5 1.4-.5 2.6.2 2 .5 2.6.7.8 1.4.8zM147.7 100.6v9.9h-2v-7.4c0-.2 0-.3 0-.4-.4.3-.8.6-1.2.8s-.8.4-1.2.5l-.3-1.7c.5-.1 1-.3 1.6-.6.6-.4 1.1-.7 1.4-1.1zM155.2 110.7c-1.3 0-2.3-.4-3-1.3s-1-2.1-1-3.8.3-2.9 1-3.8 1.7-1.3 3-1.3 2.3.4 3 1.3 1 2.1 1 3.8-.3 2.9-1 3.8c-.7.8-1.7 1.3-3 1.3zm0-1.7c.6 0 1.1-.3 1.4-.8s.5-1.4.5-2.6-.2-2-.5-2.6-.8-.8-1.4-.8-1.1.3-1.4.8-.5 1.4-.5 2.6.2 2 .5 2.6.8.8 1.4.8zM166.3 110.7c-1.3 0-2.3-.4-3-1.3s-1-2.1-1-3.8.3-2.9 1-3.8 1.7-1.3 3-1.3 2.3.4 3 1.3 1 2.1 1 3.8-.3 2.9-1 3.8c-.7.8-1.7 1.3-3 1.3zm0-1.7c.6 0 1.1-.3 1.4-.8s.5-1.4.5-2.6-.2-2-.5-2.6-.8-.8-1.4-.8-1.1.3-1.4.8-.5 1.4-.5 2.6.2 2 .5 2.6.7.8 1.4.8z"/></g></svg>