<svg width="155" height="265" viewBox="0 0 155 265" fill="none" xmlns="http://www.w3.org/2000/svg">
<path d="M61.6667 102.322L0 48H155L85.5556 102.322V196L61.6667 182.142V102.322Z" fill="white"/>
<path d="M38.7175 11H36.3025L32.6875 1.09995H34.8775L36.9625 7.39995L37.5325 9.34995L38.0875 7.41495L40.1875 1.09995H42.3175L38.7175 11Z" fill="white"/>
<path d="M47.3864 11H45.3164V1.09995H47.3864V11Z" fill="white"/>
<path d="M55.0749 0.949951C55.9949 0.949951 56.7849 1.10495 57.4449 1.41495C58.1049 1.71495 58.6849 2.19495 59.1849 2.85495L57.7599 4.24995C57.4999 3.70995 57.1549 3.30995 56.7249 3.04995C56.2949 2.77995 55.7499 2.64495 55.0899 2.64495C54.4899 2.64495 54.0249 2.75995 53.6949 2.98995C53.3749 3.20995 53.2149 3.50495 53.2149 3.87495C53.2149 4.21495 53.3799 4.48495 53.7099 4.68495C54.0399 4.88495 54.6349 5.05995 55.4949 5.20995C56.3949 5.37995 57.1099 5.58995 57.6399 5.83995C58.1699 6.08995 58.5549 6.40495 58.7949 6.78495C59.0449 7.15495 59.1699 7.61995 59.1699 8.17995C59.1699 8.78995 58.9949 9.31995 58.6449 9.76995C58.3049 10.21 57.8249 10.55 57.2049 10.79C56.5949 11.03 55.8949 11.15 55.1049 11.15C54.0149 11.15 53.1199 11 52.4199 10.7C51.7299 10.39 51.1699 9.92495 50.7399 9.30495L51.9699 7.83495C52.3399 8.44495 52.7649 8.86995 53.2449 9.10995C53.7249 9.33995 54.3199 9.45495 55.0299 9.45495C55.6699 9.45495 56.1549 9.35495 56.4849 9.15495C56.8249 8.95495 56.9949 8.66995 56.9949 8.29995C56.9949 8.02995 56.8349 7.80495 56.5149 7.62495C56.2049 7.44495 55.6449 7.27495 54.8349 7.11495C53.9049 6.92495 53.1599 6.69995 52.5999 6.43995C52.0499 6.17995 51.6499 5.85995 51.3999 5.47995C51.1499 5.09995 51.0249 4.62995 51.0249 4.06995C51.0249 3.47995 51.1849 2.94995 51.5049 2.47995C51.8249 1.99995 52.2899 1.62495 52.8999 1.35495C53.5199 1.08495 54.2449 0.949951 55.0749 0.949951Z" fill="white"/>
<path d="M64.6686 11H62.5986V1.09995H64.6686V11Z" fill="white"/>
<path d="M76.5721 2.76495H73.2571V11H71.1871V2.76495H67.8571V1.09995H76.5721V2.76495Z" fill="white"/>
<path d="M87.3986 9.33495V11H79.7636V1.09995H87.1886V2.76495H81.8336V5.22495H86.0486V6.81495H81.8336V9.33495H87.3986Z" fill="white"/>
<path d="M99.0658 7.09995C99.0658 8.43995 98.7058 9.44995 97.9858 10.13C97.2758 10.81 96.2258 11.15 94.8358 11.15C93.4458 11.15 92.3908 10.81 91.6708 10.13C90.9608 9.44995 90.6058 8.43995 90.6058 7.09995V1.09995H92.6758V7.00995C92.6758 7.83995 92.8508 8.45495 93.2008 8.85495C93.5608 9.25495 94.1058 9.45495 94.8358 9.45495C95.5658 9.45495 96.1058 9.25495 96.4558 8.85495C96.8058 8.45495 96.9808 7.83995 96.9808 7.00995V1.09995H99.0658V7.09995Z" fill="white"/>
<path d="M106.878 7.20495H105.018V11H102.978V1.09995H107.343C108.473 1.09995 109.353 1.36995 109.983 1.90995C110.623 2.43995 110.943 3.18995 110.943 4.15995C110.943 4.86995 110.768 5.46495 110.418 5.94495C110.068 6.42495 109.568 6.76995 108.918 6.97995L111.528 11H109.203L106.878 7.20495ZM105.018 5.62995H107.073C107.673 5.62995 108.113 5.51495 108.393 5.28495C108.683 5.04495 108.828 4.67995 108.828 4.18995C108.828 3.69995 108.683 3.33995 108.393 3.10995C108.113 2.86995 107.673 2.74995 107.073 2.74995H105.018V5.62995Z" fill="white"/>
<path d="M118.289 0.949951C119.209 0.949951 119.999 1.10495 120.659 1.41495C121.319 1.71495 121.899 2.19495 122.399 2.85495L120.974 4.24995C120.714 3.70995 120.369 3.30995 119.939 3.04995C119.509 2.77995 118.964 2.64495 118.304 2.64495C117.704 2.64495 117.239 2.75995 116.909 2.98995C116.589 3.20995 116.429 3.50495 116.429 3.87495C116.429 4.21495 116.594 4.48495 116.924 4.68495C117.254 4.88495 117.849 5.05995 118.709 5.20995C119.609 5.37995 120.324 5.58995 120.854 5.83995C121.384 6.08995 121.769 6.40495 122.009 6.78495C122.259 7.15495 122.384 7.61995 122.384 8.17995C122.384 8.78995 122.209 9.31995 121.859 9.76995C121.519 10.21 121.039 10.55 120.419 10.79C119.809 11.03 119.109 11.15 118.319 11.15C117.229 11.15 116.334 11 115.634 10.7C114.944 10.39 114.384 9.92495 113.954 9.30495L115.184 7.83495C115.554 8.44495 115.979 8.86995 116.459 9.10995C116.939 9.33995 117.534 9.45495 118.244 9.45495C118.884 9.45495 119.369 9.35495 119.699 9.15495C120.039 8.95495 120.209 8.66995 120.209 8.29995C120.209 8.02995 120.049 7.80495 119.729 7.62495C119.419 7.44495 118.859 7.27495 118.049 7.11495C117.119 6.92495 116.374 6.69995 115.814 6.43995C115.264 6.17995 114.864 5.85995 114.614 5.47995C114.364 5.09995 114.239 4.62995 114.239 4.06995C114.239 3.47995 114.399 2.94995 114.719 2.47995C115.039 1.99995 115.504 1.62495 116.114 1.35495C116.734 1.08495 117.459 0.949951 118.289 0.949951Z" fill="white"/>
<path d="M37.0778 243.05H34.6628L31.0478 233.15H33.2378L35.3228 239.45L35.8928 241.4L36.4478 239.465L38.5478 233.15H40.6778L37.0778 243.05Z" fill="white"/>
<path d="M45.7466 243.05H43.6766V233.15H45.7466V243.05Z" fill="white"/>
<path d="M53.4352 233C54.3552 233 55.1452 233.155 55.8052 233.465C56.4652 233.765 57.0452 234.245 57.5452 234.905L56.1202 236.3C55.8602 235.76 55.5152 235.36 55.0852 235.1C54.6552 234.83 54.1102 234.695 53.4502 234.695C52.8502 234.695 52.3852 234.81 52.0552 235.04C51.7352 235.26 51.5752 235.555 51.5752 235.925C51.5752 236.265 51.7402 236.535 52.0702 236.735C52.4002 236.935 52.9952 237.11 53.8552 237.26C54.7552 237.43 55.4702 237.64 56.0002 237.89C56.5302 238.14 56.9152 238.455 57.1552 238.835C57.4052 239.205 57.5302 239.67 57.5302 240.23C57.5302 240.84 57.3552 241.37 57.0052 241.82C56.6652 242.26 56.1852 242.6 55.5652 242.84C54.9552 243.08 54.2552 243.2 53.4652 243.2C52.3752 243.2 51.4802 243.05 50.7802 242.75C50.0902 242.44 49.5302 241.975 49.1002 241.355L50.3302 239.885C50.7002 240.495 51.1252 240.92 51.6052 241.16C52.0852 241.39 52.6802 241.505 53.3902 241.505C54.0302 241.505 54.5152 241.405 54.8452 241.205C55.1852 241.005 55.3552 240.72 55.3552 240.35C55.3552 240.08 55.1952 239.855 54.8752 239.675C54.5652 239.495 54.0052 239.325 53.1952 239.165C52.2652 238.975 51.5202 238.75 50.9602 238.49C50.4102 238.23 50.0102 237.91 49.7602 237.53C49.5102 237.15 49.3852 236.68 49.3852 236.12C49.3852 235.53 49.5452 235 49.8652 234.53C50.1852 234.05 50.6502 233.675 51.2602 233.405C51.8802 233.135 52.6052 233 53.4352 233Z" fill="white"/>
<path d="M63.0289 243.05H60.9589V233.15H63.0289V243.05Z" fill="white"/>
<path d="M74.9324 234.815H71.6174V243.05H69.5474V234.815H66.2174V233.15H74.9324V234.815Z" fill="white"/>
<path d="M85.7589 241.385V243.05H78.1239V233.15H85.5489V234.815H80.1939V237.275H84.4089V238.865H80.1939V241.385H85.7589Z" fill="white"/>
<path d="M97.4261 239.15C97.4261 240.49 97.0661 241.5 96.3461 242.18C95.6361 242.86 94.5861 243.2 93.1961 243.2C91.8061 243.2 90.7511 242.86 90.0311 242.18C89.3211 241.5 88.9661 240.49 88.9661 239.15V233.15H91.0361V239.06C91.0361 239.89 91.2111 240.505 91.5611 240.905C91.9211 241.305 92.4661 241.505 93.1961 241.505C93.9261 241.505 94.4661 241.305 94.8161 240.905C95.1661 240.505 95.3411 239.89 95.3411 239.06V233.15H97.4261V239.15Z" fill="white"/>
<path d="M105.239 239.255H103.379V243.05H101.339V233.15H105.704C106.834 233.15 107.714 233.42 108.344 233.96C108.984 234.49 109.304 235.24 109.304 236.21C109.304 236.92 109.129 237.515 108.779 237.995C108.429 238.475 107.929 238.82 107.279 239.03L109.889 243.05H107.564L105.239 239.255ZM103.379 237.68H105.434C106.034 237.68 106.474 237.565 106.754 237.335C107.044 237.095 107.189 236.73 107.189 236.24C107.189 235.75 107.044 235.39 106.754 235.16C106.474 234.92 106.034 234.8 105.434 234.8H103.379V237.68Z" fill="white"/>
<path d="M116.649 233C117.569 233 118.359 233.155 119.019 233.465C119.679 233.765 120.259 234.245 120.759 234.905L119.334 236.3C119.074 235.76 118.729 235.36 118.299 235.1C117.869 234.83 117.324 234.695 116.664 234.695C116.064 234.695 115.599 234.81 115.269 235.04C114.949 235.26 114.789 235.555 114.789 235.925C114.789 236.265 114.954 236.535 115.284 236.735C115.614 236.935 116.209 237.11 117.069 237.26C117.969 237.43 118.684 237.64 119.214 237.89C119.744 238.14 120.129 238.455 120.369 238.835C120.619 239.205 120.744 239.67 120.744 240.23C120.744 240.84 120.569 241.37 120.219 241.82C119.879 242.26 119.399 242.6 118.779 242.84C118.169 243.08 117.469 243.2 116.679 243.2C115.589 243.2 114.694 243.05 113.994 242.75C113.304 242.44 112.744 241.975 112.314 241.355L113.544 239.885C113.914 240.495 114.339 240.92 114.819 241.16C115.299 241.39 115.894 241.505 116.604 241.505C117.244 241.505 117.729 241.405 118.059 241.205C118.399 241.005 118.569 240.72 118.569 240.35C118.569 240.08 118.409 239.855 118.089 239.675C117.779 239.495 117.219 239.325 116.409 239.165C115.479 238.975 114.734 238.75 114.174 238.49C113.624 238.23 113.224 237.91 112.974 237.53C112.724 237.15 112.599 236.68 112.599 236.12C112.599 235.53 112.759 235 113.079 234.53C113.399 234.05 113.864 233.675 114.474 233.405C115.094 233.135 115.819 233 116.649 233Z" fill="white"/>
<path d="M36.97 261.32C36.68 262.27 36.165 262.99 35.425 263.48C34.685 263.96 33.8 264.2 32.77 264.2C31.8 264.2 30.955 263.995 30.235 263.585C29.515 263.175 28.96 262.59 28.57 261.83C28.19 261.06 28 260.15 28 259.1C28 258.05 28.19 257.145 28.57 256.385C28.96 255.615 29.51 255.025 30.22 254.615C30.94 254.205 31.78 254 32.74 254C33.77 254 34.64 254.215 35.35 254.645C36.07 255.075 36.565 255.715 36.835 256.565L34.96 257.36C34.8 256.77 34.55 256.345 34.21 256.085C33.87 255.825 33.41 255.695 32.83 255.695C31.99 255.695 31.33 255.99 30.85 256.58C30.38 257.17 30.145 258.01 30.145 259.1C30.145 260.19 30.375 261.03 30.835 261.62C31.295 262.21 31.945 262.505 32.785 262.505C33.995 262.505 34.755 261.92 35.065 260.75L36.97 261.32Z" fill="white"/>
<path d="M44.5093 254C45.4793 254 46.3193 254.205 47.0293 254.615C47.7493 255.025 48.2993 255.615 48.6793 256.385C49.0693 257.145 49.2643 258.05 49.2643 259.1C49.2643 260.15 49.0693 261.06 48.6793 261.83C48.2993 262.59 47.7493 263.175 47.0293 263.585C46.3193 263.995 45.4793 264.2 44.5093 264.2C43.5393 264.2 42.6943 263.995 41.9743 263.585C41.2543 263.175 40.6993 262.59 40.3093 261.83C39.9293 261.06 39.7393 260.15 39.7393 259.1C39.7393 258.05 39.9293 257.145 40.3093 256.385C40.6993 255.615 41.2543 255.025 41.9743 254.615C42.6943 254.205 43.5393 254 44.5093 254ZM44.5093 255.695C43.6693 255.695 43.0193 255.99 42.5593 256.58C42.1093 257.16 41.8843 258 41.8843 259.1C41.8843 260.2 42.1093 261.045 42.5593 261.635C43.0193 262.215 43.6693 262.505 44.5093 262.505C45.3393 262.505 45.9793 262.215 46.4293 261.635C46.8893 261.045 47.1193 260.2 47.1193 259.1C47.1193 258 46.8893 257.16 46.4293 256.58C45.9793 255.99 45.3393 255.695 44.5093 255.695Z" fill="white"/>
<path d="M61.3574 264.05H58.9874L55.5224 258.23L54.6674 256.565H54.6524L54.7124 258.32V264.05H52.8524V254.15H55.2074L58.6724 259.955L59.5274 261.635H59.5574L59.4974 259.88V254.15H61.3574V264.05Z" fill="white"/>
<path d="M70.3913 264.05H67.9763L64.3613 254.15H66.5513L68.6363 260.45L69.2063 262.4L69.7613 260.465L71.8613 254.15H73.9913L70.3913 264.05Z" fill="white"/>
<path d="M84.6251 262.385V264.05H76.9901V254.15H84.4151V255.815H79.0601V258.275H83.2751V259.865H79.0601V262.385H84.6251Z" fill="white"/>
<path d="M91.8823 260.255H90.0223V264.05H87.9823V254.15H92.3473C93.4773 254.15 94.3573 254.42 94.9873 254.96C95.6273 255.49 95.9473 256.24 95.9473 257.21C95.9473 257.92 95.7723 258.515 95.4223 258.995C95.0723 259.475 94.5723 259.82 93.9223 260.03L96.5323 264.05H94.2073L91.8823 260.255ZM90.0223 258.68H92.0773C92.6773 258.68 93.1173 258.565 93.3973 258.335C93.6873 258.095 93.8323 257.73 93.8323 257.24C93.8323 256.75 93.6873 256.39 93.3973 256.16C93.1173 255.92 92.6773 255.8 92.0773 255.8H90.0223V258.68Z" fill="white"/>
<path d="M107.332 255.815H104.017V264.05H101.947V255.815H98.6168V254.15H107.332V255.815Z" fill="white"/>
<path d="M112.593 264.05H110.523V254.15H112.593V264.05Z" fill="white"/>
<path d="M120.282 254C121.202 254 121.992 254.155 122.652 254.465C123.312 254.765 123.892 255.245 124.392 255.905L122.967 257.3C122.707 256.76 122.362 256.36 121.932 256.1C121.502 255.83 120.957 255.695 120.297 255.695C119.697 255.695 119.232 255.81 118.902 256.04C118.582 256.26 118.422 256.555 118.422 256.925C118.422 257.265 118.587 257.535 118.917 257.735C119.247 257.935 119.842 258.11 120.702 258.26C121.602 258.43 122.317 258.64 122.847 258.89C123.377 259.14 123.762 259.455 124.002 259.835C124.252 260.205 124.377 260.67 124.377 261.23C124.377 261.84 124.202 262.37 123.852 262.82C123.512 263.26 123.032 263.6 122.412 263.84C121.802 264.08 121.102 264.2 120.312 264.2C119.222 264.2 118.327 264.05 117.627 263.75C116.937 263.44 116.377 262.975 115.947 262.355L117.177 260.885C117.547 261.495 117.972 261.92 118.452 262.16C118.932 262.39 119.527 262.505 120.237 262.505C120.877 262.505 121.362 262.405 121.692 262.205C122.032 262.005 122.202 261.72 122.202 261.35C122.202 261.08 122.042 260.855 121.722 260.675C121.412 260.495 120.852 260.325 120.042 260.165C119.112 259.975 118.367 259.75 117.807 259.49C117.257 259.23 116.857 258.91 116.607 258.53C116.357 258.15 116.232 257.68 116.232 257.12C116.232 256.53 116.392 256 116.712 255.53C117.032 255.05 117.497 254.675 118.107 254.405C118.727 254.135 119.452 254 120.282 254Z" fill="white"/>
<path fill-rule="evenodd" clip-rule="evenodd" d="M59.5 33.5858V21H61.5V33.4784L67.7718 26.8146L69.2282 28.1854L60.5218 37.436L51.2929 28.2071L52.7071 26.7929L59.5 33.5858Z" fill="white"/>
<path fill-rule="evenodd" clip-rule="evenodd" d="M93.5 33.5858V21H95.5V33.4784L101.772 26.8146L103.228 28.1854L94.5218 37.436L85.2929 28.2071L86.7071 26.7929L93.5 33.5858Z" fill="white"/>
<path fill-rule="evenodd" clip-rule="evenodd" d="M72.5 218.586V206H74.5V218.478L80.7718 211.815L82.2282 213.185L73.5218 222.436L64.2929 213.207L65.7071 211.793L72.5 218.586Z" fill="white"/>
</svg>
