<svg width="350" height="264" viewBox="0 0 350 264" fill="none" xmlns="http://www.w3.org/2000/svg">
<path d="M158.667 101.372L97 47.05H252L182.556 101.372V195.05L158.667 181.192V101.372Z" fill="white"/>
<path d="M135.718 10.05H133.303L129.688 0.15H131.878L133.963 6.45L134.533 8.4L135.088 6.465L137.188 0.15H139.318L135.718 10.05Z" fill="white"/>
<path d="M144.386 10.05H142.316V0.15H144.386V10.05Z" fill="white"/>
<path d="M152.075 0C152.995 0 153.785 0.155 154.445 0.464999C155.105 0.765 155.685 1.245 156.185 1.905L154.76 3.3C154.5 2.76 154.155 2.36 153.725 2.1C153.295 1.83 152.75 1.695 152.09 1.695C151.49 1.695 151.025 1.81 150.695 2.04C150.375 2.26 150.215 2.555 150.215 2.925C150.215 3.265 150.38 3.535 150.71 3.735C151.04 3.935 151.635 4.11 152.495 4.26C153.395 4.43 154.11 4.64 154.64 4.89C155.17 5.14 155.555 5.455 155.795 5.835C156.045 6.205 156.17 6.67 156.17 7.23C156.17 7.84 155.995 8.37 155.645 8.82C155.305 9.26 154.825 9.6 154.205 9.84C153.595 10.08 152.895 10.2 152.105 10.2C151.015 10.2 150.12 10.05 149.42 9.75C148.73 9.44 148.17 8.975 147.74 8.355L148.97 6.885C149.34 7.495 149.765 7.92 150.245 8.16C150.725 8.39 151.32 8.505 152.03 8.505C152.67 8.505 153.155 8.405 153.485 8.205C153.825 8.005 153.995 7.72 153.995 7.35C153.995 7.08 153.835 6.855 153.515 6.675C153.205 6.495 152.645 6.325 151.835 6.165C150.905 5.975 150.16 5.75 149.6 5.49C149.05 5.23 148.65 4.91 148.4 4.53C148.15 4.15 148.025 3.68 148.025 3.12C148.025 2.53 148.185 2 148.505 1.53C148.825 1.05 149.29 0.675 149.9 0.405C150.52 0.135 151.245 0 152.075 0Z" fill="white"/>
<path d="M161.669 10.05H159.599V0.15H161.669V10.05Z" fill="white"/>
<path d="M173.572 1.815H170.257V10.05H168.187V1.815H164.857V0.15H173.572V1.815Z" fill="white"/>
<path d="M184.399 8.385V10.05H176.764V0.15H184.189V1.815H178.834V4.275H183.049V5.865H178.834V8.385H184.399Z" fill="white"/>
<path d="M196.066 6.15C196.066 7.49 195.706 8.5 194.986 9.18C194.276 9.86 193.226 10.2 191.836 10.2C190.446 10.2 189.391 9.86 188.671 9.18C187.961 8.5 187.606 7.49 187.606 6.15V0.15H189.676V6.06C189.676 6.89 189.851 7.505 190.201 7.905C190.561 8.305 191.106 8.505 191.836 8.505C192.566 8.505 193.106 8.305 193.456 7.905C193.806 7.505 193.981 6.89 193.981 6.06V0.15H196.066V6.15Z" fill="white"/>
<path d="M203.878 6.255H202.018V10.05H199.978V0.15H204.343C205.473 0.15 206.353 0.42 206.983 0.96C207.623 1.49 207.943 2.24 207.943 3.21C207.943 3.92 207.768 4.515 207.418 4.995C207.068 5.475 206.568 5.82 205.918 6.03L208.528 10.05H206.203L203.878 6.255ZM202.018 4.68H204.073C204.673 4.68 205.113 4.565 205.393 4.335C205.683 4.095 205.828 3.73 205.828 3.24C205.828 2.75 205.683 2.39 205.393 2.16C205.113 1.92 204.673 1.8 204.073 1.8H202.018V4.68Z" fill="white"/>
<path d="M215.289 0C216.209 0 216.999 0.155 217.659 0.464999C218.319 0.765 218.899 1.245 219.399 1.905L217.974 3.3C217.714 2.76 217.369 2.36 216.939 2.1C216.509 1.83 215.964 1.695 215.304 1.695C214.704 1.695 214.239 1.81 213.909 2.04C213.589 2.26 213.429 2.555 213.429 2.925C213.429 3.265 213.594 3.535 213.924 3.735C214.254 3.935 214.849 4.11 215.709 4.26C216.609 4.43 217.324 4.64 217.854 4.89C218.384 5.14 218.769 5.455 219.009 5.835C219.259 6.205 219.384 6.67 219.384 7.23C219.384 7.84 219.209 8.37 218.859 8.82C218.519 9.26 218.039 9.6 217.419 9.84C216.809 10.08 216.109 10.2 215.319 10.2C214.229 10.2 213.334 10.05 212.634 9.75C211.944 9.44 211.384 8.975 210.954 8.355L212.184 6.885C212.554 7.495 212.979 7.92 213.459 8.16C213.939 8.39 214.534 8.505 215.244 8.505C215.884 8.505 216.369 8.405 216.699 8.205C217.039 8.005 217.209 7.72 217.209 7.35C217.209 7.08 217.049 6.855 216.729 6.675C216.419 6.495 215.859 6.325 215.049 6.165C214.119 5.975 213.374 5.75 212.814 5.49C212.264 5.23 211.864 4.91 211.614 4.53C211.364 4.15 211.239 3.68 211.239 3.12C211.239 2.53 211.399 2 211.719 1.53C212.039 1.05 212.504 0.675 213.114 0.405C213.734 0.135 214.459 0 215.289 0Z" fill="white"/>
<path d="M134.078 242.1H131.663L128.048 232.2H130.238L132.323 238.5L132.893 240.45L133.448 238.515L135.548 232.2H137.678L134.078 242.1Z" fill="white"/>
<path d="M142.747 242.1H140.677V232.2H142.747V242.1Z" fill="white"/>
<path d="M150.435 232.05C151.355 232.05 152.145 232.205 152.805 232.515C153.465 232.815 154.045 233.295 154.545 233.955L153.12 235.35C152.86 234.81 152.515 234.41 152.085 234.15C151.655 233.88 151.11 233.745 150.45 233.745C149.85 233.745 149.385 233.86 149.055 234.09C148.735 234.31 148.575 234.605 148.575 234.975C148.575 235.315 148.74 235.585 149.07 235.785C149.4 235.985 149.995 236.16 150.855 236.31C151.755 236.48 152.47 236.69 153 236.94C153.53 237.19 153.915 237.505 154.155 237.885C154.405 238.255 154.53 238.72 154.53 239.28C154.53 239.89 154.355 240.42 154.005 240.87C153.665 241.31 153.185 241.65 152.565 241.89C151.955 242.13 151.255 242.25 150.465 242.25C149.375 242.25 148.48 242.1 147.78 241.8C147.09 241.49 146.53 241.025 146.1 240.405L147.33 238.935C147.7 239.545 148.125 239.97 148.605 240.21C149.085 240.44 149.68 240.555 150.39 240.555C151.03 240.555 151.515 240.455 151.845 240.255C152.185 240.055 152.355 239.77 152.355 239.4C152.355 239.13 152.195 238.905 151.875 238.725C151.565 238.545 151.005 238.375 150.195 238.215C149.265 238.025 148.52 237.8 147.96 237.54C147.41 237.28 147.01 236.96 146.76 236.58C146.51 236.2 146.385 235.73 146.385 235.17C146.385 234.58 146.545 234.05 146.865 233.58C147.185 233.1 147.65 232.725 148.26 232.455C148.88 232.185 149.605 232.05 150.435 232.05Z" fill="white"/>
<path d="M160.029 242.1H157.959V232.2H160.029V242.1Z" fill="white"/>
<path d="M171.932 233.865H168.617V242.1H166.547V233.865H163.217V232.2H171.932V233.865Z" fill="white"/>
<path d="M182.759 240.435V242.1H175.124V232.2H182.549V233.865H177.194V236.325H181.409V237.915H177.194V240.435H182.759Z" fill="white"/>
<path d="M194.426 238.2C194.426 239.54 194.066 240.55 193.346 241.23C192.636 241.91 191.586 242.25 190.196 242.25C188.806 242.25 187.751 241.91 187.031 241.23C186.321 240.55 185.966 239.54 185.966 238.2V232.2H188.036V238.11C188.036 238.94 188.211 239.555 188.561 239.955C188.921 240.355 189.466 240.555 190.196 240.555C190.926 240.555 191.466 240.355 191.816 239.955C192.166 239.555 192.341 238.94 192.341 238.11V232.2H194.426V238.2Z" fill="white"/>
<path d="M202.239 238.305H200.379V242.1H198.339V232.2H202.704C203.834 232.2 204.714 232.47 205.344 233.01C205.984 233.54 206.304 234.29 206.304 235.26C206.304 235.97 206.129 236.565 205.779 237.045C205.429 237.525 204.929 237.87 204.279 238.08L206.889 242.1H204.564L202.239 238.305ZM200.379 236.73H202.434C203.034 236.73 203.474 236.615 203.754 236.385C204.044 236.145 204.189 235.78 204.189 235.29C204.189 234.8 204.044 234.44 203.754 234.21C203.474 233.97 203.034 233.85 202.434 233.85H200.379V236.73Z" fill="white"/>
<path d="M213.649 232.05C214.569 232.05 215.359 232.205 216.019 232.515C216.679 232.815 217.259 233.295 217.759 233.955L216.334 235.35C216.074 234.81 215.729 234.41 215.299 234.15C214.869 233.88 214.324 233.745 213.664 233.745C213.064 233.745 212.599 233.86 212.269 234.09C211.949 234.31 211.789 234.605 211.789 234.975C211.789 235.315 211.954 235.585 212.284 235.785C212.614 235.985 213.209 236.16 214.069 236.31C214.969 236.48 215.684 236.69 216.214 236.94C216.744 237.19 217.129 237.505 217.369 237.885C217.619 238.255 217.744 238.72 217.744 239.28C217.744 239.89 217.569 240.42 217.219 240.87C216.879 241.31 216.399 241.65 215.779 241.89C215.169 242.13 214.469 242.25 213.679 242.25C212.589 242.25 211.694 242.1 210.994 241.8C210.304 241.49 209.744 241.025 209.314 240.405L210.544 238.935C210.914 239.545 211.339 239.97 211.819 240.21C212.299 240.44 212.894 240.555 213.604 240.555C214.244 240.555 214.729 240.455 215.059 240.255C215.399 240.055 215.569 239.77 215.569 239.4C215.569 239.13 215.409 238.905 215.089 238.725C214.779 238.545 214.219 238.375 213.409 238.215C212.479 238.025 211.734 237.8 211.174 237.54C210.624 237.28 210.224 236.96 209.974 236.58C209.724 236.2 209.599 235.73 209.599 235.17C209.599 234.58 209.759 234.05 210.079 233.58C210.399 233.1 210.864 232.725 211.474 232.455C212.094 232.185 212.819 232.05 213.649 232.05Z" fill="white"/>
<path d="M133.97 260.37C133.68 261.32 133.165 262.04 132.425 262.53C131.685 263.01 130.8 263.25 129.77 263.25C128.8 263.25 127.955 263.045 127.235 262.635C126.515 262.225 125.96 261.64 125.57 260.88C125.19 260.11 125 259.2 125 258.15C125 257.1 125.19 256.195 125.57 255.435C125.96 254.665 126.51 254.075 127.22 253.665C127.94 253.255 128.78 253.05 129.74 253.05C130.77 253.05 131.64 253.265 132.35 253.695C133.07 254.125 133.565 254.765 133.835 255.615L131.96 256.41C131.8 255.82 131.55 255.395 131.21 255.135C130.87 254.875 130.41 254.745 129.83 254.745C128.99 254.745 128.33 255.04 127.85 255.63C127.38 256.22 127.145 257.06 127.145 258.15C127.145 259.24 127.375 260.08 127.835 260.67C128.295 261.26 128.945 261.555 129.785 261.555C130.995 261.555 131.755 260.97 132.065 259.8L133.97 260.37Z" fill="white"/>
<path d="M141.509 253.05C142.479 253.05 143.319 253.255 144.029 253.665C144.749 254.075 145.299 254.665 145.679 255.435C146.069 256.195 146.264 257.1 146.264 258.15C146.264 259.2 146.069 260.11 145.679 260.88C145.299 261.64 144.749 262.225 144.029 262.635C143.319 263.045 142.479 263.25 141.509 263.25C140.539 263.25 139.694 263.045 138.974 262.635C138.254 262.225 137.699 261.64 137.309 260.88C136.929 260.11 136.739 259.2 136.739 258.15C136.739 257.1 136.929 256.195 137.309 255.435C137.699 254.665 138.254 254.075 138.974 253.665C139.694 253.255 140.539 253.05 141.509 253.05ZM141.509 254.745C140.669 254.745 140.019 255.04 139.559 255.63C139.109 256.21 138.884 257.05 138.884 258.15C138.884 259.25 139.109 260.095 139.559 260.685C140.019 261.265 140.669 261.555 141.509 261.555C142.339 261.555 142.979 261.265 143.429 260.685C143.889 260.095 144.119 259.25 144.119 258.15C144.119 257.05 143.889 256.21 143.429 255.63C142.979 255.04 142.339 254.745 141.509 254.745Z" fill="white"/>
<path d="M158.357 263.1H155.987L152.522 257.28L151.667 255.615H151.652L151.712 257.37V263.1H149.852V253.2H152.207L155.672 259.005L156.527 260.685H156.557L156.497 258.93V253.2H158.357V263.1Z" fill="white"/>
<path d="M167.391 263.1H164.976L161.361 253.2H163.551L165.636 259.5L166.206 261.45L166.761 259.515L168.861 253.2H170.991L167.391 263.1Z" fill="white"/>
<path d="M181.625 261.435V263.1H173.99V253.2H181.415V254.865H176.06V257.325H180.275V258.915H176.06V261.435H181.625Z" fill="white"/>
<path d="M188.882 259.305H187.022V263.1H184.982V253.2H189.347C190.477 253.2 191.357 253.47 191.987 254.01C192.627 254.54 192.947 255.29 192.947 256.26C192.947 256.97 192.772 257.565 192.422 258.045C192.072 258.525 191.572 258.87 190.922 259.08L193.532 263.1H191.207L188.882 259.305ZM187.022 257.73H189.077C189.677 257.73 190.117 257.615 190.397 257.385C190.687 257.145 190.832 256.78 190.832 256.29C190.832 255.8 190.687 255.44 190.397 255.21C190.117 254.97 189.677 254.85 189.077 254.85H187.022V257.73Z" fill="white"/>
<path d="M204.332 254.865H201.017V263.1H198.947V254.865H195.617V253.2H204.332V254.865Z" fill="white"/>
<path d="M209.593 263.1H207.523V253.2H209.593V263.1Z" fill="white"/>
<path d="M217.282 253.05C218.202 253.05 218.992 253.205 219.652 253.515C220.312 253.815 220.892 254.295 221.392 254.955L219.967 256.35C219.707 255.81 219.362 255.41 218.932 255.15C218.502 254.88 217.957 254.745 217.297 254.745C216.697 254.745 216.232 254.86 215.902 255.09C215.582 255.31 215.422 255.605 215.422 255.975C215.422 256.315 215.587 256.585 215.917 256.785C216.247 256.985 216.842 257.16 217.702 257.31C218.602 257.48 219.317 257.69 219.847 257.94C220.377 258.19 220.762 258.505 221.002 258.885C221.252 259.255 221.377 259.72 221.377 260.28C221.377 260.89 221.202 261.42 220.852 261.87C220.512 262.31 220.032 262.65 219.412 262.89C218.802 263.13 218.102 263.25 217.312 263.25C216.222 263.25 215.327 263.1 214.627 262.8C213.937 262.49 213.377 262.025 212.947 261.405L214.177 259.935C214.547 260.545 214.972 260.97 215.452 261.21C215.932 261.44 216.527 261.555 217.237 261.555C217.877 261.555 218.362 261.455 218.692 261.255C219.032 261.055 219.202 260.77 219.202 260.4C219.202 260.13 219.042 259.905 218.722 259.725C218.412 259.545 217.852 259.375 217.042 259.215C216.112 259.025 215.367 258.8 214.807 258.54C214.257 258.28 213.857 257.96 213.607 257.58C213.357 257.2 213.232 256.73 213.232 256.17C213.232 255.58 213.392 255.05 213.712 254.58C214.032 254.1 214.497 253.725 215.107 253.455C215.727 253.185 216.452 253.05 217.282 253.05Z" fill="white"/>
<path fill-rule="evenodd" clip-rule="evenodd" d="M156.5 32.6358V20.05H158.5V32.5285L164.772 25.8647L166.228 27.2354L157.522 36.486L148.293 27.2572L149.707 25.8429L156.5 32.6358Z" fill="white"/>
<path fill-rule="evenodd" clip-rule="evenodd" d="M190.5 32.6358V20.05H192.5V32.5285L198.772 25.8647L200.228 27.2354L191.522 36.486L182.293 27.2572L183.707 25.8429L190.5 32.6358Z" fill="white"/>
<path fill-rule="evenodd" clip-rule="evenodd" d="M169.5 217.636V205.05H171.5V217.528L177.772 210.865L179.228 212.235L170.522 221.486L161.293 212.257L162.707 210.843L169.5 217.636Z" fill="white"/>
</svg>
