<svg xmlns="http://www.w3.org/2000/svg" enable-background="new 0 0 155 264" viewBox="0 0 155 264"><path fill="#fff" d="M61.7 101.4L0 47.1h155l-69.4 54.3v93.7l-23.9-13.9z"/><g fill="#1539cf"><path d="M38.7 10.1h-2.4L32.7.2h2.2L37 6.5l.6 1.9.6-1.9L40.3.2h2.1zM47.4 10.1h-2.1V.2h2.1zM55.1 0c.9 0 1.7.2 2.4.5s1.2.8 1.7 1.4l-1.4 1.4c-.3-.5-.6-.9-1-1.2s-1-.4-1.6-.4-1.1.1-1.4.3-.5.5-.5.9c0 .3.2.6.5.8s.9.4 1.8.5c.9.2 1.6.4 2.1.6s.9.6 1.2.9c.2.4.4.8.4 1.4s-.2 1.1-.5 1.6c-.3.4-.8.8-1.4 1s-1.3.4-2.1.4c-1.1 0-2-.1-2.7-.4s-1.2-.8-1.7-1.4L52 6.9c.4.6.8 1 1.3 1.3.5.2 1.1.3 1.8.3.6 0 1.1-.1 1.5-.3.2-.2.4-.5.4-.9 0-.3-.2-.5-.5-.7s-.9-.3-1.7-.5c-.9-.2-1.7-.4-2.2-.7s-1-.6-1.2-1-.4-.7-.4-1.3.2-1.1.5-1.6.8-.9 1.4-1.1c.6-.3 1.3-.4 2.2-.4zM64.7 10.1h-2.1V.2h2.1zM76.6 1.8h-3.3V10h-2.1V1.8h-3.3V.1h8.7zM87.4 8.4v1.7h-7.6V.2h7.4v1.7h-5.4v2.5H86V6h-4.2v2.5h5.6zM99.1 6.2c0 1.3-.4 2.3-1.1 3s-1.8 1-3.2 1-2.4-.3-3.2-1c-.7-.7-1.1-1.7-1.1-3v-6h2.1v5.9c0 .8.2 1.4.5 1.8.4.4.9.6 1.6.6s1.3-.2 1.6-.6.5-1 .5-1.8V.2h2.1v6zM106.9 6.3H105v3.8h-2V.2h4.4c1.1 0 2 .3 2.6.8s1 1.3 1 2.2c0 .7-.2 1.3-.5 1.8s-.8.8-1.5 1l2.6 4h-2.3zM105 4.7h2.1c.6 0 1-.1 1.3-.3s.4-.6.4-1.1-.1-.9-.4-1.1-.7-.4-1.3-.4H105zM118.3 0c.9 0 1.7.2 2.4.5s1.2.8 1.7 1.4L121 3.3c-.3-.5-.6-.9-1-1.2s-1-.4-1.6-.4-1.1.1-1.4.3-.5.5-.5.9c0 .3.2.6.5.8s.9.4 1.8.5c.9.2 1.6.4 2.1.6s.9.6 1.2.9c.2.4.4.8.4 1.4s-.2 1.1-.5 1.6c-.3.4-.8.8-1.4 1s-1.3.4-2.1.4c-1.1 0-2-.1-2.7-.4s-1.2-.8-1.7-1.4l1.2-1.5c.4.6.8 1 1.3 1.3.5.2 1.1.3 1.8.3.6 0 1.1-.1 1.5-.3.3-.2.5-.5.5-.9 0-.3-.2-.5-.5-.7s-.9-.3-1.7-.5c-.9-.2-1.7-.4-2.2-.7-.6-.3-.9-.6-1.2-1s-.4-.8-.4-1.4.2-1.1.5-1.6.8-.9 1.4-1.1c.4-.1 1.2-.2 2-.2zM37.1 242.1h-2.4l-3.6-9.9h2.2l2.1 6.3.6 1.9.6-1.9 2.1-6.3h2.1zM45.7 242.1h-2.1v-9.9h2.1zM53.4 232.1c.9 0 1.7.2 2.4.5s1.2.8 1.7 1.4l-1.4 1.4c-.3-.5-.6-.9-1-1.2s-1-.4-1.6-.4-1.1.1-1.4.3-.5.5-.5.9c0 .3.2.6.5.8s.9.4 1.8.5c.9.2 1.6.4 2.1.6s.9.6 1.2.9c.2.4.4.8.4 1.4s-.2 1.1-.5 1.6c-.3.4-.8.8-1.4 1s-1.3.4-2.1.4c-1.1 0-2-.1-2.7-.4s-1.2-.8-1.7-1.4l1.2-1.5c.4.6.8 1 1.3 1.3.5.2 1.1.3 1.8.3.6 0 1.1-.1 1.5-.3.3-.2.5-.5.5-.9 0-.3-.2-.5-.5-.7s-.9-.4-1.7-.5c-.9-.2-1.7-.4-2.2-.7s-1-.6-1.2-1-.4-.9-.4-1.4c0-.6.2-1.1.5-1.6s.8-.9 1.4-1.1c.5-.1 1.2-.2 2-.2zM63 242.1h-2v-9.9h2zM74.9 233.9h-3.3v8.2h-2.1v-8.2h-3.3v-1.7h8.7zM85.8 240.4v1.7h-7.6v-9.9h7.4v1.7h-5.4v2.5h4.2v1.6h-4.2v2.5h5.6zM97.4 238.2c0 1.3-.4 2.4-1.1 3-.7.7-1.8 1-3.2 1s-2.4-.3-3.2-1c-.7-.7-1.1-1.7-1.1-3v-6H91v5.9c0 .8.2 1.4.5 1.8.4.4.9.6 1.6.6s1.3-.2 1.6-.6.5-1 .5-1.8v-5.9h2.1v6zM105.2 238.3h-1.9v3.8h-2v-9.9h4.4c1.1 0 2 .3 2.6.8s1 1.3 1 2.2c0 .7-.2 1.3-.5 1.8s-.8.8-1.5 1l2.6 4h-2.3zm-1.8-1.6h2.1c.6 0 1-.1 1.3-.3s.4-.6.4-1.1-.1-.9-.4-1.1-.7-.4-1.3-.4h-2.1zM116.6 232.1c.9 0 1.7.2 2.4.5s1.2.8 1.7 1.4l-1.4 1.4c-.3-.5-.6-.9-1-1.2s-1-.4-1.6-.4-1.1.1-1.4.3-.5.5-.5.9c0 .3.2.6.5.8s.9.4 1.8.5c.9.2 1.6.4 2.1.6s.9.6 1.2.9c.2.4.4.8.4 1.4s-.2 1.1-.5 1.6c-.3.4-.8.8-1.4 1s-1.3.4-2.1.4c-1.1 0-2-.1-2.7-.4s-1.2-.8-1.7-1.4l1.2-1.5c.4.6.8 1 1.3 1.3.5.2 1.1.3 1.8.3.6 0 1.1-.1 1.5-.3.3-.2.5-.5.5-.9 0-.3-.2-.5-.5-.7s-.9-.4-1.7-.5c-.9-.2-1.7-.4-2.2-.7-.6-.3-.9-.6-1.2-1s-.4-.9-.4-1.4c0-.6.2-1.1.5-1.6s.8-.9 1.4-1.1c.5-.1 1.2-.2 2-.2zM37 260.4c-.3 1-.8 1.7-1.5 2.2s-1.6.7-2.7.7c-1 0-1.8-.2-2.5-.6s-1.3-1-1.7-1.8-.6-1.7-.6-2.7.2-2 .6-2.7c.4-.8.9-1.4 1.6-1.8s1.6-.6 2.5-.6c1 0 1.9.2 2.6.6s1.2 1.1 1.5 1.9l-1.9.8c-.2-.6-.4-1-.8-1.3s-.8-.4-1.4-.4c-.8 0-1.5.3-2 .9s-.7 1.4-.7 2.5.2 1.9.7 2.5 1.1.9 2 .9c1.2 0 2-.6 2.3-1.8zM44.5 253.1c1 0 1.8.2 2.5.6s1.3 1 1.7 1.8.6 1.7.6 2.7-.2 2-.6 2.7c-.4.8-.9 1.3-1.7 1.8-.7.4-1.5.6-2.5.6s-1.8-.2-2.5-.6-1.3-1-1.7-1.8-.6-1.7-.6-2.7.2-2 .6-2.7c.4-.8.9-1.4 1.7-1.8s1.5-.6 2.5-.6zm0 1.6c-.8 0-1.5.3-2 .9s-.7 1.4-.7 2.5.2 1.9.7 2.5 1.1.9 2 .9c.8 0 1.5-.3 1.9-.9.5-.6.7-1.4.7-2.5s-.2-1.9-.7-2.5c-.4-.6-1.1-.9-1.9-.9zM61.4 263.1H59l-3.5-5.8-.9-1.7.1 1.8v5.7h-1.9v-9.9h2.4l3.5 5.8.9 1.7-.1-1.8v-5.7h1.9zM70.4 263.1H68l-3.6-9.9h2.2l2.1 6.3.6 2 .6-1.9 2.1-6.3h2zM84.6 261.4v1.7H77v-9.9h7.4v1.7H79v2.5h4.2v1.6H79v2.5h5.6zM91.9 259.3H90v3.8h-2v-9.9h4.4c1.1 0 2 .3 2.6.8s1 1.3 1 2.2c0 .7-.2 1.3-.5 1.8s-.8.8-1.5 1l2.6 4h-2.3zm-1.9-1.6h2.1c.6 0 1-.1 1.3-.3s.4-.6.4-1.1-.1-.9-.4-1.1-.7-.4-1.3-.4H90zM107.3 254.9H104v8.2h-2.1v-8.2h-3.3v-1.7h8.7zM112.6 263.1h-2.1v-9.9h2.1zM120.3 253.1c.9 0 1.7.2 2.4.5s1.2.8 1.7 1.4l-1.4 1.4c-.3-.5-.6-.9-1-1.2s-1-.4-1.6-.4-1.1.1-1.4.3-.5.5-.5.9c0 .3.2.6.5.8s.9.4 1.8.5c.9.2 1.6.4 2.1.6s.9.6 1.2.9c.2.4.4.8.4 1.4s-.2 1.1-.5 1.6c-.3.4-.8.8-1.4 1s-1.3.4-2.1.4c-1.1 0-2-.1-2.7-.5-.7-.3-1.2-.8-1.7-1.4l1.2-1.5c.4.6.8 1 1.3 1.3.5.2 1.1.3 1.8.3.6 0 1.1-.1 1.5-.3.3-.2.5-.5.5-.9 0-.3-.2-.5-.5-.7s-.9-.4-1.7-.5c-.9-.2-1.7-.4-2.2-.7-.6-.3-.9-.6-1.2-1s-.4-.9-.4-1.4c0-.6.2-1.1.5-1.6s.8-.9 1.4-1.1c.4 0 1.2-.2 2-.1z"/><path fill-rule="evenodd" d="M59.5 32.6V20h2v12.5l6.3-6.7 1.5 1.4-8.7 9.3-9.2-9.2 1.4-1.4zM93.5 32.6V20h2v12.5l6.3-6.7 1.5 1.4-8.7 9.3-9.2-9.2 1.4-1.4zM72.5 217.6V205h2v12.5l6.3-6.7 1.5 1.4-8.7 9.3-9.2-9.2 1.4-1.4z" clip-rule="evenodd"/></g></svg>