<svg width="155" height="264" viewBox="0 0 155 264" fill="none" xmlns="http://www.w3.org/2000/svg">
<path d="M61.6667 101.372L0 47.05H155L85.5556 101.372V195.05L61.6667 181.192V101.372Z" fill="white"/>
<path d="M38.7175 10.05H36.3025L32.6875 0.15H34.8775L36.9625 6.45L37.5325 8.4L38.0875 6.465L40.1875 0.15H42.3175L38.7175 10.05Z" fill="white"/>
<path d="M47.3864 10.05H45.3164V0.15H47.3864V10.05Z" fill="white"/>
<path d="M55.0749 0C55.9949 0 56.7849 0.155 57.4449 0.464999C58.1049 0.765 58.6849 1.245 59.1849 1.905L57.7599 3.3C57.4999 2.76 57.1549 2.36 56.7249 2.1C56.2949 1.83 55.7499 1.695 55.0899 1.695C54.4899 1.695 54.0249 1.81 53.6949 2.04C53.3749 2.26 53.2149 2.555 53.2149 2.925C53.2149 3.265 53.3799 3.535 53.7099 3.735C54.0399 3.935 54.6349 4.11 55.4949 4.26C56.3949 4.43 57.1099 4.64 57.6399 4.89C58.1699 5.14 58.5549 5.455 58.7949 5.835C59.0449 6.205 59.1699 6.67 59.1699 7.23C59.1699 7.84 58.9949 8.37 58.6449 8.82C58.3049 9.26 57.8249 9.6 57.2049 9.84C56.5949 10.08 55.8949 10.2 55.1049 10.2C54.0149 10.2 53.1199 10.05 52.4199 9.75C51.7299 9.44 51.1699 8.975 50.7399 8.355L51.9699 6.885C52.3399 7.495 52.7649 7.92 53.2449 8.16C53.7249 8.39 54.3199 8.505 55.0299 8.505C55.6699 8.505 56.1549 8.405 56.4849 8.205C56.8249 8.005 56.9949 7.72 56.9949 7.35C56.9949 7.08 56.8349 6.855 56.5149 6.675C56.2049 6.495 55.6449 6.325 54.8349 6.165C53.9049 5.975 53.1599 5.75 52.5999 5.49C52.0499 5.23 51.6499 4.91 51.3999 4.53C51.1499 4.15 51.0249 3.68 51.0249 3.12C51.0249 2.53 51.1849 2 51.5049 1.53C51.8249 1.05 52.2899 0.675 52.8999 0.405C53.5199 0.135 54.2449 0 55.0749 0Z" fill="white"/>
<path d="M64.6686 10.05H62.5986V0.15H64.6686V10.05Z" fill="white"/>
<path d="M76.5721 1.815H73.2571V10.05H71.1871V1.815H67.8571V0.15H76.5721V1.815Z" fill="white"/>
<path d="M87.3986 8.385V10.05H79.7636V0.15H87.1886V1.815H81.8336V4.275H86.0486V5.865H81.8336V8.385H87.3986Z" fill="white"/>
<path d="M99.0658 6.15C99.0658 7.49 98.7058 8.5 97.9858 9.18C97.2758 9.86 96.2258 10.2 94.8358 10.2C93.4458 10.2 92.3908 9.86 91.6708 9.18C90.9608 8.5 90.6058 7.49 90.6058 6.15V0.15H92.6758V6.06C92.6758 6.89 92.8508 7.505 93.2008 7.905C93.5608 8.305 94.1058 8.505 94.8358 8.505C95.5658 8.505 96.1058 8.305 96.4558 7.905C96.8058 7.505 96.9808 6.89 96.9808 6.06V0.15H99.0658V6.15Z" fill="white"/>
<path d="M106.878 6.255H105.018V10.05H102.978V0.15H107.343C108.473 0.15 109.353 0.42 109.983 0.96C110.623 1.49 110.943 2.24 110.943 3.21C110.943 3.92 110.768 4.515 110.418 4.995C110.068 5.475 109.568 5.82 108.918 6.03L111.528 10.05H109.203L106.878 6.255ZM105.018 4.68H107.073C107.673 4.68 108.113 4.565 108.393 4.335C108.683 4.095 108.828 3.73 108.828 3.24C108.828 2.75 108.683 2.39 108.393 2.16C108.113 1.92 107.673 1.8 107.073 1.8H105.018V4.68Z" fill="white"/>
<path d="M118.289 0C119.209 0 119.999 0.155 120.659 0.464999C121.319 0.765 121.899 1.245 122.399 1.905L120.974 3.3C120.714 2.76 120.369 2.36 119.939 2.1C119.509 1.83 118.964 1.695 118.304 1.695C117.704 1.695 117.239 1.81 116.909 2.04C116.589 2.26 116.429 2.555 116.429 2.925C116.429 3.265 116.594 3.535 116.924 3.735C117.254 3.935 117.849 4.11 118.709 4.26C119.609 4.43 120.324 4.64 120.854 4.89C121.384 5.14 121.769 5.455 122.009 5.835C122.259 6.205 122.384 6.67 122.384 7.23C122.384 7.84 122.209 8.37 121.859 8.82C121.519 9.26 121.039 9.6 120.419 9.84C119.809 10.08 119.109 10.2 118.319 10.2C117.229 10.2 116.334 10.05 115.634 9.75C114.944 9.44 114.384 8.975 113.954 8.355L115.184 6.885C115.554 7.495 115.979 7.92 116.459 8.16C116.939 8.39 117.534 8.505 118.244 8.505C118.884 8.505 119.369 8.405 119.699 8.205C120.039 8.005 120.209 7.72 120.209 7.35C120.209 7.08 120.049 6.855 119.729 6.675C119.419 6.495 118.859 6.325 118.049 6.165C117.119 5.975 116.374 5.75 115.814 5.49C115.264 5.23 114.864 4.91 114.614 4.53C114.364 4.15 114.239 3.68 114.239 3.12C114.239 2.53 114.399 2 114.719 1.53C115.039 1.05 115.504 0.675 116.114 0.405C116.734 0.135 117.459 0 118.289 0Z" fill="white"/>
<path d="M37.0778 242.1H34.6628L31.0478 232.2H33.2378L35.3228 238.5L35.8928 240.45L36.4478 238.515L38.5478 232.2H40.6778L37.0778 242.1Z" fill="white"/>
<path d="M45.7466 242.1H43.6766V232.2H45.7466V242.1Z" fill="white"/>
<path d="M53.4352 232.05C54.3552 232.05 55.1452 232.205 55.8052 232.515C56.4652 232.815 57.0452 233.295 57.5452 233.955L56.1202 235.35C55.8602 234.81 55.5152 234.41 55.0852 234.15C54.6552 233.88 54.1102 233.745 53.4502 233.745C52.8502 233.745 52.3852 233.86 52.0552 234.09C51.7352 234.31 51.5752 234.605 51.5752 234.975C51.5752 235.315 51.7402 235.585 52.0702 235.785C52.4002 235.985 52.9952 236.16 53.8552 236.31C54.7552 236.48 55.4702 236.69 56.0002 236.94C56.5302 237.19 56.9152 237.505 57.1552 237.885C57.4052 238.255 57.5302 238.72 57.5302 239.28C57.5302 239.89 57.3552 240.42 57.0052 240.87C56.6652 241.31 56.1852 241.65 55.5652 241.89C54.9552 242.13 54.2552 242.25 53.4652 242.25C52.3752 242.25 51.4802 242.1 50.7802 241.8C50.0902 241.49 49.5302 241.025 49.1002 240.405L50.3302 238.935C50.7002 239.545 51.1252 239.97 51.6052 240.21C52.0852 240.44 52.6802 240.555 53.3902 240.555C54.0302 240.555 54.5152 240.455 54.8452 240.255C55.1852 240.055 55.3552 239.77 55.3552 239.4C55.3552 239.13 55.1952 238.905 54.8752 238.725C54.5652 238.545 54.0052 238.375 53.1952 238.215C52.2652 238.025 51.5202 237.8 50.9602 237.54C50.4102 237.28 50.0102 236.96 49.7602 236.58C49.5102 236.2 49.3852 235.73 49.3852 235.17C49.3852 234.58 49.5452 234.05 49.8652 233.58C50.1852 233.1 50.6502 232.725 51.2602 232.455C51.8802 232.185 52.6052 232.05 53.4352 232.05Z" fill="white"/>
<path d="M63.0289 242.1H60.9589V232.2H63.0289V242.1Z" fill="white"/>
<path d="M74.9324 233.865H71.6174V242.1H69.5474V233.865H66.2174V232.2H74.9324V233.865Z" fill="white"/>
<path d="M85.7589 240.435V242.1H78.1239V232.2H85.5489V233.865H80.1939V236.325H84.4089V237.915H80.1939V240.435H85.7589Z" fill="white"/>
<path d="M97.4261 238.2C97.4261 239.54 97.0661 240.55 96.3461 241.23C95.6361 241.91 94.5861 242.25 93.1961 242.25C91.8061 242.25 90.7511 241.91 90.0311 241.23C89.3211 240.55 88.9661 239.54 88.9661 238.2V232.2H91.0361V238.11C91.0361 238.94 91.2111 239.555 91.5611 239.955C91.9211 240.355 92.4661 240.555 93.1961 240.555C93.9261 240.555 94.4661 240.355 94.8161 239.955C95.1661 239.555 95.3411 238.94 95.3411 238.11V232.2H97.4261V238.2Z" fill="white"/>
<path d="M105.239 238.305H103.379V242.1H101.339V232.2H105.704C106.834 232.2 107.714 232.47 108.344 233.01C108.984 233.54 109.304 234.29 109.304 235.26C109.304 235.97 109.129 236.565 108.779 237.045C108.429 237.525 107.929 237.87 107.279 238.08L109.889 242.1H107.564L105.239 238.305ZM103.379 236.73H105.434C106.034 236.73 106.474 236.615 106.754 236.385C107.044 236.145 107.189 235.78 107.189 235.29C107.189 234.8 107.044 234.44 106.754 234.21C106.474 233.97 106.034 233.85 105.434 233.85H103.379V236.73Z" fill="white"/>
<path d="M116.649 232.05C117.569 232.05 118.359 232.205 119.019 232.515C119.679 232.815 120.259 233.295 120.759 233.955L119.334 235.35C119.074 234.81 118.729 234.41 118.299 234.15C117.869 233.88 117.324 233.745 116.664 233.745C116.064 233.745 115.599 233.86 115.269 234.09C114.949 234.31 114.789 234.605 114.789 234.975C114.789 235.315 114.954 235.585 115.284 235.785C115.614 235.985 116.209 236.16 117.069 236.31C117.969 236.48 118.684 236.69 119.214 236.94C119.744 237.19 120.129 237.505 120.369 237.885C120.619 238.255 120.744 238.72 120.744 239.28C120.744 239.89 120.569 240.42 120.219 240.87C119.879 241.31 119.399 241.65 118.779 241.89C118.169 242.13 117.469 242.25 116.679 242.25C115.589 242.25 114.694 242.1 113.994 241.8C113.304 241.49 112.744 241.025 112.314 240.405L113.544 238.935C113.914 239.545 114.339 239.97 114.819 240.21C115.299 240.44 115.894 240.555 116.604 240.555C117.244 240.555 117.729 240.455 118.059 240.255C118.399 240.055 118.569 239.77 118.569 239.4C118.569 239.13 118.409 238.905 118.089 238.725C117.779 238.545 117.219 238.375 116.409 238.215C115.479 238.025 114.734 237.8 114.174 237.54C113.624 237.28 113.224 236.96 112.974 236.58C112.724 236.2 112.599 235.73 112.599 235.17C112.599 234.58 112.759 234.05 113.079 233.58C113.399 233.1 113.864 232.725 114.474 232.455C115.094 232.185 115.819 232.05 116.649 232.05Z" fill="white"/>
<path d="M36.97 260.37C36.68 261.32 36.165 262.04 35.425 262.53C34.685 263.01 33.8 263.25 32.77 263.25C31.8 263.25 30.955 263.045 30.235 262.635C29.515 262.225 28.96 261.64 28.57 260.88C28.19 260.11 28 259.2 28 258.15C28 257.1 28.19 256.195 28.57 255.435C28.96 254.665 29.51 254.075 30.22 253.665C30.94 253.255 31.78 253.05 32.74 253.05C33.77 253.05 34.64 253.265 35.35 253.695C36.07 254.125 36.565 254.765 36.835 255.615L34.96 256.41C34.8 255.82 34.55 255.395 34.21 255.135C33.87 254.875 33.41 254.745 32.83 254.745C31.99 254.745 31.33 255.04 30.85 255.63C30.38 256.22 30.145 257.06 30.145 258.15C30.145 259.24 30.375 260.08 30.835 260.67C31.295 261.26 31.945 261.555 32.785 261.555C33.995 261.555 34.755 260.97 35.065 259.8L36.97 260.37Z" fill="white"/>
<path d="M44.5093 253.05C45.4793 253.05 46.3193 253.255 47.0293 253.665C47.7493 254.075 48.2993 254.665 48.6793 255.435C49.0693 256.195 49.2643 257.1 49.2643 258.15C49.2643 259.2 49.0693 260.11 48.6793 260.88C48.2993 261.64 47.7493 262.225 47.0293 262.635C46.3193 263.045 45.4793 263.25 44.5093 263.25C43.5393 263.25 42.6943 263.045 41.9743 262.635C41.2543 262.225 40.6993 261.64 40.3093 260.88C39.9293 260.11 39.7393 259.2 39.7393 258.15C39.7393 257.1 39.9293 256.195 40.3093 255.435C40.6993 254.665 41.2543 254.075 41.9743 253.665C42.6943 253.255 43.5393 253.05 44.5093 253.05ZM44.5093 254.745C43.6693 254.745 43.0193 255.04 42.5593 255.63C42.1093 256.21 41.8843 257.05 41.8843 258.15C41.8843 259.25 42.1093 260.095 42.5593 260.685C43.0193 261.265 43.6693 261.555 44.5093 261.555C45.3393 261.555 45.9793 261.265 46.4293 260.685C46.8893 260.095 47.1193 259.25 47.1193 258.15C47.1193 257.05 46.8893 256.21 46.4293 255.63C45.9793 255.04 45.3393 254.745 44.5093 254.745Z" fill="white"/>
<path d="M61.3574 263.1H58.9874L55.5224 257.28L54.6674 255.615H54.6524L54.7124 257.37V263.1H52.8524V253.2H55.2074L58.6724 259.005L59.5274 260.685H59.5574L59.4974 258.93V253.2H61.3574V263.1Z" fill="white"/>
<path d="M70.3913 263.1H67.9763L64.3613 253.2H66.5513L68.6363 259.5L69.2063 261.45L69.7613 259.515L71.8613 253.2H73.9913L70.3913 263.1Z" fill="white"/>
<path d="M84.6251 261.435V263.1H76.9901V253.2H84.4151V254.865H79.0601V257.325H83.2751V258.915H79.0601V261.435H84.6251Z" fill="white"/>
<path d="M91.8823 259.305H90.0223V263.1H87.9823V253.2H92.3473C93.4773 253.2 94.3573 253.47 94.9873 254.01C95.6273 254.54 95.9473 255.29 95.9473 256.26C95.9473 256.97 95.7723 257.565 95.4223 258.045C95.0723 258.525 94.5723 258.87 93.9223 259.08L96.5323 263.1H94.2073L91.8823 259.305ZM90.0223 257.73H92.0773C92.6773 257.73 93.1173 257.615 93.3973 257.385C93.6873 257.145 93.8323 256.78 93.8323 256.29C93.8323 255.8 93.6873 255.44 93.3973 255.21C93.1173 254.97 92.6773 254.85 92.0773 254.85H90.0223V257.73Z" fill="white"/>
<path d="M107.332 254.865H104.017V263.1H101.947V254.865H98.6168V253.2H107.332V254.865Z" fill="white"/>
<path d="M112.593 263.1H110.523V253.2H112.593V263.1Z" fill="white"/>
<path d="M120.282 253.05C121.202 253.05 121.992 253.205 122.652 253.515C123.312 253.815 123.892 254.295 124.392 254.955L122.967 256.35C122.707 255.81 122.362 255.41 121.932 255.15C121.502 254.88 120.957 254.745 120.297 254.745C119.697 254.745 119.232 254.86 118.902 255.09C118.582 255.31 118.422 255.605 118.422 255.975C118.422 256.315 118.587 256.585 118.917 256.785C119.247 256.985 119.842 257.16 120.702 257.31C121.602 257.48 122.317 257.69 122.847 257.94C123.377 258.19 123.762 258.505 124.002 258.885C124.252 259.255 124.377 259.72 124.377 260.28C124.377 260.89 124.202 261.42 123.852 261.87C123.512 262.31 123.032 262.65 122.412 262.89C121.802 263.13 121.102 263.25 120.312 263.25C119.222 263.25 118.327 263.1 117.627 262.8C116.937 262.49 116.377 262.025 115.947 261.405L117.177 259.935C117.547 260.545 117.972 260.97 118.452 261.21C118.932 261.44 119.527 261.555 120.237 261.555C120.877 261.555 121.362 261.455 121.692 261.255C122.032 261.055 122.202 260.77 122.202 260.4C122.202 260.13 122.042 259.905 121.722 259.725C121.412 259.545 120.852 259.375 120.042 259.215C119.112 259.025 118.367 258.8 117.807 258.54C117.257 258.28 116.857 257.96 116.607 257.58C116.357 257.2 116.232 256.73 116.232 256.17C116.232 255.58 116.392 255.05 116.712 254.58C117.032 254.1 117.497 253.725 118.107 253.455C118.727 253.185 119.452 253.05 120.282 253.05Z" fill="white"/>
<path fill-rule="evenodd" clip-rule="evenodd" d="M59.5 32.6358V20.05H61.5V32.5285L67.7718 25.8647L69.2282 27.2354L60.5218 36.486L51.2929 27.2572L52.7071 25.8429L59.5 32.6358Z" fill="white"/>
<path fill-rule="evenodd" clip-rule="evenodd" d="M93.5 32.6358V20.05H95.5V32.5285L101.772 25.8647L103.228 27.2354L94.5218 36.486L85.2929 27.2572L86.7071 25.8429L93.5 32.6358Z" fill="white"/>
<path fill-rule="evenodd" clip-rule="evenodd" d="M72.5 217.636V205.05H74.5V217.528L80.7718 210.865L82.2282 212.235L73.5218 221.486L64.2929 212.257L65.7071 210.843L72.5 217.636Z" fill="white"/>
</svg>
