<svg width="350" height="255" viewBox="0 0 350 255" fill="none" xmlns="http://www.w3.org/2000/svg">
<path fill-rule="evenodd" clip-rule="evenodd" d="M173.207 32.6358V20.05H175.207V32.5285L181.479 25.8647L182.935 27.2354L174.229 36.486L165 27.2572L166.414 25.8429L173.207 32.6358Z" fill="#1539CF"/>
<mask id="mask0" mask-type="alpha" maskUnits="userSpaceOnUse" x="78" y="47" width="195" height="145">
<path fill-rule="evenodd" clip-rule="evenodd" d="M97.7843 83.05L116.47 117.05H230.778L251.047 83.05H97.7843ZM134.254 154.05L116.47 117.05H230.778L210.508 154.05H134.254ZM134.254 154.05V173.908L210.508 191.408V154.05H134.254ZM97.7843 83.05H251.047L272.508 47.05H78L97.7843 83.05Z" fill="#0D2DB5"/>
</mask>
<g mask="url(#mask0)">
<rect x="73" y="47" width="205" height="36" fill="#1539CF"/>
<rect x="73" y="82" width="205" height="36" fill="#0D2DB5"/>
<path d="M73 154H278V193H73V154Z" fill="#0D2DB5"/>
<rect x="73" y="118" width="205" height="36" fill="#1539CF"/>
<path d="M145.275 59.325H143.73L144.57 57H146.61L145.275 59.325ZM148.635 68.61V70.275H141V60.375H148.425V62.04H143.07V64.5H147.285V66.09H143.07V68.61H148.635Z" fill="white"/>
<path d="M159.822 62.04H156.507V70.275H154.437V62.04H151.107V60.375H159.822V62.04Z" fill="white"/>
<path d="M167.306 67.86H163.496L162.686 70.275H160.571L164.186 60.375H166.661L170.276 70.275H168.131L167.306 67.86ZM166.796 66.33L165.866 63.54L165.416 62.04H165.386L164.966 63.51L164.006 66.33H166.796Z" fill="white"/>
<path d="M177.399 60.375C178.549 60.375 179.444 60.655 180.084 61.215C180.724 61.765 181.044 62.545 181.044 63.555C181.044 64.535 180.724 65.3 180.084 65.85C179.444 66.4 178.549 66.675 177.399 66.675H175.314V70.275H173.244V60.375H177.399ZM177.084 65.07C177.724 65.07 178.194 64.945 178.494 64.695C178.794 64.435 178.944 64.05 178.944 63.54C178.944 63.03 178.794 62.65 178.494 62.4C178.194 62.15 177.724 62.025 177.084 62.025H175.314V65.07H177.084Z" fill="white"/>
<path d="M192.076 68.61V70.275H184.441V60.375H191.866V62.04H186.511V64.5H190.726V66.09H186.511V68.61H192.076Z" fill="white"/>
<path d="M205.198 60.375V70.275H203.188V62.895C203.188 62.735 203.193 62.61 203.203 62.52C202.843 62.85 202.453 63.13 202.033 63.36C201.623 63.59 201.208 63.745 200.788 63.825L200.518 62.085C200.978 62.035 201.528 61.83 202.168 61.47C202.818 61.1 203.268 60.735 203.518 60.375H205.198Z" fill="white"/>
<path d="M144.275 94.325H142.73L143.57 92H145.61L144.275 94.325ZM147.635 103.61V105.275H140V95.375H147.425V97.04H142.07V99.5H146.285V101.09H142.07V103.61H147.635Z" fill="white"/>
<path d="M158.822 97.04H155.507V105.275H153.437V97.04H150.107V95.375H158.822V97.04Z" fill="white"/>
<path d="M166.306 102.86H162.496L161.686 105.275H159.571L163.186 95.375H165.661L169.276 105.275H167.131L166.306 102.86ZM165.796 101.33L164.866 98.54L164.416 97.04H164.386L163.966 98.51L163.006 101.33H165.796Z" fill="white"/>
<path d="M176.399 95.375C177.549 95.375 178.444 95.655 179.084 96.215C179.724 96.765 180.044 97.545 180.044 98.555C180.044 99.535 179.724 100.3 179.084 100.85C178.444 101.4 177.549 101.675 176.399 101.675H174.314V105.275H172.244V95.375H176.399ZM176.084 100.07C176.724 100.07 177.194 99.945 177.494 99.695C177.794 99.435 177.944 99.05 177.944 98.54C177.944 98.03 177.794 97.65 177.494 97.4C177.194 97.15 176.724 97.025 176.084 97.025H174.314V100.07H176.084Z" fill="white"/>
<path d="M191.076 103.61V105.275H183.441V95.375H190.866V97.04H185.511V99.5H189.726V101.09H185.511V103.61H191.076Z" fill="white"/>
<path d="M200.204 103.865C201.414 103.055 202.374 102.345 203.084 101.735C203.794 101.125 204.309 100.56 204.629 100.04C204.949 99.52 205.109 99.005 205.109 98.495C205.109 98.025 204.964 97.645 204.674 97.355C204.394 97.065 204.004 96.92 203.504 96.92C202.954 96.92 202.519 97.11 202.199 97.49C201.879 97.87 201.704 98.41 201.674 99.11L199.889 98.435C199.959 97.435 200.329 96.65 200.999 96.08C201.669 95.51 202.544 95.225 203.624 95.225C204.394 95.225 205.044 95.37 205.574 95.66C206.114 95.95 206.519 96.335 206.789 96.815C207.059 97.285 207.194 97.805 207.194 98.375C207.194 99.305 206.844 100.185 206.144 101.015C205.444 101.835 204.329 102.715 202.799 103.655V103.67C203.379 103.63 203.984 103.61 204.614 103.61H207.344V105.275H200.204V103.865Z" fill="white"/>
<path d="M144.275 130.325H142.73L143.57 128H145.61L144.275 130.325ZM147.635 139.61V141.275H140V131.375H147.425V133.04H142.07V135.5H146.285V137.09H142.07V139.61H147.635Z" fill="white"/>
<path d="M158.822 133.04H155.507V141.275H153.437V133.04H150.107V131.375H158.822V133.04Z" fill="white"/>
<path d="M166.306 138.86H162.496L161.686 141.275H159.571L163.186 131.375H165.661L169.276 141.275H167.131L166.306 138.86ZM165.796 137.33L164.866 134.54L164.416 133.04H164.386L163.966 134.51L163.006 137.33H165.796Z" fill="white"/>
<path d="M176.399 131.375C177.549 131.375 178.444 131.655 179.084 132.215C179.724 132.765 180.044 133.545 180.044 134.555C180.044 135.535 179.724 136.3 179.084 136.85C178.444 137.4 177.549 137.675 176.399 137.675H174.314V141.275H172.244V131.375H176.399ZM176.084 136.07C176.724 136.07 177.194 135.945 177.494 135.695C177.794 135.435 177.944 135.05 177.944 134.54C177.944 134.03 177.794 133.65 177.494 133.4C177.194 133.15 176.724 133.025 176.084 133.025H174.314V136.07H176.084Z" fill="white"/>
<path d="M191.076 139.61V141.275H183.441V131.375H190.866V133.04H185.511V135.5H189.726V137.09H185.511V139.61H191.076Z" fill="white"/>
<path d="M203.669 131.225C204.729 131.225 205.554 131.475 206.144 131.975C206.744 132.475 207.044 133.125 207.044 133.925C207.044 134.415 206.944 134.84 206.744 135.2C206.544 135.55 206.299 135.815 206.009 135.995C205.719 136.175 205.444 136.265 205.184 136.265V136.31C205.514 136.31 205.834 136.395 206.144 136.565C206.464 136.735 206.724 136.995 206.924 137.345C207.134 137.685 207.239 138.1 207.239 138.59C207.239 139.14 207.079 139.63 206.759 140.06C206.449 140.49 206.014 140.825 205.454 141.065C204.894 141.305 204.254 141.425 203.534 141.425C202.564 141.425 201.769 141.23 201.149 140.84C200.539 140.44 200.094 139.825 199.814 138.995L201.689 138.155C201.799 138.705 201.999 139.11 202.289 139.37C202.589 139.63 203.009 139.76 203.549 139.76C204.059 139.76 204.464 139.635 204.764 139.385C205.064 139.125 205.214 138.78 205.214 138.35C205.214 137.89 205.069 137.56 204.779 137.36C204.499 137.15 204.054 137.045 203.444 137.045H202.949V135.605H203.369C204.449 135.605 204.989 135.15 204.989 134.24C204.989 133.8 204.864 133.465 204.614 133.235C204.374 133.005 204.029 132.89 203.579 132.89C203.119 132.89 202.749 133.01 202.469 133.25C202.189 133.49 202.014 133.84 201.944 134.3L200.099 133.625C200.289 132.835 200.699 132.24 201.329 131.84C201.969 131.43 202.749 131.225 203.669 131.225Z" fill="white"/>
</g>
<path fill-rule="evenodd" clip-rule="evenodd" d="M173.207 208.636V196.05H175.207V208.528L181.479 201.865L182.935 203.235L174.229 212.486L165 203.257L166.414 201.843L173.207 208.636Z" fill="#1539CF"/>
<path d="M135.03 10.05H132.615L129 0.15H131.19L133.275 6.45L133.845 8.4L134.4 6.465L136.5 0.15H138.63L135.03 10.05Z" fill="#1539CF"/>
<path d="M143.699 10.05H141.629V0.15H143.699V10.05Z" fill="#1539CF"/>
<path d="M151.387 0C152.307 0 153.097 0.155 153.757 0.464999C154.417 0.765 154.997 1.245 155.497 1.905L154.072 3.3C153.812 2.76 153.467 2.36 153.037 2.1C152.607 1.83 152.062 1.695 151.402 1.695C150.802 1.695 150.337 1.81 150.007 2.04C149.687 2.26 149.527 2.555 149.527 2.925C149.527 3.265 149.692 3.535 150.022 3.735C150.352 3.935 150.947 4.11 151.807 4.26C152.707 4.43 153.422 4.64 153.952 4.89C154.482 5.14 154.867 5.455 155.107 5.835C155.357 6.205 155.482 6.67 155.482 7.23C155.482 7.84 155.307 8.37 154.957 8.82C154.617 9.26 154.137 9.6 153.517 9.84C152.907 10.08 152.207 10.2 151.417 10.2C150.327 10.2 149.432 10.05 148.732 9.75C148.042 9.44 147.482 8.975 147.052 8.355L148.282 6.885C148.652 7.495 149.077 7.92 149.557 8.16C150.037 8.39 150.632 8.505 151.342 8.505C151.982 8.505 152.467 8.405 152.797 8.205C153.137 8.005 153.307 7.72 153.307 7.35C153.307 7.08 153.147 6.855 152.827 6.675C152.517 6.495 151.957 6.325 151.147 6.165C150.217 5.975 149.472 5.75 148.912 5.49C148.362 5.23 147.962 4.91 147.712 4.53C147.462 4.15 147.337 3.68 147.337 3.12C147.337 2.53 147.497 2 147.817 1.53C148.137 1.05 148.602 0.675 149.212 0.405C149.832 0.135 150.557 0 151.387 0Z" fill="#1539CF"/>
<path d="M160.981 10.05H158.911V0.15H160.981V10.05Z" fill="#1539CF"/>
<path d="M172.885 1.815H169.57V10.05H167.5V1.815H164.17V0.15H172.885V1.815Z" fill="#1539CF"/>
<path d="M183.711 8.385V10.05H176.076V0.15H183.501V1.815H178.146V4.275H182.361V5.865H178.146V8.385H183.711Z" fill="#1539CF"/>
<path d="M195.378 6.15C195.378 7.49 195.018 8.5 194.298 9.18C193.588 9.86 192.538 10.2 191.148 10.2C189.758 10.2 188.703 9.86 187.983 9.18C187.273 8.5 186.918 7.49 186.918 6.15V0.15H188.988V6.06C188.988 6.89 189.163 7.505 189.513 7.905C189.873 8.305 190.418 8.505 191.148 8.505C191.878 8.505 192.418 8.305 192.768 7.905C193.118 7.505 193.293 6.89 193.293 6.06V0.15H195.378V6.15Z" fill="#1539CF"/>
<path d="M203.191 6.255H201.331V10.05H199.291V0.15H203.656C204.786 0.15 205.666 0.42 206.296 0.96C206.936 1.49 207.256 2.24 207.256 3.21C207.256 3.92 207.081 4.515 206.731 4.995C206.381 5.475 205.881 5.82 205.231 6.03L207.841 10.05H205.516L203.191 6.255ZM201.331 4.68H203.386C203.986 4.68 204.426 4.565 204.706 4.335C204.996 4.095 205.141 3.73 205.141 3.24C205.141 2.75 204.996 2.39 204.706 2.16C204.426 1.92 203.986 1.8 203.386 1.8H201.331V4.68Z" fill="#1539CF"/>
<path d="M214.601 0C215.521 0 216.311 0.155 216.971 0.464999C217.631 0.765 218.211 1.245 218.711 1.905L217.286 3.3C217.026 2.76 216.681 2.36 216.251 2.1C215.821 1.83 215.276 1.695 214.616 1.695C214.016 1.695 213.551 1.81 213.221 2.04C212.901 2.26 212.741 2.555 212.741 2.925C212.741 3.265 212.906 3.535 213.236 3.735C213.566 3.935 214.161 4.11 215.021 4.26C215.921 4.43 216.636 4.64 217.166 4.89C217.696 5.14 218.081 5.455 218.321 5.835C218.571 6.205 218.696 6.67 218.696 7.23C218.696 7.84 218.521 8.37 218.171 8.82C217.831 9.26 217.351 9.6 216.731 9.84C216.121 10.08 215.421 10.2 214.631 10.2C213.541 10.2 212.646 10.05 211.946 9.75C211.256 9.44 210.696 8.975 210.266 8.355L211.496 6.885C211.866 7.495 212.291 7.92 212.771 8.16C213.251 8.39 213.846 8.505 214.556 8.505C215.196 8.505 215.681 8.405 216.011 8.205C216.351 8.005 216.521 7.72 216.521 7.35C216.521 7.08 216.361 6.855 216.041 6.675C215.731 6.495 215.171 6.325 214.361 6.165C213.431 5.975 212.686 5.75 212.126 5.49C211.576 5.23 211.176 4.91 210.926 4.53C210.676 4.15 210.551 3.68 210.551 3.12C210.551 2.53 210.711 2 211.031 1.53C211.351 1.05 211.816 0.675 212.426 0.405C213.046 0.135 213.771 0 214.601 0Z" fill="#1539CF"/>
<path d="M135.078 233.05H132.663L129.048 223.15H131.238L133.323 229.45L133.893 231.4L134.448 229.465L136.548 223.15H138.678L135.078 233.05Z" fill="#1539CF"/>
<path d="M143.747 233.05H141.677V223.15H143.747V233.05Z" fill="#1539CF"/>
<path d="M151.435 223C152.355 223 153.145 223.155 153.805 223.465C154.465 223.765 155.045 224.245 155.545 224.905L154.12 226.3C153.86 225.76 153.515 225.36 153.085 225.1C152.655 224.83 152.11 224.695 151.45 224.695C150.85 224.695 150.385 224.81 150.055 225.04C149.735 225.26 149.575 225.555 149.575 225.925C149.575 226.265 149.74 226.535 150.07 226.735C150.4 226.935 150.995 227.11 151.855 227.26C152.755 227.43 153.47 227.64 154 227.89C154.53 228.14 154.915 228.455 155.155 228.835C155.405 229.205 155.53 229.67 155.53 230.23C155.53 230.84 155.355 231.37 155.005 231.82C154.665 232.26 154.185 232.6 153.565 232.84C152.955 233.08 152.255 233.2 151.465 233.2C150.375 233.2 149.48 233.05 148.78 232.75C148.09 232.44 147.53 231.975 147.1 231.355L148.33 229.885C148.7 230.495 149.125 230.92 149.605 231.16C150.085 231.39 150.68 231.505 151.39 231.505C152.03 231.505 152.515 231.405 152.845 231.205C153.185 231.005 153.355 230.72 153.355 230.35C153.355 230.08 153.195 229.855 152.875 229.675C152.565 229.495 152.005 229.325 151.195 229.165C150.265 228.975 149.52 228.75 148.96 228.49C148.41 228.23 148.01 227.91 147.76 227.53C147.51 227.15 147.385 226.68 147.385 226.12C147.385 225.53 147.545 225 147.865 224.53C148.185 224.05 148.65 223.675 149.26 223.405C149.88 223.135 150.605 223 151.435 223Z" fill="#1539CF"/>
<path d="M161.029 233.05H158.959V223.15H161.029V233.05Z" fill="#1539CF"/>
<path d="M172.932 224.815H169.617V233.05H167.547V224.815H164.217V223.15H172.932V224.815Z" fill="#1539CF"/>
<path d="M183.759 231.385V233.05H176.124V223.15H183.549V224.815H178.194V227.275H182.409V228.865H178.194V231.385H183.759Z" fill="#1539CF"/>
<path d="M195.426 229.15C195.426 230.49 195.066 231.5 194.346 232.18C193.636 232.86 192.586 233.2 191.196 233.2C189.806 233.2 188.751 232.86 188.031 232.18C187.321 231.5 186.966 230.49 186.966 229.15V223.15H189.036V229.06C189.036 229.89 189.211 230.505 189.561 230.905C189.921 231.305 190.466 231.505 191.196 231.505C191.926 231.505 192.466 231.305 192.816 230.905C193.166 230.505 193.341 229.89 193.341 229.06V223.15H195.426V229.15Z" fill="#1539CF"/>
<path d="M203.239 229.255H201.379V233.05H199.339V223.15H203.704C204.834 223.15 205.714 223.42 206.344 223.96C206.984 224.49 207.304 225.24 207.304 226.21C207.304 226.92 207.129 227.515 206.779 227.995C206.429 228.475 205.929 228.82 205.279 229.03L207.889 233.05H205.564L203.239 229.255ZM201.379 227.68H203.434C204.034 227.68 204.474 227.565 204.754 227.335C205.044 227.095 205.189 226.73 205.189 226.24C205.189 225.75 205.044 225.39 204.754 225.16C204.474 224.92 204.034 224.8 203.434 224.8H201.379V227.68Z" fill="#1539CF"/>
<path d="M214.649 223C215.569 223 216.359 223.155 217.019 223.465C217.679 223.765 218.259 224.245 218.759 224.905L217.334 226.3C217.074 225.76 216.729 225.36 216.299 225.1C215.869 224.83 215.324 224.695 214.664 224.695C214.064 224.695 213.599 224.81 213.269 225.04C212.949 225.26 212.789 225.555 212.789 225.925C212.789 226.265 212.954 226.535 213.284 226.735C213.614 226.935 214.209 227.11 215.069 227.26C215.969 227.43 216.684 227.64 217.214 227.89C217.744 228.14 218.129 228.455 218.369 228.835C218.619 229.205 218.744 229.67 218.744 230.23C218.744 230.84 218.569 231.37 218.219 231.82C217.879 232.26 217.399 232.6 216.779 232.84C216.169 233.08 215.469 233.2 214.679 233.2C213.589 233.2 212.694 233.05 211.994 232.75C211.304 232.44 210.744 231.975 210.314 231.355L211.544 229.885C211.914 230.495 212.339 230.92 212.819 231.16C213.299 231.39 213.894 231.505 214.604 231.505C215.244 231.505 215.729 231.405 216.059 231.205C216.399 231.005 216.569 230.72 216.569 230.35C216.569 230.08 216.409 229.855 216.089 229.675C215.779 229.495 215.219 229.325 214.409 229.165C213.479 228.975 212.734 228.75 212.174 228.49C211.624 228.23 211.224 227.91 210.974 227.53C210.724 227.15 210.599 226.68 210.599 226.12C210.599 225.53 210.759 225 211.079 224.53C211.399 224.05 211.864 223.675 212.474 223.405C213.094 223.135 213.819 223 214.649 223Z" fill="#1539CF"/>
<path d="M134.97 251.32C134.68 252.27 134.165 252.99 133.425 253.48C132.685 253.96 131.8 254.2 130.77 254.2C129.8 254.2 128.955 253.995 128.235 253.585C127.515 253.175 126.96 252.59 126.57 251.83C126.19 251.06 126 250.15 126 249.1C126 248.05 126.19 247.145 126.57 246.385C126.96 245.615 127.51 245.025 128.22 244.615C128.94 244.205 129.78 244 130.74 244C131.77 244 132.64 244.215 133.35 244.645C134.07 245.075 134.565 245.715 134.835 246.565L132.96 247.36C132.8 246.77 132.55 246.345 132.21 246.085C131.87 245.825 131.41 245.695 130.83 245.695C129.99 245.695 129.33 245.99 128.85 246.58C128.38 247.17 128.145 248.01 128.145 249.1C128.145 250.19 128.375 251.03 128.835 251.62C129.295 252.21 129.945 252.505 130.785 252.505C131.995 252.505 132.755 251.92 133.065 250.75L134.97 251.32Z" fill="#1539CF"/>
<path d="M142.509 244C143.479 244 144.319 244.205 145.029 244.615C145.749 245.025 146.299 245.615 146.679 246.385C147.069 247.145 147.264 248.05 147.264 249.1C147.264 250.15 147.069 251.06 146.679 251.83C146.299 252.59 145.749 253.175 145.029 253.585C144.319 253.995 143.479 254.2 142.509 254.2C141.539 254.2 140.694 253.995 139.974 253.585C139.254 253.175 138.699 252.59 138.309 251.83C137.929 251.06 137.739 250.15 137.739 249.1C137.739 248.05 137.929 247.145 138.309 246.385C138.699 245.615 139.254 245.025 139.974 244.615C140.694 244.205 141.539 244 142.509 244ZM142.509 245.695C141.669 245.695 141.019 245.99 140.559 246.58C140.109 247.16 139.884 248 139.884 249.1C139.884 250.2 140.109 251.045 140.559 251.635C141.019 252.215 141.669 252.505 142.509 252.505C143.339 252.505 143.979 252.215 144.429 251.635C144.889 251.045 145.119 250.2 145.119 249.1C145.119 248 144.889 247.16 144.429 246.58C143.979 245.99 143.339 245.695 142.509 245.695Z" fill="#1539CF"/>
<path d="M159.357 254.05H156.987L153.522 248.23L152.667 246.565H152.652L152.712 248.32V254.05H150.852V244.15H153.207L156.672 249.955L157.527 251.635H157.557L157.497 249.88V244.15H159.357V254.05Z" fill="#1539CF"/>
<path d="M168.391 254.05H165.976L162.361 244.15H164.551L166.636 250.45L167.206 252.4L167.761 250.465L169.861 244.15H171.991L168.391 254.05Z" fill="#1539CF"/>
<path d="M182.625 252.385V254.05H174.99V244.15H182.415V245.815H177.06V248.275H181.275V249.865H177.06V252.385H182.625Z" fill="#1539CF"/>
<path d="M189.882 250.255H188.022V254.05H185.982V244.15H190.347C191.477 244.15 192.357 244.42 192.987 244.96C193.627 245.49 193.947 246.24 193.947 247.21C193.947 247.92 193.772 248.515 193.422 248.995C193.072 249.475 192.572 249.82 191.922 250.03L194.532 254.05H192.207L189.882 250.255ZM188.022 248.68H190.077C190.677 248.68 191.117 248.565 191.397 248.335C191.687 248.095 191.832 247.73 191.832 247.24C191.832 246.75 191.687 246.39 191.397 246.16C191.117 245.92 190.677 245.8 190.077 245.8H188.022V248.68Z" fill="#1539CF"/>
<path d="M205.332 245.815H202.017V254.05H199.947V245.815H196.617V244.15H205.332V245.815Z" fill="#1539CF"/>
<path d="M210.593 254.05H208.523V244.15H210.593V254.05Z" fill="#1539CF"/>
<path d="M218.282 244C219.202 244 219.992 244.155 220.652 244.465C221.312 244.765 221.892 245.245 222.392 245.905L220.967 247.3C220.707 246.76 220.362 246.36 219.932 246.1C219.502 245.83 218.957 245.695 218.297 245.695C217.697 245.695 217.232 245.81 216.902 246.04C216.582 246.26 216.422 246.555 216.422 246.925C216.422 247.265 216.587 247.535 216.917 247.735C217.247 247.935 217.842 248.11 218.702 248.26C219.602 248.43 220.317 248.64 220.847 248.89C221.377 249.14 221.762 249.455 222.002 249.835C222.252 250.205 222.377 250.67 222.377 251.23C222.377 251.84 222.202 252.37 221.852 252.82C221.512 253.26 221.032 253.6 220.412 253.84C219.802 254.08 219.102 254.2 218.312 254.2C217.222 254.2 216.327 254.05 215.627 253.75C214.937 253.44 214.377 252.975 213.947 252.355L215.177 250.885C215.547 251.495 215.972 251.92 216.452 252.16C216.932 252.39 217.527 252.505 218.237 252.505C218.877 252.505 219.362 252.405 219.692 252.205C220.032 252.005 220.202 251.72 220.202 251.35C220.202 251.08 220.042 250.855 219.722 250.675C219.412 250.495 218.852 250.325 218.042 250.165C217.112 249.975 216.367 249.75 215.807 249.49C215.257 249.23 214.857 248.91 214.607 248.53C214.357 248.15 214.232 247.68 214.232 247.12C214.232 246.53 214.392 246 214.712 245.53C215.032 245.05 215.497 244.675 216.107 244.405C216.727 244.135 217.452 244 218.282 244Z" fill="#1539CF"/>
</svg>
