<svg width="195" height="261" viewBox="0 0 195 261" fill="none" xmlns="http://www.w3.org/2000/svg">
<path d="M57.03 10.05H54.615L51 0.15H53.19L55.275 6.45L55.845 8.4L56.4 6.465L58.5 0.15H60.63L57.03 10.05Z" fill="#1539CF"/>
<path d="M65.6988 10.05H63.6288V0.15H65.6988V10.05Z" fill="#1539CF"/>
<path d="M73.3874 0C74.3074 0 75.0974 0.155 75.7574 0.464999C76.4174 0.765 76.9974 1.245 77.4974 1.905L76.0724 3.3C75.8124 2.76 75.4674 2.36 75.0374 2.1C74.6074 1.83 74.0624 1.695 73.4024 1.695C72.8024 1.695 72.3374 1.81 72.0074 2.04C71.6874 2.26 71.5274 2.555 71.5274 2.925C71.5274 3.265 71.6924 3.535 72.0224 3.735C72.3524 3.935 72.9474 4.11 73.8074 4.26C74.7074 4.43 75.4224 4.64 75.9524 4.89C76.4824 5.14 76.8674 5.455 77.1074 5.835C77.3574 6.205 77.4824 6.67 77.4824 7.23C77.4824 7.84 77.3074 8.37 76.9574 8.82C76.6174 9.26 76.1374 9.6 75.5174 9.84C74.9074 10.08 74.2074 10.2 73.4174 10.2C72.3274 10.2 71.4324 10.05 70.7324 9.75C70.0424 9.44 69.4824 8.975 69.0524 8.355L70.2824 6.885C70.6524 7.495 71.0774 7.92 71.5574 8.16C72.0374 8.39 72.6324 8.505 73.3424 8.505C73.9824 8.505 74.4674 8.405 74.7974 8.205C75.1374 8.005 75.3074 7.72 75.3074 7.35C75.3074 7.08 75.1474 6.855 74.8274 6.675C74.5174 6.495 73.9574 6.325 73.1474 6.165C72.2174 5.975 71.4724 5.75 70.9124 5.49C70.3624 5.23 69.9624 4.91 69.7124 4.53C69.4624 4.15 69.3374 3.68 69.3374 3.12C69.3374 2.53 69.4974 2 69.8174 1.53C70.1374 1.05 70.6024 0.675 71.2124 0.405C71.8324 0.135 72.5574 0 73.3874 0Z" fill="#1539CF"/>
<path d="M82.9811 10.05H80.9111V0.15H82.9811V10.05Z" fill="#1539CF"/>
<path d="M94.8846 1.815H91.5696V10.05H89.4996V1.815H86.1696V0.15H94.8846V1.815Z" fill="#1539CF"/>
<path d="M105.711 8.385V10.05H98.0761V0.15H105.501V1.815H100.146V4.275H104.361V5.865H100.146V8.385H105.711Z" fill="#1539CF"/>
<path d="M117.378 6.15C117.378 7.49 117.018 8.5 116.298 9.18C115.588 9.86 114.538 10.2 113.148 10.2C111.758 10.2 110.703 9.86 109.983 9.18C109.273 8.5 108.918 7.49 108.918 6.15V0.15H110.988V6.06C110.988 6.89 111.163 7.505 111.513 7.905C111.873 8.305 112.418 8.505 113.148 8.505C113.878 8.505 114.418 8.305 114.768 7.905C115.118 7.505 115.293 6.89 115.293 6.06V0.15H117.378V6.15Z" fill="#1539CF"/>
<path d="M125.191 6.255H123.331V10.05H121.291V0.15H125.656C126.786 0.15 127.666 0.42 128.296 0.96C128.936 1.49 129.256 2.24 129.256 3.21C129.256 3.92 129.081 4.515 128.731 4.995C128.381 5.475 127.881 5.82 127.231 6.03L129.841 10.05H127.516L125.191 6.255ZM123.331 4.68H125.386C125.986 4.68 126.426 4.565 126.706 4.335C126.996 4.095 127.141 3.73 127.141 3.24C127.141 2.75 126.996 2.39 126.706 2.16C126.426 1.92 125.986 1.8 125.386 1.8H123.331V4.68Z" fill="#1539CF"/>
<path d="M136.601 0C137.521 0 138.311 0.155 138.971 0.464999C139.631 0.765 140.211 1.245 140.711 1.905L139.286 3.3C139.026 2.76 138.681 2.36 138.251 2.1C137.821 1.83 137.276 1.695 136.616 1.695C136.016 1.695 135.551 1.81 135.221 2.04C134.901 2.26 134.741 2.555 134.741 2.925C134.741 3.265 134.906 3.535 135.236 3.735C135.566 3.935 136.161 4.11 137.021 4.26C137.921 4.43 138.636 4.64 139.166 4.89C139.696 5.14 140.081 5.455 140.321 5.835C140.571 6.205 140.696 6.67 140.696 7.23C140.696 7.84 140.521 8.37 140.171 8.82C139.831 9.26 139.351 9.6 138.731 9.84C138.121 10.08 137.421 10.2 136.631 10.2C135.541 10.2 134.646 10.05 133.946 9.75C133.256 9.44 132.696 8.975 132.266 8.355L133.496 6.885C133.866 7.495 134.291 7.92 134.771 8.16C135.251 8.39 135.846 8.505 136.556 8.505C137.196 8.505 137.681 8.405 138.011 8.205C138.351 8.005 138.521 7.72 138.521 7.35C138.521 7.08 138.361 6.855 138.041 6.675C137.731 6.495 137.171 6.325 136.361 6.165C135.431 5.975 134.686 5.75 134.126 5.49C133.576 5.23 133.176 4.91 132.926 4.53C132.676 4.15 132.551 3.68 132.551 3.12C132.551 2.53 132.711 2 133.031 1.53C133.351 1.05 133.816 0.675 134.426 0.405C135.046 0.135 135.771 0 136.601 0Z" fill="#1539CF"/>
<path d="M57.0778 239.05H54.6628L51.0478 229.15H53.2378L55.3228 235.45L55.8928 237.4L56.4478 235.465L58.5478 229.15H60.6778L57.0778 239.05Z" fill="#1539CF"/>
<path d="M65.7466 239.05H63.6766V229.15H65.7466V239.05Z" fill="#1539CF"/>
<path d="M73.4352 229C74.3552 229 75.1452 229.155 75.8052 229.465C76.4652 229.765 77.0452 230.245 77.5452 230.905L76.1202 232.3C75.8602 231.76 75.5152 231.36 75.0852 231.1C74.6552 230.83 74.1102 230.695 73.4502 230.695C72.8502 230.695 72.3852 230.81 72.0552 231.04C71.7352 231.26 71.5752 231.555 71.5752 231.925C71.5752 232.265 71.7402 232.535 72.0702 232.735C72.4002 232.935 72.9952 233.11 73.8552 233.26C74.7552 233.43 75.4702 233.64 76.0002 233.89C76.5302 234.14 76.9152 234.455 77.1552 234.835C77.4052 235.205 77.5302 235.67 77.5302 236.23C77.5302 236.84 77.3552 237.37 77.0052 237.82C76.6652 238.26 76.1852 238.6 75.5652 238.84C74.9552 239.08 74.2552 239.2 73.4652 239.2C72.3752 239.2 71.4802 239.05 70.7802 238.75C70.0902 238.44 69.5302 237.975 69.1002 237.355L70.3302 235.885C70.7002 236.495 71.1252 236.92 71.6052 237.16C72.0852 237.39 72.6802 237.505 73.3902 237.505C74.0302 237.505 74.5152 237.405 74.8452 237.205C75.1852 237.005 75.3552 236.72 75.3552 236.35C75.3552 236.08 75.1952 235.855 74.8752 235.675C74.5652 235.495 74.0052 235.325 73.1952 235.165C72.2652 234.975 71.5202 234.75 70.9602 234.49C70.4102 234.23 70.0102 233.91 69.7602 233.53C69.5102 233.15 69.3852 232.68 69.3852 232.12C69.3852 231.53 69.5452 231 69.8652 230.53C70.1852 230.05 70.6502 229.675 71.2602 229.405C71.8802 229.135 72.6052 229 73.4352 229Z" fill="#1539CF"/>
<path d="M83.0289 239.05H80.9589V229.15H83.0289V239.05Z" fill="#1539CF"/>
<path d="M94.9324 230.815H91.6174V239.05H89.5474V230.815H86.2174V229.15H94.9324V230.815Z" fill="#1539CF"/>
<path d="M105.759 237.385V239.05H98.1239V229.15H105.549V230.815H100.194V233.275H104.409V234.865H100.194V237.385H105.759Z" fill="#1539CF"/>
<path d="M117.426 235.15C117.426 236.49 117.066 237.5 116.346 238.18C115.636 238.86 114.586 239.2 113.196 239.2C111.806 239.2 110.751 238.86 110.031 238.18C109.321 237.5 108.966 236.49 108.966 235.15V229.15H111.036V235.06C111.036 235.89 111.211 236.505 111.561 236.905C111.921 237.305 112.466 237.505 113.196 237.505C113.926 237.505 114.466 237.305 114.816 236.905C115.166 236.505 115.341 235.89 115.341 235.06V229.15H117.426V235.15Z" fill="#1539CF"/>
<path d="M125.239 235.255H123.379V239.05H121.339V229.15H125.704C126.834 229.15 127.714 229.42 128.344 229.96C128.984 230.49 129.304 231.24 129.304 232.21C129.304 232.92 129.129 233.515 128.779 233.995C128.429 234.475 127.929 234.82 127.279 235.03L129.889 239.05H127.564L125.239 235.255ZM123.379 233.68H125.434C126.034 233.68 126.474 233.565 126.754 233.335C127.044 233.095 127.189 232.73 127.189 232.24C127.189 231.75 127.044 231.39 126.754 231.16C126.474 230.92 126.034 230.8 125.434 230.8H123.379V233.68Z" fill="#1539CF"/>
<path d="M136.649 229C137.569 229 138.359 229.155 139.019 229.465C139.679 229.765 140.259 230.245 140.759 230.905L139.334 232.3C139.074 231.76 138.729 231.36 138.299 231.1C137.869 230.83 137.324 230.695 136.664 230.695C136.064 230.695 135.599 230.81 135.269 231.04C134.949 231.26 134.789 231.555 134.789 231.925C134.789 232.265 134.954 232.535 135.284 232.735C135.614 232.935 136.209 233.11 137.069 233.26C137.969 233.43 138.684 233.64 139.214 233.89C139.744 234.14 140.129 234.455 140.369 234.835C140.619 235.205 140.744 235.67 140.744 236.23C140.744 236.84 140.569 237.37 140.219 237.82C139.879 238.26 139.399 238.6 138.779 238.84C138.169 239.08 137.469 239.2 136.679 239.2C135.589 239.2 134.694 239.05 133.994 238.75C133.304 238.44 132.744 237.975 132.314 237.355L133.544 235.885C133.914 236.495 134.339 236.92 134.819 237.16C135.299 237.39 135.894 237.505 136.604 237.505C137.244 237.505 137.729 237.405 138.059 237.205C138.399 237.005 138.569 236.72 138.569 236.35C138.569 236.08 138.409 235.855 138.089 235.675C137.779 235.495 137.219 235.325 136.409 235.165C135.479 234.975 134.734 234.75 134.174 234.49C133.624 234.23 133.224 233.91 132.974 233.53C132.724 233.15 132.599 232.68 132.599 232.12C132.599 231.53 132.759 231 133.079 230.53C133.399 230.05 133.864 229.675 134.474 229.405C135.094 229.135 135.819 229 136.649 229Z" fill="#1539CF"/>
<path d="M56.97 257.32C56.68 258.27 56.165 258.99 55.425 259.48C54.685 259.96 53.8 260.2 52.77 260.2C51.8 260.2 50.955 259.995 50.235 259.585C49.515 259.175 48.96 258.59 48.57 257.83C48.19 257.06 48 256.15 48 255.1C48 254.05 48.19 253.145 48.57 252.385C48.96 251.615 49.51 251.025 50.22 250.615C50.94 250.205 51.78 250 52.74 250C53.77 250 54.64 250.215 55.35 250.645C56.07 251.075 56.565 251.715 56.835 252.565L54.96 253.36C54.8 252.77 54.55 252.345 54.21 252.085C53.87 251.825 53.41 251.695 52.83 251.695C51.99 251.695 51.33 251.99 50.85 252.58C50.38 253.17 50.145 254.01 50.145 255.1C50.145 256.19 50.375 257.03 50.835 257.62C51.295 258.21 51.945 258.505 52.785 258.505C53.995 258.505 54.755 257.92 55.065 256.75L56.97 257.32Z" fill="#1539CF"/>
<path d="M64.5093 250C65.4793 250 66.3193 250.205 67.0293 250.615C67.7493 251.025 68.2993 251.615 68.6793 252.385C69.0693 253.145 69.2643 254.05 69.2643 255.1C69.2643 256.15 69.0693 257.06 68.6793 257.83C68.2993 258.59 67.7493 259.175 67.0293 259.585C66.3193 259.995 65.4793 260.2 64.5093 260.2C63.5393 260.2 62.6943 259.995 61.9743 259.585C61.2543 259.175 60.6993 258.59 60.3093 257.83C59.9293 257.06 59.7393 256.15 59.7393 255.1C59.7393 254.05 59.9293 253.145 60.3093 252.385C60.6993 251.615 61.2543 251.025 61.9743 250.615C62.6943 250.205 63.5393 250 64.5093 250ZM64.5093 251.695C63.6693 251.695 63.0193 251.99 62.5593 252.58C62.1093 253.16 61.8843 254 61.8843 255.1C61.8843 256.2 62.1093 257.045 62.5593 257.635C63.0193 258.215 63.6693 258.505 64.5093 258.505C65.3393 258.505 65.9793 258.215 66.4293 257.635C66.8893 257.045 67.1193 256.2 67.1193 255.1C67.1193 254 66.8893 253.16 66.4293 252.58C65.9793 251.99 65.3393 251.695 64.5093 251.695Z" fill="#1539CF"/>
<path d="M81.3574 260.05H78.9874L75.5224 254.23L74.6674 252.565H74.6524L74.7124 254.32V260.05H72.8524V250.15H75.2074L78.6724 255.955L79.5274 257.635H79.5574L79.4974 255.88V250.15H81.3574V260.05Z" fill="#1539CF"/>
<path d="M90.3913 260.05H87.9763L84.3613 250.15H86.5513L88.6363 256.45L89.2063 258.4L89.7613 256.465L91.8613 250.15H93.9913L90.3913 260.05Z" fill="#1539CF"/>
<path d="M104.625 258.385V260.05H96.9901V250.15H104.415V251.815H99.0601V254.275H103.275V255.865H99.0601V258.385H104.625Z" fill="#1539CF"/>
<path d="M111.882 256.255H110.022V260.05H107.982V250.15H112.347C113.477 250.15 114.357 250.42 114.987 250.96C115.627 251.49 115.947 252.24 115.947 253.21C115.947 253.92 115.772 254.515 115.422 254.995C115.072 255.475 114.572 255.82 113.922 256.03L116.532 260.05H114.207L111.882 256.255ZM110.022 254.68H112.077C112.677 254.68 113.117 254.565 113.397 254.335C113.687 254.095 113.832 253.73 113.832 253.24C113.832 252.75 113.687 252.39 113.397 252.16C113.117 251.92 112.677 251.8 112.077 251.8H110.022V254.68Z" fill="#1539CF"/>
<path d="M127.332 251.815H124.017V260.05H121.947V251.815H118.617V250.15H127.332V251.815Z" fill="#1539CF"/>
<path d="M132.593 260.05H130.523V250.15H132.593V260.05Z" fill="#1539CF"/>
<path d="M140.282 250C141.202 250 141.992 250.155 142.652 250.465C143.312 250.765 143.892 251.245 144.392 251.905L142.967 253.3C142.707 252.76 142.362 252.36 141.932 252.1C141.502 251.83 140.957 251.695 140.297 251.695C139.697 251.695 139.232 251.81 138.902 252.04C138.582 252.26 138.422 252.555 138.422 252.925C138.422 253.265 138.587 253.535 138.917 253.735C139.247 253.935 139.842 254.11 140.702 254.26C141.602 254.43 142.317 254.64 142.847 254.89C143.377 255.14 143.762 255.455 144.002 255.835C144.252 256.205 144.377 256.67 144.377 257.23C144.377 257.84 144.202 258.37 143.852 258.82C143.512 259.26 143.032 259.6 142.412 259.84C141.802 260.08 141.102 260.2 140.312 260.2C139.222 260.2 138.327 260.05 137.627 259.75C136.937 259.44 136.377 258.975 135.947 258.355L137.177 256.885C137.547 257.495 137.972 257.92 138.452 258.16C138.932 258.39 139.527 258.505 140.237 258.505C140.877 258.505 141.362 258.405 141.692 258.205C142.032 258.005 142.202 257.72 142.202 257.35C142.202 257.08 142.042 256.855 141.722 256.675C141.412 256.495 140.852 256.325 140.042 256.165C139.112 255.975 138.367 255.75 137.807 255.49C137.257 255.23 136.857 254.91 136.607 254.53C136.357 254.15 136.232 253.68 136.232 253.12C136.232 252.53 136.392 252 136.712 251.53C137.032 251.05 137.497 250.675 138.107 250.405C138.727 250.135 139.452 250 140.282 250Z" fill="#1539CF"/>
<path fill-rule="evenodd" clip-rule="evenodd" d="M95.2071 32.6358V20.05H97.2071V32.5285L103.479 25.8647L104.935 27.2354L96.2289 36.486L87 27.2572L88.4142 25.8429L95.2071 32.6358Z" fill="#1539CF"/>
<path fill-rule="evenodd" clip-rule="evenodd" d="M95.2071 32.6358V20.05H97.2071V32.5285L103.479 25.8647L104.935 27.2354L96.2289 36.486L87 27.2572L88.4142 25.8429L95.2071 32.6358Z" fill="#1539CF"/>
<path fill-rule="evenodd" clip-rule="evenodd" d="M95.2071 214.636V202.05H97.2071V214.528L103.479 207.865L104.935 209.235L96.2289 218.486L87 209.257L88.4142 207.843L95.2071 214.636Z" fill="#1539CF"/>
<path fill-rule="evenodd" clip-rule="evenodd" d="M19.7843 83.05L38.4695 117.05H152.778L173.047 83.05H19.7843ZM58.2539 153.05L39.5687 119.05H151.586L131.317 153.05H58.2539ZM58.2539 155.05V173.908L130.508 191.408V155.05H58.2539ZM18.6852 81.05H174.239L194.508 47.05H0L18.6852 81.05Z" fill="#1539CF"/>
<path d="M66.275 59.1001H64.73L65.57 56.7751H67.61L66.275 59.1001ZM69.635 68.3851V70.0501H62V60.1501H69.425V61.8151H64.07V64.2751H68.285V65.8651H64.07V68.3851H69.635Z" fill="white"/>
<path d="M80.8222 61.8151H77.5072V70.0501H75.4372V61.8151H72.1072V60.1501H80.8222V61.8151Z" fill="white"/>
<path d="M88.3057 67.6351H84.4957L83.6857 70.0501H81.5707L85.1857 60.1501H87.6607L91.2757 70.0501H89.1307L88.3057 67.6351ZM87.7957 66.1051L86.8657 63.3151L86.4157 61.8151H86.3857L85.9657 63.2851L85.0057 66.1051H87.7957Z" fill="white"/>
<path d="M98.3991 60.1501C99.5491 60.1501 100.444 60.4301 101.084 60.9901C101.724 61.5401 102.044 62.3201 102.044 63.3301C102.044 64.3101 101.724 65.0751 101.084 65.6251C100.444 66.1751 99.5491 66.4501 98.3991 66.4501H96.3141V70.0501H94.2441V60.1501H98.3991ZM98.0841 64.8451C98.7241 64.8451 99.1941 64.7201 99.4941 64.4701C99.7941 64.2101 99.9441 63.8251 99.9441 63.3151C99.9441 62.8051 99.7941 62.4251 99.4941 62.1751C99.1941 61.9251 98.7241 61.8001 98.0841 61.8001H96.3141V64.8451H98.0841Z" fill="white"/>
<path d="M113.076 68.3851V70.0501H105.441V60.1501H112.866V61.8151H107.511V64.2751H111.726V65.8651H107.511V68.3851H113.076Z" fill="white"/>
<path d="M126.198 60.1501V70.0501H124.188V62.6701C124.188 62.5101 124.193 62.3851 124.203 62.2951C123.843 62.6251 123.453 62.9051 123.033 63.1351C122.623 63.3651 122.208 63.5201 121.788 63.6001L121.518 61.8601C121.978 61.8101 122.528 61.6051 123.168 61.2451C123.818 60.8751 124.268 60.5101 124.518 60.1501H126.198Z" fill="white"/>
<path d="M65.275 94.375H63.73L64.57 92.05H66.61L65.275 94.375ZM68.635 103.66V105.325H61V95.425H68.425V97.09H63.07V99.55H67.285V101.14H63.07V103.66H68.635Z" fill="white"/>
<path d="M79.8222 97.09H76.5072V105.325H74.4372V97.09H71.1072V95.425H79.8222V97.09Z" fill="white"/>
<path d="M87.3057 102.91H83.4957L82.6857 105.325H80.5707L84.1857 95.425H86.6607L90.2757 105.325H88.1307L87.3057 102.91ZM86.7957 101.38L85.8657 98.59L85.4157 97.09H85.3857L84.9657 98.56L84.0057 101.38H86.7957Z" fill="white"/>
<path d="M97.3991 95.425C98.5491 95.425 99.4441 95.705 100.084 96.265C100.724 96.815 101.044 97.595 101.044 98.605C101.044 99.585 100.724 100.35 100.084 100.9C99.4441 101.45 98.5491 101.725 97.3991 101.725H95.3141V105.325H93.2441V95.425H97.3991ZM97.0841 100.12C97.7241 100.12 98.1941 99.995 98.4941 99.745C98.7941 99.485 98.9441 99.1 98.9441 98.59C98.9441 98.08 98.7941 97.7 98.4941 97.45C98.1941 97.2 97.7241 97.075 97.0841 97.075H95.3141V100.12H97.0841Z" fill="white"/>
<path d="M112.076 103.66V105.325H104.441V95.425H111.866V97.09H106.511V99.55H110.726V101.14H106.511V103.66H112.076Z" fill="white"/>
<path d="M121.204 103.915C122.414 103.105 123.374 102.395 124.084 101.785C124.794 101.175 125.309 100.61 125.629 100.09C125.949 99.57 126.109 99.055 126.109 98.545C126.109 98.075 125.964 97.695 125.674 97.405C125.394 97.115 125.004 96.97 124.504 96.97C123.954 96.97 123.519 97.16 123.199 97.54C122.879 97.92 122.704 98.46 122.674 99.16L120.889 98.485C120.959 97.485 121.329 96.7 121.999 96.13C122.669 95.56 123.544 95.275 124.624 95.275C125.394 95.275 126.044 95.42 126.574 95.71C127.114 96 127.519 96.385 127.789 96.865C128.059 97.335 128.194 97.855 128.194 98.425C128.194 99.355 127.844 100.235 127.144 101.065C126.444 101.885 125.329 102.765 123.799 103.705V103.72C124.379 103.68 124.984 103.66 125.614 103.66H128.344V105.325H121.204V103.915Z" fill="white"/>
<path d="M65.275 129.375H63.73L64.57 127.05H66.61L65.275 129.375ZM68.635 138.66V140.325H61V130.425H68.425V132.09H63.07V134.55H67.285V136.14H63.07V138.66H68.635Z" fill="white"/>
<path d="M79.8222 132.09H76.5072V140.325H74.4372V132.09H71.1072V130.425H79.8222V132.09Z" fill="white"/>
<path d="M87.3057 137.91H83.4957L82.6857 140.325H80.5707L84.1857 130.425H86.6607L90.2757 140.325H88.1307L87.3057 137.91ZM86.7957 136.38L85.8657 133.59L85.4157 132.09H85.3857L84.9657 133.56L84.0057 136.38H86.7957Z" fill="white"/>
<path d="M97.3991 130.425C98.5491 130.425 99.4441 130.705 100.084 131.265C100.724 131.815 101.044 132.595 101.044 133.605C101.044 134.585 100.724 135.35 100.084 135.9C99.4441 136.45 98.5491 136.725 97.3991 136.725H95.3141V140.325H93.2441V130.425H97.3991ZM97.0841 135.12C97.7241 135.12 98.1941 134.995 98.4941 134.745C98.7941 134.485 98.9441 134.1 98.9441 133.59C98.9441 133.08 98.7941 132.7 98.4941 132.45C98.1941 132.2 97.7241 132.075 97.0841 132.075H95.3141V135.12H97.0841Z" fill="white"/>
<path d="M112.076 138.66V140.325H104.441V130.425H111.866V132.09H106.511V134.55H110.726V136.14H106.511V138.66H112.076Z" fill="white"/>
<path d="M124.669 130.275C125.729 130.275 126.554 130.525 127.144 131.025C127.744 131.525 128.044 132.175 128.044 132.975C128.044 133.465 127.944 133.89 127.744 134.25C127.544 134.6 127.299 134.865 127.009 135.045C126.719 135.225 126.444 135.315 126.184 135.315V135.36C126.514 135.36 126.834 135.445 127.144 135.615C127.464 135.785 127.724 136.045 127.924 136.395C128.134 136.735 128.239 137.15 128.239 137.64C128.239 138.19 128.079 138.68 127.759 139.11C127.449 139.54 127.014 139.875 126.454 140.115C125.894 140.355 125.254 140.475 124.534 140.475C123.564 140.475 122.769 140.28 122.149 139.89C121.539 139.49 121.094 138.875 120.814 138.045L122.689 137.205C122.799 137.755 122.999 138.16 123.289 138.42C123.589 138.68 124.009 138.81 124.549 138.81C125.059 138.81 125.464 138.685 125.764 138.435C126.064 138.175 126.214 137.83 126.214 137.4C126.214 136.94 126.069 136.61 125.779 136.41C125.499 136.2 125.054 136.095 124.444 136.095H123.949V134.655H124.369C125.449 134.655 125.989 134.2 125.989 133.29C125.989 132.85 125.864 132.515 125.614 132.285C125.374 132.055 125.029 131.94 124.579 131.94C124.119 131.94 123.749 132.06 123.469 132.3C123.189 132.54 123.014 132.89 122.944 133.35L121.099 132.675C121.289 131.885 121.699 131.29 122.329 130.89C122.969 130.48 123.749 130.275 124.669 130.275Z" fill="white"/>
</svg>
