<svg xmlns="http://www.w3.org/2000/svg" enable-background="new 0 0 195 255" viewBox="0 0 195 255"><path fill="#1539cf" fill-rule="evenodd" d="M95.2 32.6V20h2v12.5l6.3-6.7 1.5 1.4-8.7 9.3-9.3-9.2 1.4-1.4z" clip-rule="evenodd"/><path fill="#1539cf" d="M194.5 47l-20.8 35-.6 1H19.8l-.6-1L0 47z"/><path d="M173.7 82l-.6 1h-.1l-20.2 34.4-.5 1H38.9l-.4-1L19.8 83l-.6-1zM132.5 153.8v37.6l-76.3-17.6v-20z"/><path fill="#1539cf" d="M152.3 118l-19.8 36H56.2l-17.3-36z"/><path fill="#fff" d="M65.1 68.6v-2.5h4.2v-1.6h-4.2V62h5.4v-1.7H63v9.9h7.6v-1.7zM66.6 57l-.8 2.3h1.6l1.3-2.3zM81.8 62h-3.3v8.2h-2.1V62h-3.3v-1.7h8.7zM88.7 60.4h-2.5l-3.6 9.9h2.1l.8-2.4h3.8l.8 2.4h2.2zM86 66.3l1-2.8.4-1.5.5 1.5.9 2.8zM102.1 61.2c-.6-.6-1.5-.8-2.7-.8h-4.2v9.9h2.1v-3.6h2.1c1.1 0 2-.3 2.7-.8.6-.5 1-1.3 1-2.3-.1-1.1-.4-1.8-1-2.4zm-1.6 3.5c-.3.2-.8.4-1.4.4h-1.8v-3h1.8c.6 0 1.1.1 1.4.4s.5.6.5 1.1c-.1.4-.2.8-.5 1.1zM114.1 68.6v1.7h-7.6v-9.9h7.4V62h-5.4v2.5h4.2v1.6h-4.2v2.5zM127.2 60.4v9.9h-2v-7.4c0-.2 0-.3 0-.4-.4.3-.8.6-1.2.8s-.8.4-1.2.5l-.3-1.7c.5 0 1-.3 1.7-.6.7-.4 1.1-.7 1.3-1.1zM64.1 103.6v-2.5h4.2v-1.6h-4.2V97h5.4v-1.7H62v9.9h7.6v-1.7zM65.6 92l-.8 2.3h1.6l1.3-2.3zM80.8 97h-3.3v8.2h-2.1V97h-3.3v-1.7h8.7zM87.7 95.4h-2.5l-3.6 9.9h2.1l.8-2.4h3.8l.8 2.4h2.2zm-2.7 5.9l1-2.8.4-1.5.5 1.5.9 2.8zM101.1 96.2c-.6-.6-1.5-.8-2.7-.8h-4.2v9.9h2.1v-3.6h2.1c1.1 0 2-.3 2.7-.8.6-.5 1-1.3 1-2.3-.1-1.1-.4-1.8-1-2.4zm-1.6 3.5c-.3.2-.8.4-1.4.4h-1.8v-3h1.8c.6 0 1.1.1 1.4.4s.5.6.5 1.1c-.1.4-.2.8-.5 1.1zM113.1 103.6v1.7h-7.6v-9.9h7.4V97h-5.4v2.5h4.2v1.6h-4.2v2.5zM122.2 103.9c1.2-.8 2.2-1.5 2.9-2.1s1.2-1.2 1.5-1.7.5-1 .5-1.5-.1-.8-.4-1.1-.7-.4-1.2-.4c-.6 0-1 .2-1.3.6s-.5.9-.5 1.6l-1.8-.7c.1-1 .4-1.8 1.1-2.4s1.5-.9 2.6-.9c.8 0 1.4.1 1.9.4s.9.7 1.2 1.2.4 1 .4 1.6c0 .9-.4 1.8-1.1 2.6s-1.8 1.7-3.3 2.6c.6 0 1.2-.1 1.8-.1h2.7v1.7h-7.1zM64.1 139.6v-2.5h4.2v-1.6h-4.2V133h5.4v-1.7H62v9.9h7.6v-1.7h-5.5zm1.5-11.6l-.8 2.3h1.6l1.3-2.3zM80.8 133h-3.3v8.2h-2.1V133h-3.3v-1.7h8.7zM87.7 131.4h-2.5l-3.6 9.9h2.1l.8-2.4h3.8l.8 2.4h2.2zm-2.7 5.9l1-2.8.4-1.5.5 1.5.9 2.8zM101.1 132.2c-.6-.6-1.5-.8-2.7-.8h-4.2v9.9h2.1v-3.6h2.1c1.1 0 2-.3 2.7-.8.6-.5 1-1.3 1-2.3-.1-1.1-.4-1.8-1-2.4zm-1.6 3.5c-.3.2-.8.4-1.4.4h-1.8v-3h1.8c.6 0 1.1.1 1.4.4s.5.6.5 1.1c-.1.4-.2.8-.5 1.1zM113.1 139.6v1.7h-7.6v-9.9h7.4v1.7h-5.4v2.5h4.2v1.6h-4.2v2.5h5.6zM125.7 131.2c1.1 0 1.9.2 2.5.8.6.5.9 1.1.9 1.9 0 .5-.1.9-.3 1.3s-.4.6-.7.8-.6.3-.8.3c.3 0 .7.1 1 .3s.6.4.8.8c.2.3.3.8.3 1.2 0 .6-.2 1-.5 1.5-.3.4-.7.8-1.3 1s-1.2.4-1.9.4c-1 0-1.8-.2-2.4-.6s-1.1-1-1.3-1.8l1.9-.8c.1.6.3 1 .6 1.2.3.3.7.4 1.3.4.5 0 .9-.1 1.2-.4s.4-.6.4-1c0-.5-.1-.8-.4-1s-.7-.3-1.3-.3h-.5v-1.4h.4c1.1 0 1.6-.5 1.6-1.4 0-.4-.1-.8-.4-1-.2-.2-.6-.3-1-.3-.5 0-.8.1-1.1.4s-.5.6-.5 1.1l-1.8-.7c.2-.8.6-1.4 1.2-1.8.4-.7 1.1-.9 2.1-.9z"/><g fill="#1539cf"><path fill-rule="evenodd" d="M95.2 208.6V196h2v12.5l6.3-6.7 1.5 1.4-8.7 9.3-9.2-9.2 1.4-1.4z" clip-rule="evenodd"/><path d="M57 10.1h-2.4L51 .2h2.2l2.1 6.3.6 1.9.6-1.9L58.6.2h2.1zM65.7 10.1h-2.1V.2h2.1zM73.4 0c.9 0 1.7.2 2.4.5s1.2.8 1.7 1.4l-1.4 1.4c-.3-.5-.6-.9-1-1.2s-1-.4-1.6-.4-1.1.1-1.4.3-.5.5-.5.9c0 .3.2.6.5.8s.9.4 1.8.5c.9.2 1.6.4 2.1.6s.9.6 1.2.9c.2.4.4.8.4 1.4s-.2 1.1-.5 1.6c-.3.4-.8.8-1.4 1s-1.3.4-2.1.4c-1.1 0-2-.1-2.7-.4-.9-.3-1.4-.7-1.8-1.3l1.2-1.5c.4.6.8 1 1.3 1.3.5.2 1.1.3 1.8.3.6 0 1.1-.1 1.5-.3.3-.2.5-.5.5-.9 0-.3-.2-.5-.5-.7s-.9-.3-1.7-.5c-.9-.2-1.7-.4-2.2-.7-.6-.3-.9-.6-1.2-1s-.4-.8-.4-1.4.2-1.1.5-1.6.8-.9 1.4-1.1c.5-.2 1.3-.3 2.1-.3zM83 10.1h-2.1V.2H83zM94.9 1.8h-3.3V10h-2.1V1.8h-3.3V.1h8.7zM105.7 8.4v1.7h-7.6V.2h7.4v1.7h-5.4v2.5h4.2V6h-4.2v2.5h5.6zM117.4 6.2c0 1.3-.4 2.3-1.1 3s-1.8 1-3.2 1-2.4-.3-3.2-1c-.7-.7-1.1-1.7-1.1-3v-6h2.1v5.9c0 .8.2 1.4.5 1.8.4.4.9.6 1.6.6s1.3-.2 1.6-.6.5-1 .5-1.8V.2h2.1v6zM125.2 6.3h-1.9v3.8h-2V.2h4.4c1.1 0 2 .3 2.6.8s1 1.3 1 2.2c0 .7-.2 1.3-.5 1.8s-.8.8-1.5 1l2.6 4h-2.3zm-1.9-1.6h2.1c.6 0 1-.1 1.3-.3s.4-.6.4-1.1-.1-.9-.4-1.1-.7-.4-1.3-.4h-2.1zM136.6 0c.9 0 1.7.2 2.4.5s1.2.8 1.7 1.4l-1.4 1.4c-.3-.5-.6-.9-1-1.2s-1-.4-1.6-.4-1.1.1-1.4.3-.5.5-.5.9c0 .3.2.6.5.8s.9.4 1.8.5c.9.2 1.6.4 2.1.6s.9.6 1.2.9c.2.4.4.8.4 1.4s-.2 1.1-.5 1.6c-.3.4-.8.8-1.4 1s-1.3.4-2.1.4c-1.1 0-2-.1-2.7-.4s-1.2-.8-1.7-1.4l1.2-1.5c.4.6.8 1 1.3 1.3.5.2 1.1.3 1.8.3.6 0 1.1-.1 1.5-.3.3-.2.5-.5.5-.9 0-.3-.2-.5-.5-.7s-.9-.3-1.7-.5c-.9-.2-1.7-.4-2.2-.7-.6-.3-.9-.6-1.2-1s-.4-.8-.4-1.4.2-1.1.5-1.6.8-.9 1.4-1.1c.4-.1 1.2-.2 2-.2zM57.1 233.1h-2.4l-3.6-9.9h2.2l2.1 6.3.6 1.9.6-1.9 2.1-6.3h2.1zM65.7 233.1h-2.1v-9.9h2.1zM73.4 223c.9 0 1.7.2 2.4.5s1.2.8 1.7 1.4l-1.4 1.4c-.3-.5-.6-.9-1-1.2s-1-.4-1.6-.4-1.1.1-1.4.3-.5.5-.5.9c0 .3.2.6.5.8s.9.4 1.8.5c.9.2 1.6.4 2.1.6s.9.6 1.2.9c.2.4.4.8.4 1.4s-.2 1.1-.5 1.6c-.3.4-.8.8-1.4 1s-1.3.4-2.1.4c-1.1 0-2-.1-2.7-.4s-1.2-.8-1.7-1.4l1.2-1.5c.4.6.8 1 1.3 1.3.5.2 1.1.3 1.8.3.6 0 1.1-.1 1.5-.3.3-.2.5-.5.5-.9 0-.3-.2-.5-.5-.7s-.9-.4-1.7-.5c-.9-.2-1.7-.4-2.2-.7-.6-.3-.9-.6-1.2-1s-.4-.9-.4-1.4c0-.6.2-1.1.5-1.6s.8-.9 1.4-1.1c.5-.1 1.2-.2 2-.2zM83 233.1h-2v-9.9h2zM94.9 224.8h-3.3v8.2h-2.1v-8.2h-3.3v-1.7h8.7zM105.8 231.4v1.7h-7.6v-9.9h7.4v1.7h-5.4v2.5h4.2v1.6h-4.2v2.5h5.6zM117.4 229.1c0 1.3-.4 2.4-1.1 3-.7.7-1.8 1-3.2 1s-2.4-.3-3.2-1c-.7-.7-1.1-1.7-1.1-3v-6h2.1v5.9c0 .8.2 1.4.5 1.8.4.4.9.6 1.6.6s1.3-.2 1.6-.6.5-1 .5-1.8v-5.9h2.1v6zM125.2 229.3h-1.9v3.8h-2v-9.9h4.4c1.1 0 2 .3 2.6.8s1 1.3 1 2.2c0 .7-.2 1.3-.5 1.8s-.8.8-1.5 1l2.6 4h-2.3zm-1.8-1.6h2.1c.6 0 1-.1 1.3-.3s.4-.6.4-1.1-.1-.9-.4-1.1-.7-.4-1.3-.4h-2.1zM136.6 223c.9 0 1.7.2 2.4.5s1.2.8 1.7 1.4l-1.4 1.4c-.3-.5-.6-.9-1-1.2s-1-.4-1.6-.4-1.1.1-1.4.3-.5.5-.5.9c0 .3.2.6.5.8s.9.4 1.8.5c.9.2 1.6.4 2.1.6s.9.6 1.2.9c.2.4.4.8.4 1.4s-.2 1.1-.5 1.6c-.3.4-.8.8-1.4 1s-1.3.4-2.1.4c-1.1 0-2-.1-2.7-.4s-1.2-.8-1.7-1.4l1.2-1.5c.4.6.8 1 1.3 1.3.5.2 1.1.3 1.8.3.6 0 1.1-.1 1.5-.3.3-.2.5-.5.5-.9 0-.3-.2-.5-.5-.7s-.9-.4-1.7-.5c-.9-.2-1.7-.4-2.2-.7-.6-.3-.9-.6-1.2-1s-.4-.9-.4-1.4c0-.6.2-1.1.5-1.6s.8-.9 1.4-1.1c.5-.1 1.2-.2 2-.2zM57 251.3c-.3.9-.8 1.7-1.5 2.2s-1.6.7-2.7.7c-1 0-1.8-.2-2.5-.6s-1.3-1-1.7-1.8-.6-1.7-.6-2.7.2-2 .6-2.7c.4-.8.9-1.4 1.7-1.8.7-.4 1.6-.6 2.5-.6 1 0 1.9.2 2.6.6s1.2 1.1 1.5 1.9l-1.9.8c-.2-.6-.4-1-.8-1.3s-.8-.4-1.4-.4c-.8 0-1.5.3-2 .9s-.7 1.4-.7 2.5.2 1.9.7 2.5 1.1.9 2 .9c1.2 0 2-.6 2.3-1.8zM64.5 244c1 0 1.8.2 2.5.6s1.3 1 1.7 1.8.6 1.7.6 2.7-.2 2-.6 2.7c-.4.8-.9 1.3-1.7 1.8-.7.4-1.6.6-2.5.6s-1.8-.2-2.5-.6-1.3-1-1.7-1.8-.6-1.7-.6-2.7.2-2 .6-2.7c.4-.8.9-1.4 1.7-1.8s1.5-.6 2.5-.6zm0 1.7c-.8 0-1.5.3-2 .9s-.7 1.4-.7 2.5.2 1.9.7 2.5 1.1.9 2 .9c.8 0 1.5-.3 1.9-.9.5-.6.7-1.4.7-2.5s-.2-1.9-.7-2.5c-.4-.6-1.1-.9-1.9-.9zM81.4 254.1H79l-3.5-5.8-.9-1.7.1 1.8v5.7h-1.9v-9.9h2.4l3.5 5.8.9 1.7-.1-1.8v-5.7h1.9zM90.4 254.1H88l-3.6-9.9h2.2l2.1 6.3.6 1.9.6-1.9 2.1-6.3h2zM104.6 252.4v1.7H97v-9.9h7.4v1.7H99v2.5h4.2v1.6H99v2.5h5.6zM111.9 250.3H110v3.8h-2v-9.9h4.4c1.1 0 2 .3 2.6.8s1 1.3 1 2.2c0 .7-.2 1.3-.5 1.8s-.8.8-1.5 1l2.6 4h-2.3zm-1.9-1.6h2.1c.6 0 1-.1 1.3-.3s.4-.6.4-1.1-.1-.9-.4-1.1-.7-.4-1.3-.4H110zM127.3 245.8H124v8.2h-2.1v-8.2h-3.3v-1.7h8.7zM132.6 254.1h-2.1v-9.9h2.1zM140.3 244c.9 0 1.7.2 2.4.5s1.2.8 1.7 1.4l-1.4 1.4c-.3-.5-.6-.9-1-1.2s-1-.4-1.6-.4-1.1.1-1.4.3-.5.5-.5.9c0 .3.2.6.5.8s.9.4 1.8.5c.9.2 1.6.4 2.1.6s.9.6 1.2.9c.2.4.4.8.4 1.4s-.2 1.1-.5 1.6c-.3.4-.8.8-1.4 1s-1.3.4-2.1.4c-1.1 0-2-.1-2.7-.4s-1.2-.8-1.7-1.4l1.2-1.5c.4.6.8 1 1.3 1.3.5.2 1.1.3 1.8.3.6 0 1.1-.1 1.5-.3.3-.2.5-.5.5-.9 0-.3-.2-.5-.5-.7s-.9-.4-1.7-.5c-.9-.2-1.7-.4-2.2-.7-.6-.3-.9-.6-1.2-1s-.4-.9-.4-1.4c0-.6.2-1.1.5-1.6s.8-.9 1.4-1.1c.4-.1 1.2-.2 2-.2z"/></g></svg>