<svg width="195" height="255" viewBox="0 0 195 255" fill="none" xmlns="http://www.w3.org/2000/svg">
<path fill-rule="evenodd" clip-rule="evenodd" d="M95.2071 32.6358V20.05H97.2071V32.5285L103.479 25.8647L104.935 27.2354L96.2289 36.486L87 27.2572L88.4142 25.8429L95.2071 32.6358Z" fill="#1539CF"/>
<mask id="mask0" mask-type="alpha" maskUnits="userSpaceOnUse" x="0" y="47" width="195" height="145">
<path fill-rule="evenodd" clip-rule="evenodd" d="M19.7843 83.05L38.4695 117.05H152.778L173.047 83.05H19.7843ZM56.2539 154.05L38.4695 117.05H152.778L132.508 154.05H56.2539ZM56.2539 154.05V173.908L132.508 191.408V154.05H56.2539ZM19.7843 83.05H173.047L194.508 47.05H0L19.7843 83.05Z" fill="#0D2DB5"/>
</mask>
<g mask="url(#mask0)">
<rect x="-5" y="47" width="205" height="36" fill="#1539CF"/>
<rect x="-5" y="82" width="205" height="36" fill="#0D2DB5"/>
<path d="M-5 154H200V193H-5V154Z" fill="#0D2DB5"/>
<rect x="-5" y="118" width="205" height="36" fill="#1539CF"/>
<path d="M67.275 59.325H65.73L66.57 57H68.61L67.275 59.325ZM70.635 68.61V70.275H63V60.375H70.425V62.04H65.07V64.5H69.285V66.09H65.07V68.61H70.635Z" fill="white"/>
<path d="M81.8222 62.04H78.5072V70.275H76.4372V62.04H73.1072V60.375H81.8222V62.04Z" fill="white"/>
<path d="M89.3057 67.86H85.4957L84.6857 70.275H82.5707L86.1857 60.375H88.6607L92.2757 70.275H90.1307L89.3057 67.86ZM88.7957 66.33L87.8657 63.54L87.4157 62.04H87.3857L86.9657 63.51L86.0057 66.33H88.7957Z" fill="white"/>
<path d="M99.3991 60.375C100.549 60.375 101.444 60.655 102.084 61.215C102.724 61.765 103.044 62.545 103.044 63.555C103.044 64.535 102.724 65.3 102.084 65.85C101.444 66.4 100.549 66.675 99.3991 66.675H97.3141V70.275H95.2441V60.375H99.3991ZM99.0841 65.07C99.7241 65.07 100.194 64.945 100.494 64.695C100.794 64.435 100.944 64.05 100.944 63.54C100.944 63.03 100.794 62.65 100.494 62.4C100.194 62.15 99.7241 62.025 99.0841 62.025H97.3141V65.07H99.0841Z" fill="white"/>
<path d="M114.076 68.61V70.275H106.441V60.375H113.866V62.04H108.511V64.5H112.726V66.09H108.511V68.61H114.076Z" fill="white"/>
<path d="M127.198 60.375V70.275H125.188V62.895C125.188 62.735 125.193 62.61 125.203 62.52C124.843 62.85 124.453 63.13 124.033 63.36C123.623 63.59 123.208 63.745 122.788 63.825L122.518 62.085C122.978 62.035 123.528 61.83 124.168 61.47C124.818 61.1 125.268 60.735 125.518 60.375H127.198Z" fill="white"/>
<path d="M66.275 94.325H64.73L65.57 92H67.61L66.275 94.325ZM69.635 103.61V105.275H62V95.375H69.425V97.04H64.07V99.5H68.285V101.09H64.07V103.61H69.635Z" fill="white"/>
<path d="M80.8222 97.04H77.5072V105.275H75.4372V97.04H72.1072V95.375H80.8222V97.04Z" fill="white"/>
<path d="M88.3057 102.86H84.4957L83.6857 105.275H81.5707L85.1857 95.375H87.6607L91.2757 105.275H89.1307L88.3057 102.86ZM87.7957 101.33L86.8657 98.54L86.4157 97.04H86.3857L85.9657 98.51L85.0057 101.33H87.7957Z" fill="white"/>
<path d="M98.3991 95.375C99.5491 95.375 100.444 95.655 101.084 96.215C101.724 96.765 102.044 97.545 102.044 98.555C102.044 99.535 101.724 100.3 101.084 100.85C100.444 101.4 99.5491 101.675 98.3991 101.675H96.3141V105.275H94.2441V95.375H98.3991ZM98.0841 100.07C98.7241 100.07 99.1941 99.945 99.4941 99.695C99.7941 99.435 99.9441 99.05 99.9441 98.54C99.9441 98.03 99.7941 97.65 99.4941 97.4C99.1941 97.15 98.7241 97.025 98.0841 97.025H96.3141V100.07H98.0841Z" fill="white"/>
<path d="M113.076 103.61V105.275H105.441V95.375H112.866V97.04H107.511V99.5H111.726V101.09H107.511V103.61H113.076Z" fill="white"/>
<path d="M122.204 103.865C123.414 103.055 124.374 102.345 125.084 101.735C125.794 101.125 126.309 100.56 126.629 100.04C126.949 99.52 127.109 99.005 127.109 98.495C127.109 98.025 126.964 97.645 126.674 97.355C126.394 97.065 126.004 96.92 125.504 96.92C124.954 96.92 124.519 97.11 124.199 97.49C123.879 97.87 123.704 98.41 123.674 99.11L121.889 98.435C121.959 97.435 122.329 96.65 122.999 96.08C123.669 95.51 124.544 95.225 125.624 95.225C126.394 95.225 127.044 95.37 127.574 95.66C128.114 95.95 128.519 96.335 128.789 96.815C129.059 97.285 129.194 97.805 129.194 98.375C129.194 99.305 128.844 100.185 128.144 101.015C127.444 101.835 126.329 102.715 124.799 103.655V103.67C125.379 103.63 125.984 103.61 126.614 103.61H129.344V105.275H122.204V103.865Z" fill="white"/>
<path d="M66.275 130.325H64.73L65.57 128H67.61L66.275 130.325ZM69.635 139.61V141.275H62V131.375H69.425V133.04H64.07V135.5H68.285V137.09H64.07V139.61H69.635Z" fill="white"/>
<path d="M80.8222 133.04H77.5072V141.275H75.4372V133.04H72.1072V131.375H80.8222V133.04Z" fill="white"/>
<path d="M88.3057 138.86H84.4957L83.6857 141.275H81.5707L85.1857 131.375H87.6607L91.2757 141.275H89.1307L88.3057 138.86ZM87.7957 137.33L86.8657 134.54L86.4157 133.04H86.3857L85.9657 134.51L85.0057 137.33H87.7957Z" fill="white"/>
<path d="M98.3991 131.375C99.5491 131.375 100.444 131.655 101.084 132.215C101.724 132.765 102.044 133.545 102.044 134.555C102.044 135.535 101.724 136.3 101.084 136.85C100.444 137.4 99.5491 137.675 98.3991 137.675H96.3141V141.275H94.2441V131.375H98.3991ZM98.0841 136.07C98.7241 136.07 99.1941 135.945 99.4941 135.695C99.7941 135.435 99.9441 135.05 99.9441 134.54C99.9441 134.03 99.7941 133.65 99.4941 133.4C99.1941 133.15 98.7241 133.025 98.0841 133.025H96.3141V136.07H98.0841Z" fill="white"/>
<path d="M113.076 139.61V141.275H105.441V131.375H112.866V133.04H107.511V135.5H111.726V137.09H107.511V139.61H113.076Z" fill="white"/>
<path d="M125.669 131.225C126.729 131.225 127.554 131.475 128.144 131.975C128.744 132.475 129.044 133.125 129.044 133.925C129.044 134.415 128.944 134.84 128.744 135.2C128.544 135.55 128.299 135.815 128.009 135.995C127.719 136.175 127.444 136.265 127.184 136.265V136.31C127.514 136.31 127.834 136.395 128.144 136.565C128.464 136.735 128.724 136.995 128.924 137.345C129.134 137.685 129.239 138.1 129.239 138.59C129.239 139.14 129.079 139.63 128.759 140.06C128.449 140.49 128.014 140.825 127.454 141.065C126.894 141.305 126.254 141.425 125.534 141.425C124.564 141.425 123.769 141.23 123.149 140.84C122.539 140.44 122.094 139.825 121.814 138.995L123.689 138.155C123.799 138.705 123.999 139.11 124.289 139.37C124.589 139.63 125.009 139.76 125.549 139.76C126.059 139.76 126.464 139.635 126.764 139.385C127.064 139.125 127.214 138.78 127.214 138.35C127.214 137.89 127.069 137.56 126.779 137.36C126.499 137.15 126.054 137.045 125.444 137.045H124.949V135.605H125.369C126.449 135.605 126.989 135.15 126.989 134.24C126.989 133.8 126.864 133.465 126.614 133.235C126.374 133.005 126.029 132.89 125.579 132.89C125.119 132.89 124.749 133.01 124.469 133.25C124.189 133.49 124.014 133.84 123.944 134.3L122.099 133.625C122.289 132.835 122.699 132.24 123.329 131.84C123.969 131.43 124.749 131.225 125.669 131.225Z" fill="white"/>
</g>
<path fill-rule="evenodd" clip-rule="evenodd" d="M95.2071 208.636V196.05H97.2071V208.528L103.479 201.865L104.935 203.235L96.2289 212.486L87 203.257L88.4142 201.843L95.2071 208.636Z" fill="#1539CF"/>
<path d="M57.03 10.05H54.615L51 0.15H53.19L55.275 6.45L55.845 8.4L56.4 6.465L58.5 0.15H60.63L57.03 10.05Z" fill="#1539CF"/>
<path d="M65.6988 10.05H63.6288V0.15H65.6988V10.05Z" fill="#1539CF"/>
<path d="M73.3874 0C74.3074 0 75.0974 0.155 75.7574 0.464999C76.4174 0.765 76.9974 1.245 77.4974 1.905L76.0724 3.3C75.8124 2.76 75.4674 2.36 75.0374 2.1C74.6074 1.83 74.0624 1.695 73.4024 1.695C72.8024 1.695 72.3374 1.81 72.0074 2.04C71.6874 2.26 71.5274 2.555 71.5274 2.925C71.5274 3.265 71.6924 3.535 72.0224 3.735C72.3524 3.935 72.9474 4.11 73.8074 4.26C74.7074 4.43 75.4224 4.64 75.9524 4.89C76.4824 5.14 76.8674 5.455 77.1074 5.835C77.3574 6.205 77.4824 6.67 77.4824 7.23C77.4824 7.84 77.3074 8.37 76.9574 8.82C76.6174 9.26 76.1374 9.6 75.5174 9.84C74.9074 10.08 74.2074 10.2 73.4174 10.2C72.3274 10.2 71.4324 10.05 70.7324 9.75C70.0424 9.44 69.4824 8.975 69.0524 8.355L70.2824 6.885C70.6524 7.495 71.0774 7.92 71.5574 8.16C72.0374 8.39 72.6324 8.505 73.3424 8.505C73.9824 8.505 74.4674 8.405 74.7974 8.205C75.1374 8.005 75.3074 7.72 75.3074 7.35C75.3074 7.08 75.1474 6.855 74.8274 6.675C74.5174 6.495 73.9574 6.325 73.1474 6.165C72.2174 5.975 71.4724 5.75 70.9124 5.49C70.3624 5.23 69.9624 4.91 69.7124 4.53C69.4624 4.15 69.3374 3.68 69.3374 3.12C69.3374 2.53 69.4974 2 69.8174 1.53C70.1374 1.05 70.6024 0.675 71.2124 0.405C71.8324 0.135 72.5574 0 73.3874 0Z" fill="#1539CF"/>
<path d="M82.9811 10.05H80.9111V0.15H82.9811V10.05Z" fill="#1539CF"/>
<path d="M94.8846 1.815H91.5696V10.05H89.4996V1.815H86.1696V0.15H94.8846V1.815Z" fill="#1539CF"/>
<path d="M105.711 8.385V10.05H98.0761V0.15H105.501V1.815H100.146V4.275H104.361V5.865H100.146V8.385H105.711Z" fill="#1539CF"/>
<path d="M117.378 6.15C117.378 7.49 117.018 8.5 116.298 9.18C115.588 9.86 114.538 10.2 113.148 10.2C111.758 10.2 110.703 9.86 109.983 9.18C109.273 8.5 108.918 7.49 108.918 6.15V0.15H110.988V6.06C110.988 6.89 111.163 7.505 111.513 7.905C111.873 8.305 112.418 8.505 113.148 8.505C113.878 8.505 114.418 8.305 114.768 7.905C115.118 7.505 115.293 6.89 115.293 6.06V0.15H117.378V6.15Z" fill="#1539CF"/>
<path d="M125.191 6.255H123.331V10.05H121.291V0.15H125.656C126.786 0.15 127.666 0.42 128.296 0.96C128.936 1.49 129.256 2.24 129.256 3.21C129.256 3.92 129.081 4.515 128.731 4.995C128.381 5.475 127.881 5.82 127.231 6.03L129.841 10.05H127.516L125.191 6.255ZM123.331 4.68H125.386C125.986 4.68 126.426 4.565 126.706 4.335C126.996 4.095 127.141 3.73 127.141 3.24C127.141 2.75 126.996 2.39 126.706 2.16C126.426 1.92 125.986 1.8 125.386 1.8H123.331V4.68Z" fill="#1539CF"/>
<path d="M136.601 0C137.521 0 138.311 0.155 138.971 0.464999C139.631 0.765 140.211 1.245 140.711 1.905L139.286 3.3C139.026 2.76 138.681 2.36 138.251 2.1C137.821 1.83 137.276 1.695 136.616 1.695C136.016 1.695 135.551 1.81 135.221 2.04C134.901 2.26 134.741 2.555 134.741 2.925C134.741 3.265 134.906 3.535 135.236 3.735C135.566 3.935 136.161 4.11 137.021 4.26C137.921 4.43 138.636 4.64 139.166 4.89C139.696 5.14 140.081 5.455 140.321 5.835C140.571 6.205 140.696 6.67 140.696 7.23C140.696 7.84 140.521 8.37 140.171 8.82C139.831 9.26 139.351 9.6 138.731 9.84C138.121 10.08 137.421 10.2 136.631 10.2C135.541 10.2 134.646 10.05 133.946 9.75C133.256 9.44 132.696 8.975 132.266 8.355L133.496 6.885C133.866 7.495 134.291 7.92 134.771 8.16C135.251 8.39 135.846 8.505 136.556 8.505C137.196 8.505 137.681 8.405 138.011 8.205C138.351 8.005 138.521 7.72 138.521 7.35C138.521 7.08 138.361 6.855 138.041 6.675C137.731 6.495 137.171 6.325 136.361 6.165C135.431 5.975 134.686 5.75 134.126 5.49C133.576 5.23 133.176 4.91 132.926 4.53C132.676 4.15 132.551 3.68 132.551 3.12C132.551 2.53 132.711 2 133.031 1.53C133.351 1.05 133.816 0.675 134.426 0.405C135.046 0.135 135.771 0 136.601 0Z" fill="#1539CF"/>
<path d="M57.0778 233.05H54.6628L51.0478 223.15H53.2378L55.3228 229.45L55.8928 231.4L56.4478 229.465L58.5478 223.15H60.6778L57.0778 233.05Z" fill="#1539CF"/>
<path d="M65.7466 233.05H63.6766V223.15H65.7466V233.05Z" fill="#1539CF"/>
<path d="M73.4352 223C74.3552 223 75.1452 223.155 75.8052 223.465C76.4652 223.765 77.0452 224.245 77.5452 224.905L76.1202 226.3C75.8602 225.76 75.5152 225.36 75.0852 225.1C74.6552 224.83 74.1102 224.695 73.4502 224.695C72.8502 224.695 72.3852 224.81 72.0552 225.04C71.7352 225.26 71.5752 225.555 71.5752 225.925C71.5752 226.265 71.7402 226.535 72.0702 226.735C72.4002 226.935 72.9952 227.11 73.8552 227.26C74.7552 227.43 75.4702 227.64 76.0002 227.89C76.5302 228.14 76.9152 228.455 77.1552 228.835C77.4052 229.205 77.5302 229.67 77.5302 230.23C77.5302 230.84 77.3552 231.37 77.0052 231.82C76.6652 232.26 76.1852 232.6 75.5652 232.84C74.9552 233.08 74.2552 233.2 73.4652 233.2C72.3752 233.2 71.4802 233.05 70.7802 232.75C70.0902 232.44 69.5302 231.975 69.1002 231.355L70.3302 229.885C70.7002 230.495 71.1252 230.92 71.6052 231.16C72.0852 231.39 72.6802 231.505 73.3902 231.505C74.0302 231.505 74.5152 231.405 74.8452 231.205C75.1852 231.005 75.3552 230.72 75.3552 230.35C75.3552 230.08 75.1952 229.855 74.8752 229.675C74.5652 229.495 74.0052 229.325 73.1952 229.165C72.2652 228.975 71.5202 228.75 70.9602 228.49C70.4102 228.23 70.0102 227.91 69.7602 227.53C69.5102 227.15 69.3852 226.68 69.3852 226.12C69.3852 225.53 69.5452 225 69.8652 224.53C70.1852 224.05 70.6502 223.675 71.2602 223.405C71.8802 223.135 72.6052 223 73.4352 223Z" fill="#1539CF"/>
<path d="M83.0289 233.05H80.9589V223.15H83.0289V233.05Z" fill="#1539CF"/>
<path d="M94.9324 224.815H91.6174V233.05H89.5474V224.815H86.2174V223.15H94.9324V224.815Z" fill="#1539CF"/>
<path d="M105.759 231.385V233.05H98.1239V223.15H105.549V224.815H100.194V227.275H104.409V228.865H100.194V231.385H105.759Z" fill="#1539CF"/>
<path d="M117.426 229.15C117.426 230.49 117.066 231.5 116.346 232.18C115.636 232.86 114.586 233.2 113.196 233.2C111.806 233.2 110.751 232.86 110.031 232.18C109.321 231.5 108.966 230.49 108.966 229.15V223.15H111.036V229.06C111.036 229.89 111.211 230.505 111.561 230.905C111.921 231.305 112.466 231.505 113.196 231.505C113.926 231.505 114.466 231.305 114.816 230.905C115.166 230.505 115.341 229.89 115.341 229.06V223.15H117.426V229.15Z" fill="#1539CF"/>
<path d="M125.239 229.255H123.379V233.05H121.339V223.15H125.704C126.834 223.15 127.714 223.42 128.344 223.96C128.984 224.49 129.304 225.24 129.304 226.21C129.304 226.92 129.129 227.515 128.779 227.995C128.429 228.475 127.929 228.82 127.279 229.03L129.889 233.05H127.564L125.239 229.255ZM123.379 227.68H125.434C126.034 227.68 126.474 227.565 126.754 227.335C127.044 227.095 127.189 226.73 127.189 226.24C127.189 225.75 127.044 225.39 126.754 225.16C126.474 224.92 126.034 224.8 125.434 224.8H123.379V227.68Z" fill="#1539CF"/>
<path d="M136.649 223C137.569 223 138.359 223.155 139.019 223.465C139.679 223.765 140.259 224.245 140.759 224.905L139.334 226.3C139.074 225.76 138.729 225.36 138.299 225.1C137.869 224.83 137.324 224.695 136.664 224.695C136.064 224.695 135.599 224.81 135.269 225.04C134.949 225.26 134.789 225.555 134.789 225.925C134.789 226.265 134.954 226.535 135.284 226.735C135.614 226.935 136.209 227.11 137.069 227.26C137.969 227.43 138.684 227.64 139.214 227.89C139.744 228.14 140.129 228.455 140.369 228.835C140.619 229.205 140.744 229.67 140.744 230.23C140.744 230.84 140.569 231.37 140.219 231.82C139.879 232.26 139.399 232.6 138.779 232.84C138.169 233.08 137.469 233.2 136.679 233.2C135.589 233.2 134.694 233.05 133.994 232.75C133.304 232.44 132.744 231.975 132.314 231.355L133.544 229.885C133.914 230.495 134.339 230.92 134.819 231.16C135.299 231.39 135.894 231.505 136.604 231.505C137.244 231.505 137.729 231.405 138.059 231.205C138.399 231.005 138.569 230.72 138.569 230.35C138.569 230.08 138.409 229.855 138.089 229.675C137.779 229.495 137.219 229.325 136.409 229.165C135.479 228.975 134.734 228.75 134.174 228.49C133.624 228.23 133.224 227.91 132.974 227.53C132.724 227.15 132.599 226.68 132.599 226.12C132.599 225.53 132.759 225 133.079 224.53C133.399 224.05 133.864 223.675 134.474 223.405C135.094 223.135 135.819 223 136.649 223Z" fill="#1539CF"/>
<path d="M56.97 251.32C56.68 252.27 56.165 252.99 55.425 253.48C54.685 253.96 53.8 254.2 52.77 254.2C51.8 254.2 50.955 253.995 50.235 253.585C49.515 253.175 48.96 252.59 48.57 251.83C48.19 251.06 48 250.15 48 249.1C48 248.05 48.19 247.145 48.57 246.385C48.96 245.615 49.51 245.025 50.22 244.615C50.94 244.205 51.78 244 52.74 244C53.77 244 54.64 244.215 55.35 244.645C56.07 245.075 56.565 245.715 56.835 246.565L54.96 247.36C54.8 246.77 54.55 246.345 54.21 246.085C53.87 245.825 53.41 245.695 52.83 245.695C51.99 245.695 51.33 245.99 50.85 246.58C50.38 247.17 50.145 248.01 50.145 249.1C50.145 250.19 50.375 251.03 50.835 251.62C51.295 252.21 51.945 252.505 52.785 252.505C53.995 252.505 54.755 251.92 55.065 250.75L56.97 251.32Z" fill="#1539CF"/>
<path d="M64.5093 244C65.4793 244 66.3193 244.205 67.0293 244.615C67.7493 245.025 68.2993 245.615 68.6793 246.385C69.0693 247.145 69.2643 248.05 69.2643 249.1C69.2643 250.15 69.0693 251.06 68.6793 251.83C68.2993 252.59 67.7493 253.175 67.0293 253.585C66.3193 253.995 65.4793 254.2 64.5093 254.2C63.5393 254.2 62.6943 253.995 61.9743 253.585C61.2543 253.175 60.6993 252.59 60.3093 251.83C59.9293 251.06 59.7393 250.15 59.7393 249.1C59.7393 248.05 59.9293 247.145 60.3093 246.385C60.6993 245.615 61.2543 245.025 61.9743 244.615C62.6943 244.205 63.5393 244 64.5093 244ZM64.5093 245.695C63.6693 245.695 63.0193 245.99 62.5593 246.58C62.1093 247.16 61.8843 248 61.8843 249.1C61.8843 250.2 62.1093 251.045 62.5593 251.635C63.0193 252.215 63.6693 252.505 64.5093 252.505C65.3393 252.505 65.9793 252.215 66.4293 251.635C66.8893 251.045 67.1193 250.2 67.1193 249.1C67.1193 248 66.8893 247.16 66.4293 246.58C65.9793 245.99 65.3393 245.695 64.5093 245.695Z" fill="#1539CF"/>
<path d="M81.3574 254.05H78.9874L75.5224 248.23L74.6674 246.565H74.6524L74.7124 248.32V254.05H72.8524V244.15H75.2074L78.6724 249.955L79.5274 251.635H79.5574L79.4974 249.88V244.15H81.3574V254.05Z" fill="#1539CF"/>
<path d="M90.3913 254.05H87.9763L84.3613 244.15H86.5513L88.6363 250.45L89.2063 252.4L89.7613 250.465L91.8613 244.15H93.9913L90.3913 254.05Z" fill="#1539CF"/>
<path d="M104.625 252.385V254.05H96.9901V244.15H104.415V245.815H99.0601V248.275H103.275V249.865H99.0601V252.385H104.625Z" fill="#1539CF"/>
<path d="M111.882 250.255H110.022V254.05H107.982V244.15H112.347C113.477 244.15 114.357 244.42 114.987 244.96C115.627 245.49 115.947 246.24 115.947 247.21C115.947 247.92 115.772 248.515 115.422 248.995C115.072 249.475 114.572 249.82 113.922 250.03L116.532 254.05H114.207L111.882 250.255ZM110.022 248.68H112.077C112.677 248.68 113.117 248.565 113.397 248.335C113.687 248.095 113.832 247.73 113.832 247.24C113.832 246.75 113.687 246.39 113.397 246.16C113.117 245.92 112.677 245.8 112.077 245.8H110.022V248.68Z" fill="#1539CF"/>
<path d="M127.332 245.815H124.017V254.05H121.947V245.815H118.617V244.15H127.332V245.815Z" fill="#1539CF"/>
<path d="M132.593 254.05H130.523V244.15H132.593V254.05Z" fill="#1539CF"/>
<path d="M140.282 244C141.202 244 141.992 244.155 142.652 244.465C143.312 244.765 143.892 245.245 144.392 245.905L142.967 247.3C142.707 246.76 142.362 246.36 141.932 246.1C141.502 245.83 140.957 245.695 140.297 245.695C139.697 245.695 139.232 245.81 138.902 246.04C138.582 246.26 138.422 246.555 138.422 246.925C138.422 247.265 138.587 247.535 138.917 247.735C139.247 247.935 139.842 248.11 140.702 248.26C141.602 248.43 142.317 248.64 142.847 248.89C143.377 249.14 143.762 249.455 144.002 249.835C144.252 250.205 144.377 250.67 144.377 251.23C144.377 251.84 144.202 252.37 143.852 252.82C143.512 253.26 143.032 253.6 142.412 253.84C141.802 254.08 141.102 254.2 140.312 254.2C139.222 254.2 138.327 254.05 137.627 253.75C136.937 253.44 136.377 252.975 135.947 252.355L137.177 250.885C137.547 251.495 137.972 251.92 138.452 252.16C138.932 252.39 139.527 252.505 140.237 252.505C140.877 252.505 141.362 252.405 141.692 252.205C142.032 252.005 142.202 251.72 142.202 251.35C142.202 251.08 142.042 250.855 141.722 250.675C141.412 250.495 140.852 250.325 140.042 250.165C139.112 249.975 138.367 249.75 137.807 249.49C137.257 249.23 136.857 248.91 136.607 248.53C136.357 248.15 136.232 247.68 136.232 247.12C136.232 246.53 136.392 246 136.712 245.53C137.032 245.05 137.497 244.675 138.107 244.405C138.727 244.135 139.452 244 140.282 244Z" fill="#1539CF"/>
</svg>
